M48
; DRILL file {KiCad 9.0.0} date 2025-06-12T15:56:31-0600
; FORMAT={-:-/ absolute / metric / decimal}
; #@! TF.CreationDate,2025-06-12T15:56:31-06:00
; #@! TF.GenerationSoftware,Kicad,Pcbnew,9.0.0
; #@! TF.FileFunction,NonPlated,1,4,NPTH
FMAT,2
METRIC
; #@! TA.AperFunction,NonPlated,NPTH,ComponentDrill
T1C1.700
; #@! TA.AperFunction,NonPlated,NPTH,ComponentDrill
T2C4.000
%
G90
G05
T1
X40.17Y-69.46
X40.17Y-88.71
X40.17Y-107.96
X40.17Y-127.25
X50.33Y-69.46
X50.33Y-88.71
X50.33Y-107.96
X50.33Y-127.25
X59.42Y-69.46
X59.42Y-88.71
X59.42Y-107.96
X59.42Y-127.25
X69.58Y-69.46
X69.58Y-88.71
X69.58Y-107.96
X69.58Y-127.25
X78.67Y-69.46
X78.67Y-88.71
X78.67Y-107.96
X78.67Y-127.25
X88.83Y-69.46
X88.83Y-88.71
X88.83Y-107.96
X88.83Y-127.25
X97.92Y-69.46
X97.92Y-88.71
X97.92Y-107.96
X97.92Y-127.25
X108.08Y-69.46
X108.08Y-88.71
X108.08Y-107.96
X108.08Y-127.25
T2
X45.25Y-69.46
X45.25Y-88.71
X45.25Y-107.96
X45.25Y-127.25
X64.5Y-69.46
X64.5Y-88.71
X64.5Y-107.96
X64.5Y-127.25
X83.75Y-69.46
X83.75Y-88.71
X83.75Y-107.96
X83.75Y-127.25
X103.0Y-69.46
X103.0Y-88.71
X103.0Y-107.96
X103.0Y-127.25
M30
