%TF.GenerationSoftware,KiCad,Pcbnew,9.0.0*%
%TF.CreationDate,2025-06-12T15:56:33-06:00*%
%TF.ProjectId,final_macropad,66696e61-6c5f-46d6-9163-726f7061642e,rev?*%
%TF.SameCoordinates,Original*%
%TF.FileFunction,Other,User*%
%FSLAX46Y46*%
G04 Gerber Fmt 4.6, Leading zero omitted, Abs format (unit mm)*
G04 Created by KiCad (PCBNEW 9.0.0) date 2025-06-12 15:56:33*
%MOMM*%
%LPD*%
G01*
G04 APERTURE LIST*
%ADD10C,0.050000*%
%ADD11C,0.152400*%
G04 APERTURE END LIST*
D10*
%TO.C,C6*%
X61292000Y-46645000D02*
X61292000Y-48605000D01*
X61292000Y-48605000D02*
X64692000Y-48605000D01*
X64692000Y-46645000D02*
X61292000Y-46645000D01*
X64692000Y-48605000D02*
X64692000Y-46645000D01*
%TO.C,C7*%
X61292000Y-39914000D02*
X61292000Y-41874000D01*
X61292000Y-41874000D02*
X64692000Y-41874000D01*
X64692000Y-39914000D02*
X61292000Y-39914000D01*
X64692000Y-41874000D02*
X64692000Y-39914000D01*
%TO.C,C5*%
X57690000Y-39524500D02*
X57690000Y-42824500D01*
X57690000Y-42824500D02*
X59150000Y-42824500D01*
X59150000Y-39524500D02*
X57690000Y-39524500D01*
X59150000Y-42824500D02*
X59150000Y-39524500D01*
%TO.C,R10*%
X71218000Y-36769000D02*
X71218000Y-38669000D01*
X71218000Y-38669000D02*
X74578000Y-38669000D01*
X74578000Y-36769000D02*
X71218000Y-36769000D01*
X74578000Y-38669000D02*
X74578000Y-36769000D01*
%TO.C,D9*%
X53600000Y-105500000D02*
X53600000Y-110200000D01*
X55900000Y-105500000D02*
X53600000Y-105500000D01*
X55900000Y-110200000D02*
X53600000Y-110200000D01*
X55900000Y-110200000D02*
X55900000Y-105500000D01*
%TO.C,C11*%
X76962500Y-48982500D02*
X76962500Y-50942500D01*
X76962500Y-50942500D02*
X80362500Y-50942500D01*
X80362500Y-48982500D02*
X76962500Y-48982500D01*
X80362500Y-50942500D02*
X80362500Y-48982500D01*
%TO.C,D7*%
X92350000Y-85650000D02*
X92350000Y-90350000D01*
X94650000Y-85650000D02*
X92350000Y-85650000D01*
X94650000Y-90350000D02*
X92350000Y-90350000D01*
X94650000Y-90350000D02*
X94650000Y-85650000D01*
%TO.C,C3*%
X41069000Y-39296000D02*
X41069000Y-41476000D01*
X41069000Y-41476000D02*
X41989000Y-41476000D01*
X41989000Y-39296000D02*
X41069000Y-39296000D01*
X41989000Y-41476000D02*
X41989000Y-39296000D01*
%TO.C,R8*%
X71820000Y-51300000D02*
X71820000Y-53200000D01*
X71820000Y-53200000D02*
X75180000Y-53200000D01*
X75180000Y-51300000D02*
X71820000Y-51300000D01*
X75180000Y-53200000D02*
X75180000Y-51300000D01*
%TO.C,R7*%
X97570000Y-39550000D02*
X97570000Y-41450000D01*
X97570000Y-41450000D02*
X100930000Y-41450000D01*
X100930000Y-39550000D02*
X97570000Y-39550000D01*
X100930000Y-41450000D02*
X100930000Y-39550000D01*
%TO.C,D1*%
X53600000Y-66150000D02*
X53600000Y-70850000D01*
X55900000Y-66150000D02*
X53600000Y-66150000D01*
X55900000Y-70850000D02*
X53600000Y-70850000D01*
X55900000Y-70850000D02*
X55900000Y-66150000D01*
%TO.C,U1*%
X43050000Y-37550000D02*
X43050000Y-50950000D01*
X43050000Y-37550000D02*
X56450000Y-37550000D01*
X43050000Y-50950000D02*
X56450000Y-50950000D01*
X56450000Y-37550000D02*
X56450000Y-50950000D01*
%TO.C,D13*%
X53850000Y-124900000D02*
X53850000Y-129600000D01*
X56150000Y-124900000D02*
X53850000Y-124900000D01*
X56150000Y-129600000D02*
X53850000Y-129600000D01*
X56150000Y-129600000D02*
X56150000Y-124900000D01*
%TO.C,D8*%
X111350000Y-85650000D02*
X111350000Y-90350000D01*
X113650000Y-85650000D02*
X111350000Y-85650000D01*
X113650000Y-90350000D02*
X111350000Y-90350000D01*
X113650000Y-90350000D02*
X113650000Y-85650000D01*
%TO.C,R9*%
X76982500Y-51512500D02*
X76982500Y-53412500D01*
X76982500Y-53412500D02*
X80342500Y-53412500D01*
X80342500Y-51512500D02*
X76982500Y-51512500D01*
X80342500Y-53412500D02*
X80342500Y-51512500D01*
%TO.C,D15*%
X92350000Y-124900000D02*
X92350000Y-129600000D01*
X94650000Y-124900000D02*
X92350000Y-124900000D01*
X94650000Y-129600000D02*
X92350000Y-129600000D01*
X94650000Y-129600000D02*
X94650000Y-124900000D01*
%TO.C,D2*%
X73100000Y-66150000D02*
X73100000Y-70850000D01*
X75400000Y-66150000D02*
X73100000Y-66150000D01*
X75400000Y-70850000D02*
X73100000Y-70850000D01*
X75400000Y-70850000D02*
X75400000Y-66150000D01*
%TO.C,D16*%
X111350000Y-124900000D02*
X111350000Y-129600000D01*
X113650000Y-124900000D02*
X111350000Y-124900000D01*
X113650000Y-129600000D02*
X111350000Y-129600000D01*
X113650000Y-129600000D02*
X113650000Y-124900000D01*
%TO.C,C4*%
X52885000Y-51610000D02*
X52885000Y-52530000D01*
X52885000Y-52530000D02*
X55065000Y-52530000D01*
X55065000Y-51610000D02*
X52885000Y-51610000D01*
X55065000Y-52530000D02*
X55065000Y-51610000D01*
%TO.C,D4*%
X111350000Y-66150000D02*
X111350000Y-70850000D01*
X113650000Y-66150000D02*
X111350000Y-66150000D01*
X113650000Y-70850000D02*
X111350000Y-70850000D01*
X113650000Y-70850000D02*
X113650000Y-66150000D01*
D11*
%TO.C,SW1*%
X30415299Y-46120650D02*
X38926701Y-46120650D01*
X30415299Y-51835650D02*
X30415299Y-46120650D01*
X38926701Y-46120650D02*
X38926701Y-51835650D01*
X38926701Y-51835650D02*
X30415299Y-51835650D01*
D10*
%TO.C,C10*%
X71800000Y-48520000D02*
X71800000Y-50480000D01*
X71800000Y-50480000D02*
X75200000Y-50480000D01*
X75200000Y-48520000D02*
X71800000Y-48520000D01*
X75200000Y-50480000D02*
X75200000Y-48520000D01*
%TO.C,D3*%
X92350000Y-66150000D02*
X92350000Y-70850000D01*
X94650000Y-66150000D02*
X92350000Y-66150000D01*
X94650000Y-70850000D02*
X92350000Y-70850000D01*
X94650000Y-70850000D02*
X94650000Y-66150000D01*
%TO.C,R12*%
X60042000Y-27371000D02*
X60042000Y-29271000D01*
X60042000Y-29271000D02*
X63402000Y-29271000D01*
X63402000Y-27371000D02*
X60042000Y-27371000D01*
X63402000Y-29271000D02*
X63402000Y-27371000D01*
%TO.C,R5*%
X93982500Y-50572000D02*
X93982500Y-52472000D01*
X93982500Y-52472000D02*
X97342500Y-52472000D01*
X97342500Y-50572000D02*
X93982500Y-50572000D01*
X97342500Y-52472000D02*
X97342500Y-50572000D01*
%TO.C,U2*%
X61573000Y-34990500D02*
X65793000Y-34990500D01*
X61573000Y-38415500D02*
X61573000Y-34990500D01*
X65793000Y-34990500D02*
X65793000Y-38415500D01*
X65793000Y-38415500D02*
X61573000Y-38415500D01*
%TO.C,C2*%
X40942000Y-46789000D02*
X40942000Y-48969000D01*
X40942000Y-48969000D02*
X41862000Y-48969000D01*
X41862000Y-46789000D02*
X40942000Y-46789000D01*
X41862000Y-48969000D02*
X41862000Y-46789000D01*
%TO.C,D12*%
X111350000Y-105500000D02*
X111350000Y-110200000D01*
X113650000Y-105500000D02*
X111350000Y-105500000D01*
X113650000Y-110200000D02*
X111350000Y-110200000D01*
X113650000Y-110200000D02*
X113650000Y-105500000D01*
%TO.C,D5*%
X53600000Y-85650000D02*
X53600000Y-90350000D01*
X55900000Y-85650000D02*
X53600000Y-85650000D01*
X55900000Y-90350000D02*
X53600000Y-90350000D01*
X55900000Y-90350000D02*
X55900000Y-85650000D01*
%TO.C,D14*%
X73100000Y-124900000D02*
X73100000Y-129600000D01*
X75400000Y-124900000D02*
X73100000Y-124900000D01*
X75400000Y-129600000D02*
X73100000Y-129600000D01*
X75400000Y-129600000D02*
X75400000Y-124900000D01*
%TO.C,R4*%
X40706000Y-50136000D02*
X40706000Y-53496000D01*
X40706000Y-53496000D02*
X42606000Y-53496000D01*
X42606000Y-50136000D02*
X40706000Y-50136000D01*
X42606000Y-53496000D02*
X42606000Y-50136000D01*
%TO.C,R1*%
X44008000Y-52041000D02*
X44008000Y-55401000D01*
X44008000Y-55401000D02*
X45908000Y-55401000D01*
X45908000Y-52041000D02*
X44008000Y-52041000D01*
X45908000Y-55401000D02*
X45908000Y-52041000D01*
%TO.C,D10*%
X72850000Y-105500000D02*
X72850000Y-110200000D01*
X75150000Y-105500000D02*
X72850000Y-105500000D01*
X75150000Y-110200000D02*
X72850000Y-110200000D01*
X75150000Y-110200000D02*
X75150000Y-105500000D01*
%TO.C,C1*%
X47491500Y-34592000D02*
X47491500Y-35512000D01*
X47491500Y-35512000D02*
X49671500Y-35512000D01*
X49671500Y-34592000D02*
X47491500Y-34592000D01*
X49671500Y-35512000D02*
X49671500Y-34592000D01*
%TO.C,D6*%
X72850000Y-85650000D02*
X72850000Y-90350000D01*
X75150000Y-85650000D02*
X72850000Y-85650000D01*
X75150000Y-90350000D02*
X72850000Y-90350000D01*
X75150000Y-90350000D02*
X75150000Y-85650000D01*
%TO.C,D11*%
X92100000Y-105500000D02*
X92100000Y-110200000D01*
X94400000Y-105500000D02*
X92100000Y-105500000D01*
X94400000Y-110200000D02*
X92100000Y-110200000D01*
X94400000Y-110200000D02*
X94400000Y-105500000D01*
%TO.C,R6*%
X100320000Y-51300000D02*
X100320000Y-53200000D01*
X100320000Y-53200000D02*
X103680000Y-53200000D01*
X103680000Y-51300000D02*
X100320000Y-51300000D01*
X103680000Y-53200000D02*
X103680000Y-51300000D01*
%TO.C,R11*%
X74166000Y-33172000D02*
X74166000Y-35072000D01*
X74166000Y-35072000D02*
X77526000Y-35072000D01*
X77526000Y-33172000D02*
X74166000Y-33172000D01*
X77526000Y-35072000D02*
X77526000Y-33172000D01*
%TO.C,Y1*%
X61292000Y-42223000D02*
X64692000Y-42223000D01*
X61292000Y-46423000D02*
X61292000Y-42223000D01*
X64692000Y-42223000D02*
X64692000Y-46423000D01*
X64692000Y-46423000D02*
X61292000Y-46423000D01*
%TO.C,C8*%
X94050000Y-48042000D02*
X94050000Y-50002000D01*
X94050000Y-50002000D02*
X97450000Y-50002000D01*
X97450000Y-48042000D02*
X94050000Y-48042000D01*
X97450000Y-50002000D02*
X97450000Y-48042000D01*
%TO.C,C9*%
X100300000Y-48770000D02*
X100300000Y-50730000D01*
X100300000Y-50730000D02*
X103700000Y-50730000D01*
X103700000Y-48770000D02*
X100300000Y-48770000D01*
X103700000Y-50730000D02*
X103700000Y-48770000D01*
%TD*%
M02*
