%TF.GenerationSoftware,KiCad,Pcbnew,9.0.0*%
%TF.CreationDate,2025-06-12T15:56:33-06:00*%
%TF.ProjectId,final_macropad,66696e61-6c5f-46d6-9163-726f7061642e,rev?*%
%TF.SameCoordinates,Original*%
%TF.FileFunction,Legend,Bot*%
%TF.FilePolarity,Positive*%
%FSLAX46Y46*%
G04 Gerber Fmt 4.6, Leading zero omitted, Abs format (unit mm)*
G04 Created by KiCad (PCBNEW 9.0.0) date 2025-06-12 15:56:33*
%MOMM*%
%LPD*%
G01*
G04 APERTURE LIST*
%ADD10C,0.300000*%
%ADD11C,0.150000*%
%ADD12C,0.120000*%
%ADD13C,0.152400*%
%ADD14C,0.508000*%
%ADD15C,0.127000*%
%ADD16C,0.200000*%
G04 APERTURE END LIST*
D10*
X110292632Y-131523828D02*
X109869298Y-133023828D01*
X109869298Y-133023828D02*
X109530632Y-131952400D01*
X109530632Y-131952400D02*
X109191965Y-133023828D01*
X109191965Y-133023828D02*
X108768632Y-131523828D01*
X107329298Y-133023828D02*
X107329298Y-132238114D01*
X107329298Y-132238114D02*
X107413965Y-132095257D01*
X107413965Y-132095257D02*
X107583298Y-132023828D01*
X107583298Y-132023828D02*
X107921965Y-132023828D01*
X107921965Y-132023828D02*
X108091298Y-132095257D01*
X107329298Y-132952400D02*
X107498632Y-133023828D01*
X107498632Y-133023828D02*
X107921965Y-133023828D01*
X107921965Y-133023828D02*
X108091298Y-132952400D01*
X108091298Y-132952400D02*
X108175965Y-132809542D01*
X108175965Y-132809542D02*
X108175965Y-132666685D01*
X108175965Y-132666685D02*
X108091298Y-132523828D01*
X108091298Y-132523828D02*
X107921965Y-132452400D01*
X107921965Y-132452400D02*
X107498632Y-132452400D01*
X107498632Y-132452400D02*
X107329298Y-132380971D01*
X106651965Y-132023828D02*
X106228631Y-133023828D01*
X105805298Y-132023828D02*
X106228631Y-133023828D01*
X106228631Y-133023828D02*
X106397965Y-133380971D01*
X106397965Y-133380971D02*
X106482631Y-133452400D01*
X106482631Y-133452400D02*
X106651965Y-133523828D01*
X105297298Y-131523828D02*
X104873964Y-133023828D01*
X104873964Y-133023828D02*
X104535298Y-131952400D01*
X104535298Y-131952400D02*
X104196631Y-133023828D01*
X104196631Y-133023828D02*
X103773298Y-131523828D01*
X102333964Y-133023828D02*
X102333964Y-132238114D01*
X102333964Y-132238114D02*
X102418631Y-132095257D01*
X102418631Y-132095257D02*
X102587964Y-132023828D01*
X102587964Y-132023828D02*
X102926631Y-132023828D01*
X102926631Y-132023828D02*
X103095964Y-132095257D01*
X102333964Y-132952400D02*
X102503298Y-133023828D01*
X102503298Y-133023828D02*
X102926631Y-133023828D01*
X102926631Y-133023828D02*
X103095964Y-132952400D01*
X103095964Y-132952400D02*
X103180631Y-132809542D01*
X103180631Y-132809542D02*
X103180631Y-132666685D01*
X103180631Y-132666685D02*
X103095964Y-132523828D01*
X103095964Y-132523828D02*
X102926631Y-132452400D01*
X102926631Y-132452400D02*
X102503298Y-132452400D01*
X102503298Y-132452400D02*
X102333964Y-132380971D01*
X101656631Y-132023828D02*
X101233297Y-133023828D01*
X100809964Y-132023828D02*
X101233297Y-133023828D01*
X101233297Y-133023828D02*
X101402631Y-133380971D01*
X101402631Y-133380971D02*
X101487297Y-133452400D01*
X101487297Y-133452400D02*
X101656631Y-133523828D01*
X100301964Y-131523828D02*
X99878630Y-133023828D01*
X99878630Y-133023828D02*
X99539964Y-131952400D01*
X99539964Y-131952400D02*
X99201297Y-133023828D01*
X99201297Y-133023828D02*
X98777964Y-131523828D01*
X97338630Y-133023828D02*
X97338630Y-132238114D01*
X97338630Y-132238114D02*
X97423297Y-132095257D01*
X97423297Y-132095257D02*
X97592630Y-132023828D01*
X97592630Y-132023828D02*
X97931297Y-132023828D01*
X97931297Y-132023828D02*
X98100630Y-132095257D01*
X97338630Y-132952400D02*
X97507964Y-133023828D01*
X97507964Y-133023828D02*
X97931297Y-133023828D01*
X97931297Y-133023828D02*
X98100630Y-132952400D01*
X98100630Y-132952400D02*
X98185297Y-132809542D01*
X98185297Y-132809542D02*
X98185297Y-132666685D01*
X98185297Y-132666685D02*
X98100630Y-132523828D01*
X98100630Y-132523828D02*
X97931297Y-132452400D01*
X97931297Y-132452400D02*
X97507964Y-132452400D01*
X97507964Y-132452400D02*
X97338630Y-132380971D01*
X96661297Y-132023828D02*
X96237963Y-133023828D01*
X95814630Y-132023828D02*
X96237963Y-133023828D01*
X96237963Y-133023828D02*
X96407297Y-133380971D01*
X96407297Y-133380971D02*
X96491963Y-133452400D01*
X96491963Y-133452400D02*
X96661297Y-133523828D01*
D11*
X65891580Y-47331333D02*
X65939200Y-47283714D01*
X65939200Y-47283714D02*
X65986819Y-47140857D01*
X65986819Y-47140857D02*
X65986819Y-47045619D01*
X65986819Y-47045619D02*
X65939200Y-46902762D01*
X65939200Y-46902762D02*
X65843961Y-46807524D01*
X65843961Y-46807524D02*
X65748723Y-46759905D01*
X65748723Y-46759905D02*
X65558247Y-46712286D01*
X65558247Y-46712286D02*
X65415390Y-46712286D01*
X65415390Y-46712286D02*
X65224914Y-46759905D01*
X65224914Y-46759905D02*
X65129676Y-46807524D01*
X65129676Y-46807524D02*
X65034438Y-46902762D01*
X65034438Y-46902762D02*
X64986819Y-47045619D01*
X64986819Y-47045619D02*
X64986819Y-47140857D01*
X64986819Y-47140857D02*
X65034438Y-47283714D01*
X65034438Y-47283714D02*
X65082057Y-47331333D01*
X64986819Y-48188476D02*
X64986819Y-47998000D01*
X64986819Y-47998000D02*
X65034438Y-47902762D01*
X65034438Y-47902762D02*
X65082057Y-47855143D01*
X65082057Y-47855143D02*
X65224914Y-47759905D01*
X65224914Y-47759905D02*
X65415390Y-47712286D01*
X65415390Y-47712286D02*
X65796342Y-47712286D01*
X65796342Y-47712286D02*
X65891580Y-47759905D01*
X65891580Y-47759905D02*
X65939200Y-47807524D01*
X65939200Y-47807524D02*
X65986819Y-47902762D01*
X65986819Y-47902762D02*
X65986819Y-48093238D01*
X65986819Y-48093238D02*
X65939200Y-48188476D01*
X65939200Y-48188476D02*
X65891580Y-48236095D01*
X65891580Y-48236095D02*
X65796342Y-48283714D01*
X65796342Y-48283714D02*
X65558247Y-48283714D01*
X65558247Y-48283714D02*
X65463009Y-48236095D01*
X65463009Y-48236095D02*
X65415390Y-48188476D01*
X65415390Y-48188476D02*
X65367771Y-48093238D01*
X65367771Y-48093238D02*
X65367771Y-47902762D01*
X65367771Y-47902762D02*
X65415390Y-47807524D01*
X65415390Y-47807524D02*
X65463009Y-47759905D01*
X65463009Y-47759905D02*
X65558247Y-47712286D01*
X66145580Y-40600333D02*
X66193200Y-40552714D01*
X66193200Y-40552714D02*
X66240819Y-40409857D01*
X66240819Y-40409857D02*
X66240819Y-40314619D01*
X66240819Y-40314619D02*
X66193200Y-40171762D01*
X66193200Y-40171762D02*
X66097961Y-40076524D01*
X66097961Y-40076524D02*
X66002723Y-40028905D01*
X66002723Y-40028905D02*
X65812247Y-39981286D01*
X65812247Y-39981286D02*
X65669390Y-39981286D01*
X65669390Y-39981286D02*
X65478914Y-40028905D01*
X65478914Y-40028905D02*
X65383676Y-40076524D01*
X65383676Y-40076524D02*
X65288438Y-40171762D01*
X65288438Y-40171762D02*
X65240819Y-40314619D01*
X65240819Y-40314619D02*
X65240819Y-40409857D01*
X65240819Y-40409857D02*
X65288438Y-40552714D01*
X65288438Y-40552714D02*
X65336057Y-40600333D01*
X65240819Y-40933667D02*
X65240819Y-41600333D01*
X65240819Y-41600333D02*
X66240819Y-41171762D01*
X58906580Y-38441333D02*
X58954200Y-38393714D01*
X58954200Y-38393714D02*
X59001819Y-38250857D01*
X59001819Y-38250857D02*
X59001819Y-38155619D01*
X59001819Y-38155619D02*
X58954200Y-38012762D01*
X58954200Y-38012762D02*
X58858961Y-37917524D01*
X58858961Y-37917524D02*
X58763723Y-37869905D01*
X58763723Y-37869905D02*
X58573247Y-37822286D01*
X58573247Y-37822286D02*
X58430390Y-37822286D01*
X58430390Y-37822286D02*
X58239914Y-37869905D01*
X58239914Y-37869905D02*
X58144676Y-37917524D01*
X58144676Y-37917524D02*
X58049438Y-38012762D01*
X58049438Y-38012762D02*
X58001819Y-38155619D01*
X58001819Y-38155619D02*
X58001819Y-38250857D01*
X58001819Y-38250857D02*
X58049438Y-38393714D01*
X58049438Y-38393714D02*
X58097057Y-38441333D01*
X58001819Y-39346095D02*
X58001819Y-38869905D01*
X58001819Y-38869905D02*
X58478009Y-38822286D01*
X58478009Y-38822286D02*
X58430390Y-38869905D01*
X58430390Y-38869905D02*
X58382771Y-38965143D01*
X58382771Y-38965143D02*
X58382771Y-39203238D01*
X58382771Y-39203238D02*
X58430390Y-39298476D01*
X58430390Y-39298476D02*
X58478009Y-39346095D01*
X58478009Y-39346095D02*
X58573247Y-39393714D01*
X58573247Y-39393714D02*
X58811342Y-39393714D01*
X58811342Y-39393714D02*
X58906580Y-39346095D01*
X58906580Y-39346095D02*
X58954200Y-39298476D01*
X58954200Y-39298476D02*
X59001819Y-39203238D01*
X59001819Y-39203238D02*
X59001819Y-38965143D01*
X59001819Y-38965143D02*
X58954200Y-38869905D01*
X58954200Y-38869905D02*
X58906580Y-38822286D01*
X73540857Y-39823819D02*
X73874190Y-39347628D01*
X74112285Y-39823819D02*
X74112285Y-38823819D01*
X74112285Y-38823819D02*
X73731333Y-38823819D01*
X73731333Y-38823819D02*
X73636095Y-38871438D01*
X73636095Y-38871438D02*
X73588476Y-38919057D01*
X73588476Y-38919057D02*
X73540857Y-39014295D01*
X73540857Y-39014295D02*
X73540857Y-39157152D01*
X73540857Y-39157152D02*
X73588476Y-39252390D01*
X73588476Y-39252390D02*
X73636095Y-39300009D01*
X73636095Y-39300009D02*
X73731333Y-39347628D01*
X73731333Y-39347628D02*
X74112285Y-39347628D01*
X72588476Y-39823819D02*
X73159904Y-39823819D01*
X72874190Y-39823819D02*
X72874190Y-38823819D01*
X72874190Y-38823819D02*
X72969428Y-38966676D01*
X72969428Y-38966676D02*
X73064666Y-39061914D01*
X73064666Y-39061914D02*
X73159904Y-39109533D01*
X71969428Y-38823819D02*
X71874190Y-38823819D01*
X71874190Y-38823819D02*
X71778952Y-38871438D01*
X71778952Y-38871438D02*
X71731333Y-38919057D01*
X71731333Y-38919057D02*
X71683714Y-39014295D01*
X71683714Y-39014295D02*
X71636095Y-39204771D01*
X71636095Y-39204771D02*
X71636095Y-39442866D01*
X71636095Y-39442866D02*
X71683714Y-39633342D01*
X71683714Y-39633342D02*
X71731333Y-39728580D01*
X71731333Y-39728580D02*
X71778952Y-39776200D01*
X71778952Y-39776200D02*
X71874190Y-39823819D01*
X71874190Y-39823819D02*
X71969428Y-39823819D01*
X71969428Y-39823819D02*
X72064666Y-39776200D01*
X72064666Y-39776200D02*
X72112285Y-39728580D01*
X72112285Y-39728580D02*
X72159904Y-39633342D01*
X72159904Y-39633342D02*
X72207523Y-39442866D01*
X72207523Y-39442866D02*
X72207523Y-39204771D01*
X72207523Y-39204771D02*
X72159904Y-39014295D01*
X72159904Y-39014295D02*
X72112285Y-38919057D01*
X72112285Y-38919057D02*
X72064666Y-38871438D01*
X72064666Y-38871438D02*
X71969428Y-38823819D01*
X57204819Y-107111905D02*
X56204819Y-107111905D01*
X56204819Y-107111905D02*
X56204819Y-107350000D01*
X56204819Y-107350000D02*
X56252438Y-107492857D01*
X56252438Y-107492857D02*
X56347676Y-107588095D01*
X56347676Y-107588095D02*
X56442914Y-107635714D01*
X56442914Y-107635714D02*
X56633390Y-107683333D01*
X56633390Y-107683333D02*
X56776247Y-107683333D01*
X56776247Y-107683333D02*
X56966723Y-107635714D01*
X56966723Y-107635714D02*
X57061961Y-107588095D01*
X57061961Y-107588095D02*
X57157200Y-107492857D01*
X57157200Y-107492857D02*
X57204819Y-107350000D01*
X57204819Y-107350000D02*
X57204819Y-107111905D01*
X57204819Y-108159524D02*
X57204819Y-108350000D01*
X57204819Y-108350000D02*
X57157200Y-108445238D01*
X57157200Y-108445238D02*
X57109580Y-108492857D01*
X57109580Y-108492857D02*
X56966723Y-108588095D01*
X56966723Y-108588095D02*
X56776247Y-108635714D01*
X56776247Y-108635714D02*
X56395295Y-108635714D01*
X56395295Y-108635714D02*
X56300057Y-108588095D01*
X56300057Y-108588095D02*
X56252438Y-108540476D01*
X56252438Y-108540476D02*
X56204819Y-108445238D01*
X56204819Y-108445238D02*
X56204819Y-108254762D01*
X56204819Y-108254762D02*
X56252438Y-108159524D01*
X56252438Y-108159524D02*
X56300057Y-108111905D01*
X56300057Y-108111905D02*
X56395295Y-108064286D01*
X56395295Y-108064286D02*
X56633390Y-108064286D01*
X56633390Y-108064286D02*
X56728628Y-108111905D01*
X56728628Y-108111905D02*
X56776247Y-108159524D01*
X56776247Y-108159524D02*
X56823866Y-108254762D01*
X56823866Y-108254762D02*
X56823866Y-108445238D01*
X56823866Y-108445238D02*
X56776247Y-108540476D01*
X56776247Y-108540476D02*
X56728628Y-108588095D01*
X56728628Y-108588095D02*
X56633390Y-108635714D01*
X79392857Y-48609580D02*
X79440476Y-48657200D01*
X79440476Y-48657200D02*
X79583333Y-48704819D01*
X79583333Y-48704819D02*
X79678571Y-48704819D01*
X79678571Y-48704819D02*
X79821428Y-48657200D01*
X79821428Y-48657200D02*
X79916666Y-48561961D01*
X79916666Y-48561961D02*
X79964285Y-48466723D01*
X79964285Y-48466723D02*
X80011904Y-48276247D01*
X80011904Y-48276247D02*
X80011904Y-48133390D01*
X80011904Y-48133390D02*
X79964285Y-47942914D01*
X79964285Y-47942914D02*
X79916666Y-47847676D01*
X79916666Y-47847676D02*
X79821428Y-47752438D01*
X79821428Y-47752438D02*
X79678571Y-47704819D01*
X79678571Y-47704819D02*
X79583333Y-47704819D01*
X79583333Y-47704819D02*
X79440476Y-47752438D01*
X79440476Y-47752438D02*
X79392857Y-47800057D01*
X78440476Y-48704819D02*
X79011904Y-48704819D01*
X78726190Y-48704819D02*
X78726190Y-47704819D01*
X78726190Y-47704819D02*
X78821428Y-47847676D01*
X78821428Y-47847676D02*
X78916666Y-47942914D01*
X78916666Y-47942914D02*
X79011904Y-47990533D01*
X77488095Y-48704819D02*
X78059523Y-48704819D01*
X77773809Y-48704819D02*
X77773809Y-47704819D01*
X77773809Y-47704819D02*
X77869047Y-47847676D01*
X77869047Y-47847676D02*
X77964285Y-47942914D01*
X77964285Y-47942914D02*
X78059523Y-47990533D01*
X95954819Y-87261905D02*
X94954819Y-87261905D01*
X94954819Y-87261905D02*
X94954819Y-87500000D01*
X94954819Y-87500000D02*
X95002438Y-87642857D01*
X95002438Y-87642857D02*
X95097676Y-87738095D01*
X95097676Y-87738095D02*
X95192914Y-87785714D01*
X95192914Y-87785714D02*
X95383390Y-87833333D01*
X95383390Y-87833333D02*
X95526247Y-87833333D01*
X95526247Y-87833333D02*
X95716723Y-87785714D01*
X95716723Y-87785714D02*
X95811961Y-87738095D01*
X95811961Y-87738095D02*
X95907200Y-87642857D01*
X95907200Y-87642857D02*
X95954819Y-87500000D01*
X95954819Y-87500000D02*
X95954819Y-87261905D01*
X94954819Y-88166667D02*
X94954819Y-88833333D01*
X94954819Y-88833333D02*
X95954819Y-88404762D01*
X40728580Y-40219333D02*
X40776200Y-40171714D01*
X40776200Y-40171714D02*
X40823819Y-40028857D01*
X40823819Y-40028857D02*
X40823819Y-39933619D01*
X40823819Y-39933619D02*
X40776200Y-39790762D01*
X40776200Y-39790762D02*
X40680961Y-39695524D01*
X40680961Y-39695524D02*
X40585723Y-39647905D01*
X40585723Y-39647905D02*
X40395247Y-39600286D01*
X40395247Y-39600286D02*
X40252390Y-39600286D01*
X40252390Y-39600286D02*
X40061914Y-39647905D01*
X40061914Y-39647905D02*
X39966676Y-39695524D01*
X39966676Y-39695524D02*
X39871438Y-39790762D01*
X39871438Y-39790762D02*
X39823819Y-39933619D01*
X39823819Y-39933619D02*
X39823819Y-40028857D01*
X39823819Y-40028857D02*
X39871438Y-40171714D01*
X39871438Y-40171714D02*
X39919057Y-40219333D01*
X39823819Y-40552667D02*
X39823819Y-41171714D01*
X39823819Y-41171714D02*
X40204771Y-40838381D01*
X40204771Y-40838381D02*
X40204771Y-40981238D01*
X40204771Y-40981238D02*
X40252390Y-41076476D01*
X40252390Y-41076476D02*
X40300009Y-41124095D01*
X40300009Y-41124095D02*
X40395247Y-41171714D01*
X40395247Y-41171714D02*
X40633342Y-41171714D01*
X40633342Y-41171714D02*
X40728580Y-41124095D01*
X40728580Y-41124095D02*
X40776200Y-41076476D01*
X40776200Y-41076476D02*
X40823819Y-40981238D01*
X40823819Y-40981238D02*
X40823819Y-40695524D01*
X40823819Y-40695524D02*
X40776200Y-40600286D01*
X40776200Y-40600286D02*
X40728580Y-40552667D01*
X71916666Y-54454819D02*
X72249999Y-53978628D01*
X72488094Y-54454819D02*
X72488094Y-53454819D01*
X72488094Y-53454819D02*
X72107142Y-53454819D01*
X72107142Y-53454819D02*
X72011904Y-53502438D01*
X72011904Y-53502438D02*
X71964285Y-53550057D01*
X71964285Y-53550057D02*
X71916666Y-53645295D01*
X71916666Y-53645295D02*
X71916666Y-53788152D01*
X71916666Y-53788152D02*
X71964285Y-53883390D01*
X71964285Y-53883390D02*
X72011904Y-53931009D01*
X72011904Y-53931009D02*
X72107142Y-53978628D01*
X72107142Y-53978628D02*
X72488094Y-53978628D01*
X71345237Y-53883390D02*
X71440475Y-53835771D01*
X71440475Y-53835771D02*
X71488094Y-53788152D01*
X71488094Y-53788152D02*
X71535713Y-53692914D01*
X71535713Y-53692914D02*
X71535713Y-53645295D01*
X71535713Y-53645295D02*
X71488094Y-53550057D01*
X71488094Y-53550057D02*
X71440475Y-53502438D01*
X71440475Y-53502438D02*
X71345237Y-53454819D01*
X71345237Y-53454819D02*
X71154761Y-53454819D01*
X71154761Y-53454819D02*
X71059523Y-53502438D01*
X71059523Y-53502438D02*
X71011904Y-53550057D01*
X71011904Y-53550057D02*
X70964285Y-53645295D01*
X70964285Y-53645295D02*
X70964285Y-53692914D01*
X70964285Y-53692914D02*
X71011904Y-53788152D01*
X71011904Y-53788152D02*
X71059523Y-53835771D01*
X71059523Y-53835771D02*
X71154761Y-53883390D01*
X71154761Y-53883390D02*
X71345237Y-53883390D01*
X71345237Y-53883390D02*
X71440475Y-53931009D01*
X71440475Y-53931009D02*
X71488094Y-53978628D01*
X71488094Y-53978628D02*
X71535713Y-54073866D01*
X71535713Y-54073866D02*
X71535713Y-54264342D01*
X71535713Y-54264342D02*
X71488094Y-54359580D01*
X71488094Y-54359580D02*
X71440475Y-54407200D01*
X71440475Y-54407200D02*
X71345237Y-54454819D01*
X71345237Y-54454819D02*
X71154761Y-54454819D01*
X71154761Y-54454819D02*
X71059523Y-54407200D01*
X71059523Y-54407200D02*
X71011904Y-54359580D01*
X71011904Y-54359580D02*
X70964285Y-54264342D01*
X70964285Y-54264342D02*
X70964285Y-54073866D01*
X70964285Y-54073866D02*
X71011904Y-53978628D01*
X71011904Y-53978628D02*
X71059523Y-53931009D01*
X71059523Y-53931009D02*
X71154761Y-53883390D01*
X99416666Y-42604819D02*
X99749999Y-42128628D01*
X99988094Y-42604819D02*
X99988094Y-41604819D01*
X99988094Y-41604819D02*
X99607142Y-41604819D01*
X99607142Y-41604819D02*
X99511904Y-41652438D01*
X99511904Y-41652438D02*
X99464285Y-41700057D01*
X99464285Y-41700057D02*
X99416666Y-41795295D01*
X99416666Y-41795295D02*
X99416666Y-41938152D01*
X99416666Y-41938152D02*
X99464285Y-42033390D01*
X99464285Y-42033390D02*
X99511904Y-42081009D01*
X99511904Y-42081009D02*
X99607142Y-42128628D01*
X99607142Y-42128628D02*
X99988094Y-42128628D01*
X99083332Y-41604819D02*
X98416666Y-41604819D01*
X98416666Y-41604819D02*
X98845237Y-42604819D01*
X57204819Y-67761905D02*
X56204819Y-67761905D01*
X56204819Y-67761905D02*
X56204819Y-68000000D01*
X56204819Y-68000000D02*
X56252438Y-68142857D01*
X56252438Y-68142857D02*
X56347676Y-68238095D01*
X56347676Y-68238095D02*
X56442914Y-68285714D01*
X56442914Y-68285714D02*
X56633390Y-68333333D01*
X56633390Y-68333333D02*
X56776247Y-68333333D01*
X56776247Y-68333333D02*
X56966723Y-68285714D01*
X56966723Y-68285714D02*
X57061961Y-68238095D01*
X57061961Y-68238095D02*
X57157200Y-68142857D01*
X57157200Y-68142857D02*
X57204819Y-68000000D01*
X57204819Y-68000000D02*
X57204819Y-67761905D01*
X57204819Y-69285714D02*
X57204819Y-68714286D01*
X57204819Y-69000000D02*
X56204819Y-69000000D01*
X56204819Y-69000000D02*
X56347676Y-68904762D01*
X56347676Y-68904762D02*
X56442914Y-68809524D01*
X56442914Y-68809524D02*
X56490533Y-68714286D01*
X41754819Y-43488095D02*
X42564342Y-43488095D01*
X42564342Y-43488095D02*
X42659580Y-43535714D01*
X42659580Y-43535714D02*
X42707200Y-43583333D01*
X42707200Y-43583333D02*
X42754819Y-43678571D01*
X42754819Y-43678571D02*
X42754819Y-43869047D01*
X42754819Y-43869047D02*
X42707200Y-43964285D01*
X42707200Y-43964285D02*
X42659580Y-44011904D01*
X42659580Y-44011904D02*
X42564342Y-44059523D01*
X42564342Y-44059523D02*
X41754819Y-44059523D01*
X42754819Y-45059523D02*
X42754819Y-44488095D01*
X42754819Y-44773809D02*
X41754819Y-44773809D01*
X41754819Y-44773809D02*
X41897676Y-44678571D01*
X41897676Y-44678571D02*
X41992914Y-44583333D01*
X41992914Y-44583333D02*
X42040533Y-44488095D01*
X57454819Y-126035714D02*
X56454819Y-126035714D01*
X56454819Y-126035714D02*
X56454819Y-126273809D01*
X56454819Y-126273809D02*
X56502438Y-126416666D01*
X56502438Y-126416666D02*
X56597676Y-126511904D01*
X56597676Y-126511904D02*
X56692914Y-126559523D01*
X56692914Y-126559523D02*
X56883390Y-126607142D01*
X56883390Y-126607142D02*
X57026247Y-126607142D01*
X57026247Y-126607142D02*
X57216723Y-126559523D01*
X57216723Y-126559523D02*
X57311961Y-126511904D01*
X57311961Y-126511904D02*
X57407200Y-126416666D01*
X57407200Y-126416666D02*
X57454819Y-126273809D01*
X57454819Y-126273809D02*
X57454819Y-126035714D01*
X57454819Y-127559523D02*
X57454819Y-126988095D01*
X57454819Y-127273809D02*
X56454819Y-127273809D01*
X56454819Y-127273809D02*
X56597676Y-127178571D01*
X56597676Y-127178571D02*
X56692914Y-127083333D01*
X56692914Y-127083333D02*
X56740533Y-126988095D01*
X56454819Y-127892857D02*
X56454819Y-128511904D01*
X56454819Y-128511904D02*
X56835771Y-128178571D01*
X56835771Y-128178571D02*
X56835771Y-128321428D01*
X56835771Y-128321428D02*
X56883390Y-128416666D01*
X56883390Y-128416666D02*
X56931009Y-128464285D01*
X56931009Y-128464285D02*
X57026247Y-128511904D01*
X57026247Y-128511904D02*
X57264342Y-128511904D01*
X57264342Y-128511904D02*
X57359580Y-128464285D01*
X57359580Y-128464285D02*
X57407200Y-128416666D01*
X57407200Y-128416666D02*
X57454819Y-128321428D01*
X57454819Y-128321428D02*
X57454819Y-128035714D01*
X57454819Y-128035714D02*
X57407200Y-127940476D01*
X57407200Y-127940476D02*
X57359580Y-127892857D01*
X114954819Y-87261905D02*
X113954819Y-87261905D01*
X113954819Y-87261905D02*
X113954819Y-87500000D01*
X113954819Y-87500000D02*
X114002438Y-87642857D01*
X114002438Y-87642857D02*
X114097676Y-87738095D01*
X114097676Y-87738095D02*
X114192914Y-87785714D01*
X114192914Y-87785714D02*
X114383390Y-87833333D01*
X114383390Y-87833333D02*
X114526247Y-87833333D01*
X114526247Y-87833333D02*
X114716723Y-87785714D01*
X114716723Y-87785714D02*
X114811961Y-87738095D01*
X114811961Y-87738095D02*
X114907200Y-87642857D01*
X114907200Y-87642857D02*
X114954819Y-87500000D01*
X114954819Y-87500000D02*
X114954819Y-87261905D01*
X114383390Y-88404762D02*
X114335771Y-88309524D01*
X114335771Y-88309524D02*
X114288152Y-88261905D01*
X114288152Y-88261905D02*
X114192914Y-88214286D01*
X114192914Y-88214286D02*
X114145295Y-88214286D01*
X114145295Y-88214286D02*
X114050057Y-88261905D01*
X114050057Y-88261905D02*
X114002438Y-88309524D01*
X114002438Y-88309524D02*
X113954819Y-88404762D01*
X113954819Y-88404762D02*
X113954819Y-88595238D01*
X113954819Y-88595238D02*
X114002438Y-88690476D01*
X114002438Y-88690476D02*
X114050057Y-88738095D01*
X114050057Y-88738095D02*
X114145295Y-88785714D01*
X114145295Y-88785714D02*
X114192914Y-88785714D01*
X114192914Y-88785714D02*
X114288152Y-88738095D01*
X114288152Y-88738095D02*
X114335771Y-88690476D01*
X114335771Y-88690476D02*
X114383390Y-88595238D01*
X114383390Y-88595238D02*
X114383390Y-88404762D01*
X114383390Y-88404762D02*
X114431009Y-88309524D01*
X114431009Y-88309524D02*
X114478628Y-88261905D01*
X114478628Y-88261905D02*
X114573866Y-88214286D01*
X114573866Y-88214286D02*
X114764342Y-88214286D01*
X114764342Y-88214286D02*
X114859580Y-88261905D01*
X114859580Y-88261905D02*
X114907200Y-88309524D01*
X114907200Y-88309524D02*
X114954819Y-88404762D01*
X114954819Y-88404762D02*
X114954819Y-88595238D01*
X114954819Y-88595238D02*
X114907200Y-88690476D01*
X114907200Y-88690476D02*
X114859580Y-88738095D01*
X114859580Y-88738095D02*
X114764342Y-88785714D01*
X114764342Y-88785714D02*
X114573866Y-88785714D01*
X114573866Y-88785714D02*
X114478628Y-88738095D01*
X114478628Y-88738095D02*
X114431009Y-88690476D01*
X114431009Y-88690476D02*
X114383390Y-88595238D01*
X77416666Y-54567319D02*
X77749999Y-54091128D01*
X77988094Y-54567319D02*
X77988094Y-53567319D01*
X77988094Y-53567319D02*
X77607142Y-53567319D01*
X77607142Y-53567319D02*
X77511904Y-53614938D01*
X77511904Y-53614938D02*
X77464285Y-53662557D01*
X77464285Y-53662557D02*
X77416666Y-53757795D01*
X77416666Y-53757795D02*
X77416666Y-53900652D01*
X77416666Y-53900652D02*
X77464285Y-53995890D01*
X77464285Y-53995890D02*
X77511904Y-54043509D01*
X77511904Y-54043509D02*
X77607142Y-54091128D01*
X77607142Y-54091128D02*
X77988094Y-54091128D01*
X76940475Y-54567319D02*
X76749999Y-54567319D01*
X76749999Y-54567319D02*
X76654761Y-54519700D01*
X76654761Y-54519700D02*
X76607142Y-54472080D01*
X76607142Y-54472080D02*
X76511904Y-54329223D01*
X76511904Y-54329223D02*
X76464285Y-54138747D01*
X76464285Y-54138747D02*
X76464285Y-53757795D01*
X76464285Y-53757795D02*
X76511904Y-53662557D01*
X76511904Y-53662557D02*
X76559523Y-53614938D01*
X76559523Y-53614938D02*
X76654761Y-53567319D01*
X76654761Y-53567319D02*
X76845237Y-53567319D01*
X76845237Y-53567319D02*
X76940475Y-53614938D01*
X76940475Y-53614938D02*
X76988094Y-53662557D01*
X76988094Y-53662557D02*
X77035713Y-53757795D01*
X77035713Y-53757795D02*
X77035713Y-53995890D01*
X77035713Y-53995890D02*
X76988094Y-54091128D01*
X76988094Y-54091128D02*
X76940475Y-54138747D01*
X76940475Y-54138747D02*
X76845237Y-54186366D01*
X76845237Y-54186366D02*
X76654761Y-54186366D01*
X76654761Y-54186366D02*
X76559523Y-54138747D01*
X76559523Y-54138747D02*
X76511904Y-54091128D01*
X76511904Y-54091128D02*
X76464285Y-53995890D01*
X95954819Y-126035714D02*
X94954819Y-126035714D01*
X94954819Y-126035714D02*
X94954819Y-126273809D01*
X94954819Y-126273809D02*
X95002438Y-126416666D01*
X95002438Y-126416666D02*
X95097676Y-126511904D01*
X95097676Y-126511904D02*
X95192914Y-126559523D01*
X95192914Y-126559523D02*
X95383390Y-126607142D01*
X95383390Y-126607142D02*
X95526247Y-126607142D01*
X95526247Y-126607142D02*
X95716723Y-126559523D01*
X95716723Y-126559523D02*
X95811961Y-126511904D01*
X95811961Y-126511904D02*
X95907200Y-126416666D01*
X95907200Y-126416666D02*
X95954819Y-126273809D01*
X95954819Y-126273809D02*
X95954819Y-126035714D01*
X95954819Y-127559523D02*
X95954819Y-126988095D01*
X95954819Y-127273809D02*
X94954819Y-127273809D01*
X94954819Y-127273809D02*
X95097676Y-127178571D01*
X95097676Y-127178571D02*
X95192914Y-127083333D01*
X95192914Y-127083333D02*
X95240533Y-126988095D01*
X94954819Y-128464285D02*
X94954819Y-127988095D01*
X94954819Y-127988095D02*
X95431009Y-127940476D01*
X95431009Y-127940476D02*
X95383390Y-127988095D01*
X95383390Y-127988095D02*
X95335771Y-128083333D01*
X95335771Y-128083333D02*
X95335771Y-128321428D01*
X95335771Y-128321428D02*
X95383390Y-128416666D01*
X95383390Y-128416666D02*
X95431009Y-128464285D01*
X95431009Y-128464285D02*
X95526247Y-128511904D01*
X95526247Y-128511904D02*
X95764342Y-128511904D01*
X95764342Y-128511904D02*
X95859580Y-128464285D01*
X95859580Y-128464285D02*
X95907200Y-128416666D01*
X95907200Y-128416666D02*
X95954819Y-128321428D01*
X95954819Y-128321428D02*
X95954819Y-128083333D01*
X95954819Y-128083333D02*
X95907200Y-127988095D01*
X95907200Y-127988095D02*
X95859580Y-127940476D01*
X76704819Y-67761905D02*
X75704819Y-67761905D01*
X75704819Y-67761905D02*
X75704819Y-68000000D01*
X75704819Y-68000000D02*
X75752438Y-68142857D01*
X75752438Y-68142857D02*
X75847676Y-68238095D01*
X75847676Y-68238095D02*
X75942914Y-68285714D01*
X75942914Y-68285714D02*
X76133390Y-68333333D01*
X76133390Y-68333333D02*
X76276247Y-68333333D01*
X76276247Y-68333333D02*
X76466723Y-68285714D01*
X76466723Y-68285714D02*
X76561961Y-68238095D01*
X76561961Y-68238095D02*
X76657200Y-68142857D01*
X76657200Y-68142857D02*
X76704819Y-68000000D01*
X76704819Y-68000000D02*
X76704819Y-67761905D01*
X75800057Y-68714286D02*
X75752438Y-68761905D01*
X75752438Y-68761905D02*
X75704819Y-68857143D01*
X75704819Y-68857143D02*
X75704819Y-69095238D01*
X75704819Y-69095238D02*
X75752438Y-69190476D01*
X75752438Y-69190476D02*
X75800057Y-69238095D01*
X75800057Y-69238095D02*
X75895295Y-69285714D01*
X75895295Y-69285714D02*
X75990533Y-69285714D01*
X75990533Y-69285714D02*
X76133390Y-69238095D01*
X76133390Y-69238095D02*
X76704819Y-68666667D01*
X76704819Y-68666667D02*
X76704819Y-69285714D01*
X114954819Y-126035714D02*
X113954819Y-126035714D01*
X113954819Y-126035714D02*
X113954819Y-126273809D01*
X113954819Y-126273809D02*
X114002438Y-126416666D01*
X114002438Y-126416666D02*
X114097676Y-126511904D01*
X114097676Y-126511904D02*
X114192914Y-126559523D01*
X114192914Y-126559523D02*
X114383390Y-126607142D01*
X114383390Y-126607142D02*
X114526247Y-126607142D01*
X114526247Y-126607142D02*
X114716723Y-126559523D01*
X114716723Y-126559523D02*
X114811961Y-126511904D01*
X114811961Y-126511904D02*
X114907200Y-126416666D01*
X114907200Y-126416666D02*
X114954819Y-126273809D01*
X114954819Y-126273809D02*
X114954819Y-126035714D01*
X114954819Y-127559523D02*
X114954819Y-126988095D01*
X114954819Y-127273809D02*
X113954819Y-127273809D01*
X113954819Y-127273809D02*
X114097676Y-127178571D01*
X114097676Y-127178571D02*
X114192914Y-127083333D01*
X114192914Y-127083333D02*
X114240533Y-126988095D01*
X113954819Y-128416666D02*
X113954819Y-128226190D01*
X113954819Y-128226190D02*
X114002438Y-128130952D01*
X114002438Y-128130952D02*
X114050057Y-128083333D01*
X114050057Y-128083333D02*
X114192914Y-127988095D01*
X114192914Y-127988095D02*
X114383390Y-127940476D01*
X114383390Y-127940476D02*
X114764342Y-127940476D01*
X114764342Y-127940476D02*
X114859580Y-127988095D01*
X114859580Y-127988095D02*
X114907200Y-128035714D01*
X114907200Y-128035714D02*
X114954819Y-128130952D01*
X114954819Y-128130952D02*
X114954819Y-128321428D01*
X114954819Y-128321428D02*
X114907200Y-128416666D01*
X114907200Y-128416666D02*
X114859580Y-128464285D01*
X114859580Y-128464285D02*
X114764342Y-128511904D01*
X114764342Y-128511904D02*
X114526247Y-128511904D01*
X114526247Y-128511904D02*
X114431009Y-128464285D01*
X114431009Y-128464285D02*
X114383390Y-128416666D01*
X114383390Y-128416666D02*
X114335771Y-128321428D01*
X114335771Y-128321428D02*
X114335771Y-128130952D01*
X114335771Y-128130952D02*
X114383390Y-128035714D01*
X114383390Y-128035714D02*
X114431009Y-127988095D01*
X114431009Y-127988095D02*
X114526247Y-127940476D01*
X55538666Y-53826580D02*
X55586285Y-53874200D01*
X55586285Y-53874200D02*
X55729142Y-53921819D01*
X55729142Y-53921819D02*
X55824380Y-53921819D01*
X55824380Y-53921819D02*
X55967237Y-53874200D01*
X55967237Y-53874200D02*
X56062475Y-53778961D01*
X56062475Y-53778961D02*
X56110094Y-53683723D01*
X56110094Y-53683723D02*
X56157713Y-53493247D01*
X56157713Y-53493247D02*
X56157713Y-53350390D01*
X56157713Y-53350390D02*
X56110094Y-53159914D01*
X56110094Y-53159914D02*
X56062475Y-53064676D01*
X56062475Y-53064676D02*
X55967237Y-52969438D01*
X55967237Y-52969438D02*
X55824380Y-52921819D01*
X55824380Y-52921819D02*
X55729142Y-52921819D01*
X55729142Y-52921819D02*
X55586285Y-52969438D01*
X55586285Y-52969438D02*
X55538666Y-53017057D01*
X54681523Y-53255152D02*
X54681523Y-53921819D01*
X54919618Y-52874200D02*
X55157713Y-53588485D01*
X55157713Y-53588485D02*
X54538666Y-53588485D01*
X114954819Y-67761905D02*
X113954819Y-67761905D01*
X113954819Y-67761905D02*
X113954819Y-68000000D01*
X113954819Y-68000000D02*
X114002438Y-68142857D01*
X114002438Y-68142857D02*
X114097676Y-68238095D01*
X114097676Y-68238095D02*
X114192914Y-68285714D01*
X114192914Y-68285714D02*
X114383390Y-68333333D01*
X114383390Y-68333333D02*
X114526247Y-68333333D01*
X114526247Y-68333333D02*
X114716723Y-68285714D01*
X114716723Y-68285714D02*
X114811961Y-68238095D01*
X114811961Y-68238095D02*
X114907200Y-68142857D01*
X114907200Y-68142857D02*
X114954819Y-68000000D01*
X114954819Y-68000000D02*
X114954819Y-67761905D01*
X114288152Y-69190476D02*
X114954819Y-69190476D01*
X113907200Y-68952381D02*
X114621485Y-68714286D01*
X114621485Y-68714286D02*
X114621485Y-69333333D01*
X34734332Y-45619200D02*
X34591475Y-45666819D01*
X34591475Y-45666819D02*
X34353380Y-45666819D01*
X34353380Y-45666819D02*
X34258142Y-45619200D01*
X34258142Y-45619200D02*
X34210523Y-45571580D01*
X34210523Y-45571580D02*
X34162904Y-45476342D01*
X34162904Y-45476342D02*
X34162904Y-45381104D01*
X34162904Y-45381104D02*
X34210523Y-45285866D01*
X34210523Y-45285866D02*
X34258142Y-45238247D01*
X34258142Y-45238247D02*
X34353380Y-45190628D01*
X34353380Y-45190628D02*
X34543856Y-45143009D01*
X34543856Y-45143009D02*
X34639094Y-45095390D01*
X34639094Y-45095390D02*
X34686713Y-45047771D01*
X34686713Y-45047771D02*
X34734332Y-44952533D01*
X34734332Y-44952533D02*
X34734332Y-44857295D01*
X34734332Y-44857295D02*
X34686713Y-44762057D01*
X34686713Y-44762057D02*
X34639094Y-44714438D01*
X34639094Y-44714438D02*
X34543856Y-44666819D01*
X34543856Y-44666819D02*
X34305761Y-44666819D01*
X34305761Y-44666819D02*
X34162904Y-44714438D01*
X33829570Y-44666819D02*
X33591475Y-45666819D01*
X33591475Y-45666819D02*
X33400999Y-44952533D01*
X33400999Y-44952533D02*
X33210523Y-45666819D01*
X33210523Y-45666819D02*
X32972428Y-44666819D01*
X32067666Y-45666819D02*
X32639094Y-45666819D01*
X32353380Y-45666819D02*
X32353380Y-44666819D01*
X32353380Y-44666819D02*
X32448618Y-44809676D01*
X32448618Y-44809676D02*
X32543856Y-44904914D01*
X32543856Y-44904914D02*
X32639094Y-44952533D01*
X76207857Y-48238580D02*
X76255476Y-48286200D01*
X76255476Y-48286200D02*
X76398333Y-48333819D01*
X76398333Y-48333819D02*
X76493571Y-48333819D01*
X76493571Y-48333819D02*
X76636428Y-48286200D01*
X76636428Y-48286200D02*
X76731666Y-48190961D01*
X76731666Y-48190961D02*
X76779285Y-48095723D01*
X76779285Y-48095723D02*
X76826904Y-47905247D01*
X76826904Y-47905247D02*
X76826904Y-47762390D01*
X76826904Y-47762390D02*
X76779285Y-47571914D01*
X76779285Y-47571914D02*
X76731666Y-47476676D01*
X76731666Y-47476676D02*
X76636428Y-47381438D01*
X76636428Y-47381438D02*
X76493571Y-47333819D01*
X76493571Y-47333819D02*
X76398333Y-47333819D01*
X76398333Y-47333819D02*
X76255476Y-47381438D01*
X76255476Y-47381438D02*
X76207857Y-47429057D01*
X75255476Y-48333819D02*
X75826904Y-48333819D01*
X75541190Y-48333819D02*
X75541190Y-47333819D01*
X75541190Y-47333819D02*
X75636428Y-47476676D01*
X75636428Y-47476676D02*
X75731666Y-47571914D01*
X75731666Y-47571914D02*
X75826904Y-47619533D01*
X74636428Y-47333819D02*
X74541190Y-47333819D01*
X74541190Y-47333819D02*
X74445952Y-47381438D01*
X74445952Y-47381438D02*
X74398333Y-47429057D01*
X74398333Y-47429057D02*
X74350714Y-47524295D01*
X74350714Y-47524295D02*
X74303095Y-47714771D01*
X74303095Y-47714771D02*
X74303095Y-47952866D01*
X74303095Y-47952866D02*
X74350714Y-48143342D01*
X74350714Y-48143342D02*
X74398333Y-48238580D01*
X74398333Y-48238580D02*
X74445952Y-48286200D01*
X74445952Y-48286200D02*
X74541190Y-48333819D01*
X74541190Y-48333819D02*
X74636428Y-48333819D01*
X74636428Y-48333819D02*
X74731666Y-48286200D01*
X74731666Y-48286200D02*
X74779285Y-48238580D01*
X74779285Y-48238580D02*
X74826904Y-48143342D01*
X74826904Y-48143342D02*
X74874523Y-47952866D01*
X74874523Y-47952866D02*
X74874523Y-47714771D01*
X74874523Y-47714771D02*
X74826904Y-47524295D01*
X74826904Y-47524295D02*
X74779285Y-47429057D01*
X74779285Y-47429057D02*
X74731666Y-47381438D01*
X74731666Y-47381438D02*
X74636428Y-47333819D01*
X95954819Y-67761905D02*
X94954819Y-67761905D01*
X94954819Y-67761905D02*
X94954819Y-68000000D01*
X94954819Y-68000000D02*
X95002438Y-68142857D01*
X95002438Y-68142857D02*
X95097676Y-68238095D01*
X95097676Y-68238095D02*
X95192914Y-68285714D01*
X95192914Y-68285714D02*
X95383390Y-68333333D01*
X95383390Y-68333333D02*
X95526247Y-68333333D01*
X95526247Y-68333333D02*
X95716723Y-68285714D01*
X95716723Y-68285714D02*
X95811961Y-68238095D01*
X95811961Y-68238095D02*
X95907200Y-68142857D01*
X95907200Y-68142857D02*
X95954819Y-68000000D01*
X95954819Y-68000000D02*
X95954819Y-67761905D01*
X94954819Y-68666667D02*
X94954819Y-69285714D01*
X94954819Y-69285714D02*
X95335771Y-68952381D01*
X95335771Y-68952381D02*
X95335771Y-69095238D01*
X95335771Y-69095238D02*
X95383390Y-69190476D01*
X95383390Y-69190476D02*
X95431009Y-69238095D01*
X95431009Y-69238095D02*
X95526247Y-69285714D01*
X95526247Y-69285714D02*
X95764342Y-69285714D01*
X95764342Y-69285714D02*
X95859580Y-69238095D01*
X95859580Y-69238095D02*
X95907200Y-69190476D01*
X95907200Y-69190476D02*
X95954819Y-69095238D01*
X95954819Y-69095238D02*
X95954819Y-68809524D01*
X95954819Y-68809524D02*
X95907200Y-68714286D01*
X95907200Y-68714286D02*
X95859580Y-68666667D01*
X62591921Y-30553819D02*
X62925254Y-30077628D01*
X63163349Y-30553819D02*
X63163349Y-29553819D01*
X63163349Y-29553819D02*
X62782397Y-29553819D01*
X62782397Y-29553819D02*
X62687159Y-29601438D01*
X62687159Y-29601438D02*
X62639540Y-29649057D01*
X62639540Y-29649057D02*
X62591921Y-29744295D01*
X62591921Y-29744295D02*
X62591921Y-29887152D01*
X62591921Y-29887152D02*
X62639540Y-29982390D01*
X62639540Y-29982390D02*
X62687159Y-30030009D01*
X62687159Y-30030009D02*
X62782397Y-30077628D01*
X62782397Y-30077628D02*
X63163349Y-30077628D01*
X61639540Y-30553819D02*
X62210968Y-30553819D01*
X61925254Y-30553819D02*
X61925254Y-29553819D01*
X61925254Y-29553819D02*
X62020492Y-29696676D01*
X62020492Y-29696676D02*
X62115730Y-29791914D01*
X62115730Y-29791914D02*
X62210968Y-29839533D01*
X61258587Y-29649057D02*
X61210968Y-29601438D01*
X61210968Y-29601438D02*
X61115730Y-29553819D01*
X61115730Y-29553819D02*
X60877635Y-29553819D01*
X60877635Y-29553819D02*
X60782397Y-29601438D01*
X60782397Y-29601438D02*
X60734778Y-29649057D01*
X60734778Y-29649057D02*
X60687159Y-29744295D01*
X60687159Y-29744295D02*
X60687159Y-29839533D01*
X60687159Y-29839533D02*
X60734778Y-29982390D01*
X60734778Y-29982390D02*
X61306206Y-30553819D01*
X61306206Y-30553819D02*
X60687159Y-30553819D01*
X95166666Y-53626819D02*
X95499999Y-53150628D01*
X95738094Y-53626819D02*
X95738094Y-52626819D01*
X95738094Y-52626819D02*
X95357142Y-52626819D01*
X95357142Y-52626819D02*
X95261904Y-52674438D01*
X95261904Y-52674438D02*
X95214285Y-52722057D01*
X95214285Y-52722057D02*
X95166666Y-52817295D01*
X95166666Y-52817295D02*
X95166666Y-52960152D01*
X95166666Y-52960152D02*
X95214285Y-53055390D01*
X95214285Y-53055390D02*
X95261904Y-53103009D01*
X95261904Y-53103009D02*
X95357142Y-53150628D01*
X95357142Y-53150628D02*
X95738094Y-53150628D01*
X94261904Y-52626819D02*
X94738094Y-52626819D01*
X94738094Y-52626819D02*
X94785713Y-53103009D01*
X94785713Y-53103009D02*
X94738094Y-53055390D01*
X94738094Y-53055390D02*
X94642856Y-53007771D01*
X94642856Y-53007771D02*
X94404761Y-53007771D01*
X94404761Y-53007771D02*
X94309523Y-53055390D01*
X94309523Y-53055390D02*
X94261904Y-53103009D01*
X94261904Y-53103009D02*
X94214285Y-53198247D01*
X94214285Y-53198247D02*
X94214285Y-53436342D01*
X94214285Y-53436342D02*
X94261904Y-53531580D01*
X94261904Y-53531580D02*
X94309523Y-53579200D01*
X94309523Y-53579200D02*
X94404761Y-53626819D01*
X94404761Y-53626819D02*
X94642856Y-53626819D01*
X94642856Y-53626819D02*
X94738094Y-53579200D01*
X94738094Y-53579200D02*
X94785713Y-53531580D01*
X65170619Y-39015295D02*
X65170619Y-39662914D01*
X65170619Y-39662914D02*
X65140142Y-39739104D01*
X65140142Y-39739104D02*
X65109666Y-39777200D01*
X65109666Y-39777200D02*
X65048714Y-39815295D01*
X65048714Y-39815295D02*
X64926809Y-39815295D01*
X64926809Y-39815295D02*
X64865857Y-39777200D01*
X64865857Y-39777200D02*
X64835380Y-39739104D01*
X64835380Y-39739104D02*
X64804904Y-39662914D01*
X64804904Y-39662914D02*
X64804904Y-39015295D01*
X64530619Y-39091485D02*
X64500143Y-39053390D01*
X64500143Y-39053390D02*
X64439190Y-39015295D01*
X64439190Y-39015295D02*
X64286809Y-39015295D01*
X64286809Y-39015295D02*
X64225857Y-39053390D01*
X64225857Y-39053390D02*
X64195381Y-39091485D01*
X64195381Y-39091485D02*
X64164904Y-39167676D01*
X64164904Y-39167676D02*
X64164904Y-39243866D01*
X64164904Y-39243866D02*
X64195381Y-39358152D01*
X64195381Y-39358152D02*
X64561095Y-39815295D01*
X64561095Y-39815295D02*
X64164904Y-39815295D01*
X40364580Y-48855333D02*
X40412200Y-48807714D01*
X40412200Y-48807714D02*
X40459819Y-48664857D01*
X40459819Y-48664857D02*
X40459819Y-48569619D01*
X40459819Y-48569619D02*
X40412200Y-48426762D01*
X40412200Y-48426762D02*
X40316961Y-48331524D01*
X40316961Y-48331524D02*
X40221723Y-48283905D01*
X40221723Y-48283905D02*
X40031247Y-48236286D01*
X40031247Y-48236286D02*
X39888390Y-48236286D01*
X39888390Y-48236286D02*
X39697914Y-48283905D01*
X39697914Y-48283905D02*
X39602676Y-48331524D01*
X39602676Y-48331524D02*
X39507438Y-48426762D01*
X39507438Y-48426762D02*
X39459819Y-48569619D01*
X39459819Y-48569619D02*
X39459819Y-48664857D01*
X39459819Y-48664857D02*
X39507438Y-48807714D01*
X39507438Y-48807714D02*
X39555057Y-48855333D01*
X39555057Y-49236286D02*
X39507438Y-49283905D01*
X39507438Y-49283905D02*
X39459819Y-49379143D01*
X39459819Y-49379143D02*
X39459819Y-49617238D01*
X39459819Y-49617238D02*
X39507438Y-49712476D01*
X39507438Y-49712476D02*
X39555057Y-49760095D01*
X39555057Y-49760095D02*
X39650295Y-49807714D01*
X39650295Y-49807714D02*
X39745533Y-49807714D01*
X39745533Y-49807714D02*
X39888390Y-49760095D01*
X39888390Y-49760095D02*
X40459819Y-49188667D01*
X40459819Y-49188667D02*
X40459819Y-49807714D01*
X114954819Y-106635714D02*
X113954819Y-106635714D01*
X113954819Y-106635714D02*
X113954819Y-106873809D01*
X113954819Y-106873809D02*
X114002438Y-107016666D01*
X114002438Y-107016666D02*
X114097676Y-107111904D01*
X114097676Y-107111904D02*
X114192914Y-107159523D01*
X114192914Y-107159523D02*
X114383390Y-107207142D01*
X114383390Y-107207142D02*
X114526247Y-107207142D01*
X114526247Y-107207142D02*
X114716723Y-107159523D01*
X114716723Y-107159523D02*
X114811961Y-107111904D01*
X114811961Y-107111904D02*
X114907200Y-107016666D01*
X114907200Y-107016666D02*
X114954819Y-106873809D01*
X114954819Y-106873809D02*
X114954819Y-106635714D01*
X114954819Y-108159523D02*
X114954819Y-107588095D01*
X114954819Y-107873809D02*
X113954819Y-107873809D01*
X113954819Y-107873809D02*
X114097676Y-107778571D01*
X114097676Y-107778571D02*
X114192914Y-107683333D01*
X114192914Y-107683333D02*
X114240533Y-107588095D01*
X114050057Y-108540476D02*
X114002438Y-108588095D01*
X114002438Y-108588095D02*
X113954819Y-108683333D01*
X113954819Y-108683333D02*
X113954819Y-108921428D01*
X113954819Y-108921428D02*
X114002438Y-109016666D01*
X114002438Y-109016666D02*
X114050057Y-109064285D01*
X114050057Y-109064285D02*
X114145295Y-109111904D01*
X114145295Y-109111904D02*
X114240533Y-109111904D01*
X114240533Y-109111904D02*
X114383390Y-109064285D01*
X114383390Y-109064285D02*
X114954819Y-108492857D01*
X114954819Y-108492857D02*
X114954819Y-109111904D01*
X57204819Y-87261905D02*
X56204819Y-87261905D01*
X56204819Y-87261905D02*
X56204819Y-87500000D01*
X56204819Y-87500000D02*
X56252438Y-87642857D01*
X56252438Y-87642857D02*
X56347676Y-87738095D01*
X56347676Y-87738095D02*
X56442914Y-87785714D01*
X56442914Y-87785714D02*
X56633390Y-87833333D01*
X56633390Y-87833333D02*
X56776247Y-87833333D01*
X56776247Y-87833333D02*
X56966723Y-87785714D01*
X56966723Y-87785714D02*
X57061961Y-87738095D01*
X57061961Y-87738095D02*
X57157200Y-87642857D01*
X57157200Y-87642857D02*
X57204819Y-87500000D01*
X57204819Y-87500000D02*
X57204819Y-87261905D01*
X56204819Y-88738095D02*
X56204819Y-88261905D01*
X56204819Y-88261905D02*
X56681009Y-88214286D01*
X56681009Y-88214286D02*
X56633390Y-88261905D01*
X56633390Y-88261905D02*
X56585771Y-88357143D01*
X56585771Y-88357143D02*
X56585771Y-88595238D01*
X56585771Y-88595238D02*
X56633390Y-88690476D01*
X56633390Y-88690476D02*
X56681009Y-88738095D01*
X56681009Y-88738095D02*
X56776247Y-88785714D01*
X56776247Y-88785714D02*
X57014342Y-88785714D01*
X57014342Y-88785714D02*
X57109580Y-88738095D01*
X57109580Y-88738095D02*
X57157200Y-88690476D01*
X57157200Y-88690476D02*
X57204819Y-88595238D01*
X57204819Y-88595238D02*
X57204819Y-88357143D01*
X57204819Y-88357143D02*
X57157200Y-88261905D01*
X57157200Y-88261905D02*
X57109580Y-88214286D01*
X76704819Y-126035714D02*
X75704819Y-126035714D01*
X75704819Y-126035714D02*
X75704819Y-126273809D01*
X75704819Y-126273809D02*
X75752438Y-126416666D01*
X75752438Y-126416666D02*
X75847676Y-126511904D01*
X75847676Y-126511904D02*
X75942914Y-126559523D01*
X75942914Y-126559523D02*
X76133390Y-126607142D01*
X76133390Y-126607142D02*
X76276247Y-126607142D01*
X76276247Y-126607142D02*
X76466723Y-126559523D01*
X76466723Y-126559523D02*
X76561961Y-126511904D01*
X76561961Y-126511904D02*
X76657200Y-126416666D01*
X76657200Y-126416666D02*
X76704819Y-126273809D01*
X76704819Y-126273809D02*
X76704819Y-126035714D01*
X76704819Y-127559523D02*
X76704819Y-126988095D01*
X76704819Y-127273809D02*
X75704819Y-127273809D01*
X75704819Y-127273809D02*
X75847676Y-127178571D01*
X75847676Y-127178571D02*
X75942914Y-127083333D01*
X75942914Y-127083333D02*
X75990533Y-126988095D01*
X76038152Y-128416666D02*
X76704819Y-128416666D01*
X75657200Y-128178571D02*
X76371485Y-127940476D01*
X76371485Y-127940476D02*
X76371485Y-128559523D01*
X40460819Y-51649333D02*
X39984628Y-51316000D01*
X40460819Y-51077905D02*
X39460819Y-51077905D01*
X39460819Y-51077905D02*
X39460819Y-51458857D01*
X39460819Y-51458857D02*
X39508438Y-51554095D01*
X39508438Y-51554095D02*
X39556057Y-51601714D01*
X39556057Y-51601714D02*
X39651295Y-51649333D01*
X39651295Y-51649333D02*
X39794152Y-51649333D01*
X39794152Y-51649333D02*
X39889390Y-51601714D01*
X39889390Y-51601714D02*
X39937009Y-51554095D01*
X39937009Y-51554095D02*
X39984628Y-51458857D01*
X39984628Y-51458857D02*
X39984628Y-51077905D01*
X39794152Y-52506476D02*
X40460819Y-52506476D01*
X39413200Y-52268381D02*
X40127485Y-52030286D01*
X40127485Y-52030286D02*
X40127485Y-52649333D01*
X43888819Y-53046333D02*
X43412628Y-52713000D01*
X43888819Y-52474905D02*
X42888819Y-52474905D01*
X42888819Y-52474905D02*
X42888819Y-52855857D01*
X42888819Y-52855857D02*
X42936438Y-52951095D01*
X42936438Y-52951095D02*
X42984057Y-52998714D01*
X42984057Y-52998714D02*
X43079295Y-53046333D01*
X43079295Y-53046333D02*
X43222152Y-53046333D01*
X43222152Y-53046333D02*
X43317390Y-52998714D01*
X43317390Y-52998714D02*
X43365009Y-52951095D01*
X43365009Y-52951095D02*
X43412628Y-52855857D01*
X43412628Y-52855857D02*
X43412628Y-52474905D01*
X43888819Y-53998714D02*
X43888819Y-53427286D01*
X43888819Y-53713000D02*
X42888819Y-53713000D01*
X42888819Y-53713000D02*
X43031676Y-53617762D01*
X43031676Y-53617762D02*
X43126914Y-53522524D01*
X43126914Y-53522524D02*
X43174533Y-53427286D01*
X76454819Y-106635714D02*
X75454819Y-106635714D01*
X75454819Y-106635714D02*
X75454819Y-106873809D01*
X75454819Y-106873809D02*
X75502438Y-107016666D01*
X75502438Y-107016666D02*
X75597676Y-107111904D01*
X75597676Y-107111904D02*
X75692914Y-107159523D01*
X75692914Y-107159523D02*
X75883390Y-107207142D01*
X75883390Y-107207142D02*
X76026247Y-107207142D01*
X76026247Y-107207142D02*
X76216723Y-107159523D01*
X76216723Y-107159523D02*
X76311961Y-107111904D01*
X76311961Y-107111904D02*
X76407200Y-107016666D01*
X76407200Y-107016666D02*
X76454819Y-106873809D01*
X76454819Y-106873809D02*
X76454819Y-106635714D01*
X76454819Y-108159523D02*
X76454819Y-107588095D01*
X76454819Y-107873809D02*
X75454819Y-107873809D01*
X75454819Y-107873809D02*
X75597676Y-107778571D01*
X75597676Y-107778571D02*
X75692914Y-107683333D01*
X75692914Y-107683333D02*
X75740533Y-107588095D01*
X75454819Y-108778571D02*
X75454819Y-108873809D01*
X75454819Y-108873809D02*
X75502438Y-108969047D01*
X75502438Y-108969047D02*
X75550057Y-109016666D01*
X75550057Y-109016666D02*
X75645295Y-109064285D01*
X75645295Y-109064285D02*
X75835771Y-109111904D01*
X75835771Y-109111904D02*
X76073866Y-109111904D01*
X76073866Y-109111904D02*
X76264342Y-109064285D01*
X76264342Y-109064285D02*
X76359580Y-109016666D01*
X76359580Y-109016666D02*
X76407200Y-108969047D01*
X76407200Y-108969047D02*
X76454819Y-108873809D01*
X76454819Y-108873809D02*
X76454819Y-108778571D01*
X76454819Y-108778571D02*
X76407200Y-108683333D01*
X76407200Y-108683333D02*
X76359580Y-108635714D01*
X76359580Y-108635714D02*
X76264342Y-108588095D01*
X76264342Y-108588095D02*
X76073866Y-108540476D01*
X76073866Y-108540476D02*
X75835771Y-108540476D01*
X75835771Y-108540476D02*
X75645295Y-108588095D01*
X75645295Y-108588095D02*
X75550057Y-108635714D01*
X75550057Y-108635714D02*
X75502438Y-108683333D01*
X75502438Y-108683333D02*
X75454819Y-108778571D01*
X48680666Y-34395580D02*
X48728285Y-34443200D01*
X48728285Y-34443200D02*
X48871142Y-34490819D01*
X48871142Y-34490819D02*
X48966380Y-34490819D01*
X48966380Y-34490819D02*
X49109237Y-34443200D01*
X49109237Y-34443200D02*
X49204475Y-34347961D01*
X49204475Y-34347961D02*
X49252094Y-34252723D01*
X49252094Y-34252723D02*
X49299713Y-34062247D01*
X49299713Y-34062247D02*
X49299713Y-33919390D01*
X49299713Y-33919390D02*
X49252094Y-33728914D01*
X49252094Y-33728914D02*
X49204475Y-33633676D01*
X49204475Y-33633676D02*
X49109237Y-33538438D01*
X49109237Y-33538438D02*
X48966380Y-33490819D01*
X48966380Y-33490819D02*
X48871142Y-33490819D01*
X48871142Y-33490819D02*
X48728285Y-33538438D01*
X48728285Y-33538438D02*
X48680666Y-33586057D01*
X47728285Y-34490819D02*
X48299713Y-34490819D01*
X48013999Y-34490819D02*
X48013999Y-33490819D01*
X48013999Y-33490819D02*
X48109237Y-33633676D01*
X48109237Y-33633676D02*
X48204475Y-33728914D01*
X48204475Y-33728914D02*
X48299713Y-33776533D01*
X76454819Y-87261905D02*
X75454819Y-87261905D01*
X75454819Y-87261905D02*
X75454819Y-87500000D01*
X75454819Y-87500000D02*
X75502438Y-87642857D01*
X75502438Y-87642857D02*
X75597676Y-87738095D01*
X75597676Y-87738095D02*
X75692914Y-87785714D01*
X75692914Y-87785714D02*
X75883390Y-87833333D01*
X75883390Y-87833333D02*
X76026247Y-87833333D01*
X76026247Y-87833333D02*
X76216723Y-87785714D01*
X76216723Y-87785714D02*
X76311961Y-87738095D01*
X76311961Y-87738095D02*
X76407200Y-87642857D01*
X76407200Y-87642857D02*
X76454819Y-87500000D01*
X76454819Y-87500000D02*
X76454819Y-87261905D01*
X75454819Y-88690476D02*
X75454819Y-88500000D01*
X75454819Y-88500000D02*
X75502438Y-88404762D01*
X75502438Y-88404762D02*
X75550057Y-88357143D01*
X75550057Y-88357143D02*
X75692914Y-88261905D01*
X75692914Y-88261905D02*
X75883390Y-88214286D01*
X75883390Y-88214286D02*
X76264342Y-88214286D01*
X76264342Y-88214286D02*
X76359580Y-88261905D01*
X76359580Y-88261905D02*
X76407200Y-88309524D01*
X76407200Y-88309524D02*
X76454819Y-88404762D01*
X76454819Y-88404762D02*
X76454819Y-88595238D01*
X76454819Y-88595238D02*
X76407200Y-88690476D01*
X76407200Y-88690476D02*
X76359580Y-88738095D01*
X76359580Y-88738095D02*
X76264342Y-88785714D01*
X76264342Y-88785714D02*
X76026247Y-88785714D01*
X76026247Y-88785714D02*
X75931009Y-88738095D01*
X75931009Y-88738095D02*
X75883390Y-88690476D01*
X75883390Y-88690476D02*
X75835771Y-88595238D01*
X75835771Y-88595238D02*
X75835771Y-88404762D01*
X75835771Y-88404762D02*
X75883390Y-88309524D01*
X75883390Y-88309524D02*
X75931009Y-88261905D01*
X75931009Y-88261905D02*
X76026247Y-88214286D01*
X95704819Y-106635714D02*
X94704819Y-106635714D01*
X94704819Y-106635714D02*
X94704819Y-106873809D01*
X94704819Y-106873809D02*
X94752438Y-107016666D01*
X94752438Y-107016666D02*
X94847676Y-107111904D01*
X94847676Y-107111904D02*
X94942914Y-107159523D01*
X94942914Y-107159523D02*
X95133390Y-107207142D01*
X95133390Y-107207142D02*
X95276247Y-107207142D01*
X95276247Y-107207142D02*
X95466723Y-107159523D01*
X95466723Y-107159523D02*
X95561961Y-107111904D01*
X95561961Y-107111904D02*
X95657200Y-107016666D01*
X95657200Y-107016666D02*
X95704819Y-106873809D01*
X95704819Y-106873809D02*
X95704819Y-106635714D01*
X95704819Y-108159523D02*
X95704819Y-107588095D01*
X95704819Y-107873809D02*
X94704819Y-107873809D01*
X94704819Y-107873809D02*
X94847676Y-107778571D01*
X94847676Y-107778571D02*
X94942914Y-107683333D01*
X94942914Y-107683333D02*
X94990533Y-107588095D01*
X95704819Y-109111904D02*
X95704819Y-108540476D01*
X95704819Y-108826190D02*
X94704819Y-108826190D01*
X94704819Y-108826190D02*
X94847676Y-108730952D01*
X94847676Y-108730952D02*
X94942914Y-108635714D01*
X94942914Y-108635714D02*
X94990533Y-108540476D01*
X100666666Y-54454819D02*
X100999999Y-53978628D01*
X101238094Y-54454819D02*
X101238094Y-53454819D01*
X101238094Y-53454819D02*
X100857142Y-53454819D01*
X100857142Y-53454819D02*
X100761904Y-53502438D01*
X100761904Y-53502438D02*
X100714285Y-53550057D01*
X100714285Y-53550057D02*
X100666666Y-53645295D01*
X100666666Y-53645295D02*
X100666666Y-53788152D01*
X100666666Y-53788152D02*
X100714285Y-53883390D01*
X100714285Y-53883390D02*
X100761904Y-53931009D01*
X100761904Y-53931009D02*
X100857142Y-53978628D01*
X100857142Y-53978628D02*
X101238094Y-53978628D01*
X99809523Y-53454819D02*
X99999999Y-53454819D01*
X99999999Y-53454819D02*
X100095237Y-53502438D01*
X100095237Y-53502438D02*
X100142856Y-53550057D01*
X100142856Y-53550057D02*
X100238094Y-53692914D01*
X100238094Y-53692914D02*
X100285713Y-53883390D01*
X100285713Y-53883390D02*
X100285713Y-54264342D01*
X100285713Y-54264342D02*
X100238094Y-54359580D01*
X100238094Y-54359580D02*
X100190475Y-54407200D01*
X100190475Y-54407200D02*
X100095237Y-54454819D01*
X100095237Y-54454819D02*
X99904761Y-54454819D01*
X99904761Y-54454819D02*
X99809523Y-54407200D01*
X99809523Y-54407200D02*
X99761904Y-54359580D01*
X99761904Y-54359580D02*
X99714285Y-54264342D01*
X99714285Y-54264342D02*
X99714285Y-54026247D01*
X99714285Y-54026247D02*
X99761904Y-53931009D01*
X99761904Y-53931009D02*
X99809523Y-53883390D01*
X99809523Y-53883390D02*
X99904761Y-53835771D01*
X99904761Y-53835771D02*
X100095237Y-53835771D01*
X100095237Y-53835771D02*
X100190475Y-53883390D01*
X100190475Y-53883390D02*
X100238094Y-53931009D01*
X100238094Y-53931009D02*
X100285713Y-54026247D01*
X77738857Y-32826819D02*
X78072190Y-32350628D01*
X78310285Y-32826819D02*
X78310285Y-31826819D01*
X78310285Y-31826819D02*
X77929333Y-31826819D01*
X77929333Y-31826819D02*
X77834095Y-31874438D01*
X77834095Y-31874438D02*
X77786476Y-31922057D01*
X77786476Y-31922057D02*
X77738857Y-32017295D01*
X77738857Y-32017295D02*
X77738857Y-32160152D01*
X77738857Y-32160152D02*
X77786476Y-32255390D01*
X77786476Y-32255390D02*
X77834095Y-32303009D01*
X77834095Y-32303009D02*
X77929333Y-32350628D01*
X77929333Y-32350628D02*
X78310285Y-32350628D01*
X76786476Y-32826819D02*
X77357904Y-32826819D01*
X77072190Y-32826819D02*
X77072190Y-31826819D01*
X77072190Y-31826819D02*
X77167428Y-31969676D01*
X77167428Y-31969676D02*
X77262666Y-32064914D01*
X77262666Y-32064914D02*
X77357904Y-32112533D01*
X75834095Y-32826819D02*
X76405523Y-32826819D01*
X76119809Y-32826819D02*
X76119809Y-31826819D01*
X76119809Y-31826819D02*
X76215047Y-31969676D01*
X76215047Y-31969676D02*
X76310285Y-32064914D01*
X76310285Y-32064914D02*
X76405523Y-32112533D01*
X65420628Y-43846809D02*
X65896819Y-43846809D01*
X64896819Y-43513476D02*
X65420628Y-43846809D01*
X65420628Y-43846809D02*
X64896819Y-44180142D01*
X65896819Y-45037285D02*
X65896819Y-44465857D01*
X65896819Y-44751571D02*
X64896819Y-44751571D01*
X64896819Y-44751571D02*
X65039676Y-44656333D01*
X65039676Y-44656333D02*
X65134914Y-44561095D01*
X65134914Y-44561095D02*
X65182533Y-44465857D01*
X98666666Y-48631580D02*
X98714285Y-48679200D01*
X98714285Y-48679200D02*
X98857142Y-48726819D01*
X98857142Y-48726819D02*
X98952380Y-48726819D01*
X98952380Y-48726819D02*
X99095237Y-48679200D01*
X99095237Y-48679200D02*
X99190475Y-48583961D01*
X99190475Y-48583961D02*
X99238094Y-48488723D01*
X99238094Y-48488723D02*
X99285713Y-48298247D01*
X99285713Y-48298247D02*
X99285713Y-48155390D01*
X99285713Y-48155390D02*
X99238094Y-47964914D01*
X99238094Y-47964914D02*
X99190475Y-47869676D01*
X99190475Y-47869676D02*
X99095237Y-47774438D01*
X99095237Y-47774438D02*
X98952380Y-47726819D01*
X98952380Y-47726819D02*
X98857142Y-47726819D01*
X98857142Y-47726819D02*
X98714285Y-47774438D01*
X98714285Y-47774438D02*
X98666666Y-47822057D01*
X98095237Y-48155390D02*
X98190475Y-48107771D01*
X98190475Y-48107771D02*
X98238094Y-48060152D01*
X98238094Y-48060152D02*
X98285713Y-47964914D01*
X98285713Y-47964914D02*
X98285713Y-47917295D01*
X98285713Y-47917295D02*
X98238094Y-47822057D01*
X98238094Y-47822057D02*
X98190475Y-47774438D01*
X98190475Y-47774438D02*
X98095237Y-47726819D01*
X98095237Y-47726819D02*
X97904761Y-47726819D01*
X97904761Y-47726819D02*
X97809523Y-47774438D01*
X97809523Y-47774438D02*
X97761904Y-47822057D01*
X97761904Y-47822057D02*
X97714285Y-47917295D01*
X97714285Y-47917295D02*
X97714285Y-47964914D01*
X97714285Y-47964914D02*
X97761904Y-48060152D01*
X97761904Y-48060152D02*
X97809523Y-48107771D01*
X97809523Y-48107771D02*
X97904761Y-48155390D01*
X97904761Y-48155390D02*
X98095237Y-48155390D01*
X98095237Y-48155390D02*
X98190475Y-48203009D01*
X98190475Y-48203009D02*
X98238094Y-48250628D01*
X98238094Y-48250628D02*
X98285713Y-48345866D01*
X98285713Y-48345866D02*
X98285713Y-48536342D01*
X98285713Y-48536342D02*
X98238094Y-48631580D01*
X98238094Y-48631580D02*
X98190475Y-48679200D01*
X98190475Y-48679200D02*
X98095237Y-48726819D01*
X98095237Y-48726819D02*
X97904761Y-48726819D01*
X97904761Y-48726819D02*
X97809523Y-48679200D01*
X97809523Y-48679200D02*
X97761904Y-48631580D01*
X97761904Y-48631580D02*
X97714285Y-48536342D01*
X97714285Y-48536342D02*
X97714285Y-48345866D01*
X97714285Y-48345866D02*
X97761904Y-48250628D01*
X97761904Y-48250628D02*
X97809523Y-48203009D01*
X97809523Y-48203009D02*
X97904761Y-48155390D01*
X101166666Y-48359580D02*
X101214285Y-48407200D01*
X101214285Y-48407200D02*
X101357142Y-48454819D01*
X101357142Y-48454819D02*
X101452380Y-48454819D01*
X101452380Y-48454819D02*
X101595237Y-48407200D01*
X101595237Y-48407200D02*
X101690475Y-48311961D01*
X101690475Y-48311961D02*
X101738094Y-48216723D01*
X101738094Y-48216723D02*
X101785713Y-48026247D01*
X101785713Y-48026247D02*
X101785713Y-47883390D01*
X101785713Y-47883390D02*
X101738094Y-47692914D01*
X101738094Y-47692914D02*
X101690475Y-47597676D01*
X101690475Y-47597676D02*
X101595237Y-47502438D01*
X101595237Y-47502438D02*
X101452380Y-47454819D01*
X101452380Y-47454819D02*
X101357142Y-47454819D01*
X101357142Y-47454819D02*
X101214285Y-47502438D01*
X101214285Y-47502438D02*
X101166666Y-47550057D01*
X100690475Y-48454819D02*
X100499999Y-48454819D01*
X100499999Y-48454819D02*
X100404761Y-48407200D01*
X100404761Y-48407200D02*
X100357142Y-48359580D01*
X100357142Y-48359580D02*
X100261904Y-48216723D01*
X100261904Y-48216723D02*
X100214285Y-48026247D01*
X100214285Y-48026247D02*
X100214285Y-47645295D01*
X100214285Y-47645295D02*
X100261904Y-47550057D01*
X100261904Y-47550057D02*
X100309523Y-47502438D01*
X100309523Y-47502438D02*
X100404761Y-47454819D01*
X100404761Y-47454819D02*
X100595237Y-47454819D01*
X100595237Y-47454819D02*
X100690475Y-47502438D01*
X100690475Y-47502438D02*
X100738094Y-47550057D01*
X100738094Y-47550057D02*
X100785713Y-47645295D01*
X100785713Y-47645295D02*
X100785713Y-47883390D01*
X100785713Y-47883390D02*
X100738094Y-47978628D01*
X100738094Y-47978628D02*
X100690475Y-48026247D01*
X100690475Y-48026247D02*
X100595237Y-48073866D01*
X100595237Y-48073866D02*
X100404761Y-48073866D01*
X100404761Y-48073866D02*
X100309523Y-48026247D01*
X100309523Y-48026247D02*
X100261904Y-47978628D01*
X100261904Y-47978628D02*
X100214285Y-47883390D01*
D12*
%TO.C,C6*%
X63253252Y-46890000D02*
X62730748Y-46890000D01*
X63253252Y-48360000D02*
X62730748Y-48360000D01*
%TO.C,C7*%
X62730748Y-40159000D02*
X63253252Y-40159000D01*
X62730748Y-41629000D02*
X63253252Y-41629000D01*
%TO.C,C5*%
X57910000Y-41028233D02*
X57910000Y-41320767D01*
X58930000Y-41028233D02*
X58930000Y-41320767D01*
%TO.C,R10*%
X72670936Y-36984000D02*
X73125064Y-36984000D01*
X72670936Y-38454000D02*
X73125064Y-38454000D01*
%TO.C,D9*%
X53750000Y-110210000D02*
X53750000Y-106200000D01*
X55750000Y-110210000D02*
X53750000Y-110210000D01*
X55750000Y-110210000D02*
X55750000Y-106200000D01*
%TO.C,C11*%
X78401248Y-49227500D02*
X78923752Y-49227500D01*
X78401248Y-50697500D02*
X78923752Y-50697500D01*
%TO.C,D7*%
X92500000Y-90360000D02*
X92500000Y-86350000D01*
X94500000Y-90360000D02*
X92500000Y-90360000D01*
X94500000Y-90360000D02*
X94500000Y-86350000D01*
%TO.C,C3*%
X41169000Y-40270165D02*
X41169000Y-40501835D01*
X41889000Y-40270165D02*
X41889000Y-40501835D01*
%TO.C,R8*%
X73272936Y-51515000D02*
X73727064Y-51515000D01*
X73272936Y-52985000D02*
X73727064Y-52985000D01*
%TO.C,R7*%
X99022936Y-39765000D02*
X99477064Y-39765000D01*
X99022936Y-41235000D02*
X99477064Y-41235000D01*
%TO.C,D1*%
X53750000Y-70860000D02*
X53750000Y-66850000D01*
X55750000Y-70860000D02*
X53750000Y-70860000D01*
X55750000Y-70860000D02*
X55750000Y-66850000D01*
D11*
%TO.C,U1*%
X44575000Y-39075000D02*
X44575000Y-39750000D01*
X44575000Y-39075000D02*
X45190000Y-39075000D01*
X44575000Y-49425000D02*
X44575000Y-48750000D01*
X44575000Y-49425000D02*
X45250000Y-49425000D01*
X54925000Y-39075000D02*
X54250000Y-39075000D01*
X54925000Y-39075000D02*
X54925000Y-39750000D01*
X54925000Y-49425000D02*
X54250000Y-49425000D01*
X54925000Y-49425000D02*
X54925000Y-48750000D01*
D12*
X45210000Y-38390000D02*
X44740000Y-38730000D01*
X44740000Y-38050000D01*
X45210000Y-38390000D01*
G36*
X45210000Y-38390000D02*
G01*
X44740000Y-38730000D01*
X44740000Y-38050000D01*
X45210000Y-38390000D01*
G37*
%TO.C,D13*%
X54000000Y-129610000D02*
X54000000Y-125600000D01*
X56000000Y-129610000D02*
X54000000Y-129610000D01*
X56000000Y-129610000D02*
X56000000Y-125600000D01*
%TO.C,D8*%
X111500000Y-90360000D02*
X111500000Y-86350000D01*
X113500000Y-90360000D02*
X111500000Y-90360000D01*
X113500000Y-90360000D02*
X113500000Y-86350000D01*
%TO.C,R9*%
X78435436Y-51727500D02*
X78889564Y-51727500D01*
X78435436Y-53197500D02*
X78889564Y-53197500D01*
%TO.C,D15*%
X92500000Y-129610000D02*
X92500000Y-125600000D01*
X94500000Y-129610000D02*
X92500000Y-129610000D01*
X94500000Y-129610000D02*
X94500000Y-125600000D01*
%TO.C,D2*%
X73250000Y-70860000D02*
X73250000Y-66850000D01*
X75250000Y-70860000D02*
X73250000Y-70860000D01*
X75250000Y-70860000D02*
X75250000Y-66850000D01*
%TO.C,D16*%
X111500000Y-129610000D02*
X111500000Y-125600000D01*
X113500000Y-129610000D02*
X111500000Y-129610000D01*
X113500000Y-129610000D02*
X113500000Y-125600000D01*
%TO.C,C4*%
X53859165Y-51710000D02*
X54090835Y-51710000D01*
X53859165Y-52430000D02*
X54090835Y-52430000D01*
%TO.C,D4*%
X111500000Y-70860000D02*
X111500000Y-66850000D01*
X113500000Y-70860000D02*
X111500000Y-70860000D01*
X113500000Y-70860000D02*
X113500000Y-66850000D01*
D13*
%TO.C,SW1*%
X31343600Y-46247650D02*
X37998400Y-46247650D01*
X31343600Y-49949309D02*
X31343600Y-48006991D01*
X37998400Y-48006991D02*
X37998400Y-49949309D01*
X37998400Y-51708650D02*
X31343600Y-51708650D01*
D14*
X40157400Y-47128150D02*
G75*
G02*
X39395400Y-47128150I-381000J0D01*
G01*
X39395400Y-47128150D02*
G75*
G02*
X40157400Y-47128150I381000J0D01*
G01*
D12*
%TO.C,C10*%
X73238748Y-48765000D02*
X73761252Y-48765000D01*
X73238748Y-50235000D02*
X73761252Y-50235000D01*
%TO.C,D3*%
X92500000Y-70860000D02*
X92500000Y-66850000D01*
X94500000Y-70860000D02*
X92500000Y-70860000D01*
X94500000Y-70860000D02*
X94500000Y-66850000D01*
%TO.C,R12*%
X61949064Y-27586000D02*
X61494936Y-27586000D01*
X61949064Y-29056000D02*
X61494936Y-29056000D01*
%TO.C,R5*%
X95435436Y-50787000D02*
X95889564Y-50787000D01*
X95435436Y-52257000D02*
X95889564Y-52257000D01*
D15*
%TO.C,U2*%
X64495500Y-35138000D02*
X62870500Y-35138000D01*
X64495500Y-38268000D02*
X62870500Y-38268000D01*
D16*
X61228000Y-37648000D02*
G75*
G02*
X61028000Y-37648000I-100000J0D01*
G01*
X61028000Y-37648000D02*
G75*
G02*
X61228000Y-37648000I100000J0D01*
G01*
D12*
%TO.C,C2*%
X41042000Y-47994835D02*
X41042000Y-47763165D01*
X41762000Y-47994835D02*
X41762000Y-47763165D01*
%TO.C,D12*%
X111500000Y-110210000D02*
X111500000Y-106200000D01*
X113500000Y-110210000D02*
X111500000Y-110210000D01*
X113500000Y-110210000D02*
X113500000Y-106200000D01*
%TO.C,D5*%
X53750000Y-90360000D02*
X53750000Y-86350000D01*
X55750000Y-90360000D02*
X53750000Y-90360000D01*
X55750000Y-90360000D02*
X55750000Y-86350000D01*
%TO.C,D14*%
X73250000Y-129610000D02*
X73250000Y-125600000D01*
X75250000Y-129610000D02*
X73250000Y-129610000D01*
X75250000Y-129610000D02*
X75250000Y-125600000D01*
%TO.C,R4*%
X40921000Y-51588936D02*
X40921000Y-52043064D01*
X42391000Y-51588936D02*
X42391000Y-52043064D01*
%TO.C,R1*%
X44223000Y-53493936D02*
X44223000Y-53948064D01*
X45693000Y-53493936D02*
X45693000Y-53948064D01*
%TO.C,D10*%
X73000000Y-110210000D02*
X73000000Y-106200000D01*
X75000000Y-110210000D02*
X73000000Y-110210000D01*
X75000000Y-110210000D02*
X75000000Y-106200000D01*
%TO.C,C1*%
X48697335Y-34692000D02*
X48465665Y-34692000D01*
X48697335Y-35412000D02*
X48465665Y-35412000D01*
%TO.C,D6*%
X73000000Y-90360000D02*
X73000000Y-86350000D01*
X75000000Y-90360000D02*
X73000000Y-90360000D01*
X75000000Y-90360000D02*
X75000000Y-86350000D01*
%TO.C,D11*%
X92250000Y-110210000D02*
X92250000Y-106200000D01*
X94250000Y-110210000D02*
X92250000Y-110210000D01*
X94250000Y-110210000D02*
X94250000Y-106200000D01*
%TO.C,R6*%
X101772936Y-51515000D02*
X102227064Y-51515000D01*
X101772936Y-52985000D02*
X102227064Y-52985000D01*
%TO.C,R11*%
X76073064Y-33387000D02*
X75618936Y-33387000D01*
X76073064Y-34857000D02*
X75618936Y-34857000D01*
%TO.C,Y1*%
X61342000Y-46323000D02*
X61342000Y-42323000D01*
X64642000Y-46323000D02*
X61342000Y-46323000D01*
%TO.C,C8*%
X95488748Y-48287000D02*
X96011252Y-48287000D01*
X95488748Y-49757000D02*
X96011252Y-49757000D01*
%TO.C,C9*%
X101738748Y-49015000D02*
X102261252Y-49015000D01*
X101738748Y-50485000D02*
X102261252Y-50485000D01*
%TD*%
M02*
