%TF.GenerationSoftware,KiCad,Pcbnew,9.0.0*%
%TF.CreationDate,2025-06-12T19:16:51-06:00*%
%TF.ProjectId,final_macropad,66696e61-6c5f-46d6-9163-726f7061642e,rev?*%
%TF.SameCoordinates,Original*%
%TF.FileFunction,Soldermask,Top*%
%TF.FilePolarity,Negative*%
%FSLAX46Y46*%
G04 Gerber Fmt 4.6, Leading zero omitted, Abs format (unit mm)*
G04 Created by KiCad (PCBNEW 9.0.0) date 2025-06-12 19:16:51*
%MOMM*%
%LPD*%
G01*
G04 APERTURE LIST*
G04 Aperture macros list*
%AMRoundRect*
0 Rectangle with rounded corners*
0 $1 Rounding radius*
0 $2 $3 $4 $5 $6 $7 $8 $9 X,Y pos of 4 corners*
0 Add a 4 corners polygon primitive as box body*
4,1,4,$2,$3,$4,$5,$6,$7,$8,$9,$2,$3,0*
0 Add four circle primitives for the rounded corners*
1,1,$1+$1,$2,$3*
1,1,$1+$1,$4,$5*
1,1,$1+$1,$6,$7*
1,1,$1+$1,$8,$9*
0 Add four rect primitives between the rounded corners*
20,1,$1+$1,$2,$3,$4,$5,0*
20,1,$1+$1,$4,$5,$6,$7,0*
20,1,$1+$1,$6,$7,$8,$9,0*
20,1,$1+$1,$8,$9,$2,$3,0*%
G04 Aperture macros list end*
%ADD10C,0.387500*%
%ADD11C,0.010000*%
%ADD12C,0.800000*%
%ADD13C,6.400000*%
%ADD14C,2.000000*%
%ADD15R,3.000000X5.000000*%
%ADD16C,1.700000*%
%ADD17C,4.000000*%
%ADD18C,2.200000*%
%ADD19C,4.400000*%
%ADD20RoundRect,0.102000X-0.754000X-0.754000X0.754000X-0.754000X0.754000X0.754000X-0.754000X0.754000X0*%
%ADD21C,1.712000*%
%ADD22C,3.204000*%
%ADD23O,1.452400X2.652400*%
%ADD24O,1.452400X3.352400*%
G04 APERTURE END LIST*
D10*
%TO.C,J2*%
X68514750Y-29922000D02*
G75*
G02*
X68127250Y-29922000I-193750J0D01*
G01*
X68127250Y-29922000D02*
G75*
G02*
X68514750Y-29922000I193750J0D01*
G01*
X68514750Y-31272000D02*
G75*
G02*
X68127250Y-31272000I-193750J0D01*
G01*
X68127250Y-31272000D02*
G75*
G02*
X68514750Y-31272000I193750J0D01*
G01*
X69364750Y-29922000D02*
G75*
G02*
X68977250Y-29922000I-193750J0D01*
G01*
X68977250Y-29922000D02*
G75*
G02*
X69364750Y-29922000I193750J0D01*
G01*
X69364750Y-31272000D02*
G75*
G02*
X68977250Y-31272000I-193750J0D01*
G01*
X68977250Y-31272000D02*
G75*
G02*
X69364750Y-31272000I193750J0D01*
G01*
X70214750Y-29922000D02*
G75*
G02*
X69827250Y-29922000I-193750J0D01*
G01*
X69827250Y-29922000D02*
G75*
G02*
X70214750Y-29922000I193750J0D01*
G01*
X70214750Y-31272000D02*
G75*
G02*
X69827250Y-31272000I-193750J0D01*
G01*
X69827250Y-31272000D02*
G75*
G02*
X70214750Y-31272000I193750J0D01*
G01*
X71064750Y-29922000D02*
G75*
G02*
X70677250Y-29922000I-193750J0D01*
G01*
X70677250Y-29922000D02*
G75*
G02*
X71064750Y-29922000I193750J0D01*
G01*
X71064750Y-31272000D02*
G75*
G02*
X70677250Y-31272000I-193750J0D01*
G01*
X70677250Y-31272000D02*
G75*
G02*
X71064750Y-31272000I193750J0D01*
G01*
D11*
X66687000Y-29540000D02*
X66751000Y-29557000D01*
X66811000Y-29584000D01*
X66866000Y-29622000D01*
X66913000Y-29668000D01*
X66952000Y-29721000D01*
X66982000Y-29781000D01*
X67001000Y-29844000D01*
X67008000Y-29910000D01*
X67005000Y-29976000D01*
X66990000Y-30040000D01*
X66964000Y-30102000D01*
X66929000Y-30157000D01*
X66884000Y-30206000D01*
X66835000Y-30245000D01*
X66834500Y-30948620D01*
X66835000Y-30949000D01*
X66884000Y-30988000D01*
X66929000Y-31037000D01*
X66964000Y-31092000D01*
X66990000Y-31154000D01*
X67005000Y-31218000D01*
X67008000Y-31284000D01*
X67001000Y-31350000D01*
X66982000Y-31413000D01*
X66952000Y-31473000D01*
X66913000Y-31526000D01*
X66866000Y-31572000D01*
X66811000Y-31610000D01*
X66751000Y-31637000D01*
X66687000Y-31654000D01*
X66621000Y-31660000D01*
X66555000Y-31654000D01*
X66491000Y-31637000D01*
X66431000Y-31610000D01*
X66376000Y-31572000D01*
X66329000Y-31526000D01*
X66290000Y-31473000D01*
X66260000Y-31413000D01*
X66241000Y-31350000D01*
X66234000Y-31284000D01*
X66237000Y-31218000D01*
X66252000Y-31154000D01*
X66278000Y-31092000D01*
X66313000Y-31037000D01*
X66358000Y-30988000D01*
X66408000Y-30949000D01*
X66408000Y-30245000D01*
X66358000Y-30206000D01*
X66313000Y-30157000D01*
X66278000Y-30102000D01*
X66252000Y-30040000D01*
X66237000Y-29976000D01*
X66234000Y-29910000D01*
X66241000Y-29844000D01*
X66260000Y-29781000D01*
X66290000Y-29721000D01*
X66329000Y-29668000D01*
X66376000Y-29622000D01*
X66431000Y-29584000D01*
X66491000Y-29557000D01*
X66555000Y-29540000D01*
X66621000Y-29534000D01*
X66687000Y-29540000D01*
G36*
X66687000Y-29540000D02*
G01*
X66751000Y-29557000D01*
X66811000Y-29584000D01*
X66866000Y-29622000D01*
X66913000Y-29668000D01*
X66952000Y-29721000D01*
X66982000Y-29781000D01*
X67001000Y-29844000D01*
X67008000Y-29910000D01*
X67005000Y-29976000D01*
X66990000Y-30040000D01*
X66964000Y-30102000D01*
X66929000Y-30157000D01*
X66884000Y-30206000D01*
X66835000Y-30245000D01*
X66834500Y-30948620D01*
X66835000Y-30949000D01*
X66884000Y-30988000D01*
X66929000Y-31037000D01*
X66964000Y-31092000D01*
X66990000Y-31154000D01*
X67005000Y-31218000D01*
X67008000Y-31284000D01*
X67001000Y-31350000D01*
X66982000Y-31413000D01*
X66952000Y-31473000D01*
X66913000Y-31526000D01*
X66866000Y-31572000D01*
X66811000Y-31610000D01*
X66751000Y-31637000D01*
X66687000Y-31654000D01*
X66621000Y-31660000D01*
X66555000Y-31654000D01*
X66491000Y-31637000D01*
X66431000Y-31610000D01*
X66376000Y-31572000D01*
X66329000Y-31526000D01*
X66290000Y-31473000D01*
X66260000Y-31413000D01*
X66241000Y-31350000D01*
X66234000Y-31284000D01*
X66237000Y-31218000D01*
X66252000Y-31154000D01*
X66278000Y-31092000D01*
X66313000Y-31037000D01*
X66358000Y-30988000D01*
X66408000Y-30949000D01*
X66408000Y-30245000D01*
X66358000Y-30206000D01*
X66313000Y-30157000D01*
X66278000Y-30102000D01*
X66252000Y-30040000D01*
X66237000Y-29976000D01*
X66234000Y-29910000D01*
X66241000Y-29844000D01*
X66260000Y-29781000D01*
X66290000Y-29721000D01*
X66329000Y-29668000D01*
X66376000Y-29622000D01*
X66431000Y-29584000D01*
X66491000Y-29557000D01*
X66555000Y-29540000D01*
X66621000Y-29534000D01*
X66687000Y-29540000D01*
G37*
X67537000Y-29540000D02*
X67601000Y-29557000D01*
X67661000Y-29584000D01*
X67716000Y-29622000D01*
X67763000Y-29668000D01*
X67802000Y-29721000D01*
X67832000Y-29781000D01*
X67851000Y-29844000D01*
X67858000Y-29910000D01*
X67855000Y-29976000D01*
X67840000Y-30040000D01*
X67814000Y-30102000D01*
X67779000Y-30157000D01*
X67734000Y-30206000D01*
X67685000Y-30245000D01*
X67685000Y-30949000D01*
X67734000Y-30988000D01*
X67779000Y-31037000D01*
X67814000Y-31092000D01*
X67840000Y-31154000D01*
X67855000Y-31218000D01*
X67858000Y-31284000D01*
X67851000Y-31350000D01*
X67832000Y-31413000D01*
X67802000Y-31473000D01*
X67763000Y-31526000D01*
X67716000Y-31572000D01*
X67661000Y-31610000D01*
X67601000Y-31637000D01*
X67537000Y-31654000D01*
X67471000Y-31660000D01*
X67405000Y-31654000D01*
X67341000Y-31637000D01*
X67281000Y-31610000D01*
X67226000Y-31572000D01*
X67179000Y-31526000D01*
X67140000Y-31473000D01*
X67110000Y-31413000D01*
X67091000Y-31350000D01*
X67084000Y-31284000D01*
X67087000Y-31218000D01*
X67102000Y-31154000D01*
X67128000Y-31092000D01*
X67163000Y-31037000D01*
X67208000Y-30988000D01*
X67258000Y-30949000D01*
X67258000Y-30245000D01*
X67257500Y-30245380D01*
X67208000Y-30206000D01*
X67163000Y-30157000D01*
X67128000Y-30102000D01*
X67102000Y-30040000D01*
X67087000Y-29976000D01*
X67084000Y-29910000D01*
X67091000Y-29844000D01*
X67110000Y-29781000D01*
X67140000Y-29721000D01*
X67179000Y-29668000D01*
X67226000Y-29622000D01*
X67281000Y-29584000D01*
X67341000Y-29557000D01*
X67405000Y-29540000D01*
X67471000Y-29534000D01*
X67537000Y-29540000D01*
G36*
X67537000Y-29540000D02*
G01*
X67601000Y-29557000D01*
X67661000Y-29584000D01*
X67716000Y-29622000D01*
X67763000Y-29668000D01*
X67802000Y-29721000D01*
X67832000Y-29781000D01*
X67851000Y-29844000D01*
X67858000Y-29910000D01*
X67855000Y-29976000D01*
X67840000Y-30040000D01*
X67814000Y-30102000D01*
X67779000Y-30157000D01*
X67734000Y-30206000D01*
X67685000Y-30245000D01*
X67685000Y-30949000D01*
X67734000Y-30988000D01*
X67779000Y-31037000D01*
X67814000Y-31092000D01*
X67840000Y-31154000D01*
X67855000Y-31218000D01*
X67858000Y-31284000D01*
X67851000Y-31350000D01*
X67832000Y-31413000D01*
X67802000Y-31473000D01*
X67763000Y-31526000D01*
X67716000Y-31572000D01*
X67661000Y-31610000D01*
X67601000Y-31637000D01*
X67537000Y-31654000D01*
X67471000Y-31660000D01*
X67405000Y-31654000D01*
X67341000Y-31637000D01*
X67281000Y-31610000D01*
X67226000Y-31572000D01*
X67179000Y-31526000D01*
X67140000Y-31473000D01*
X67110000Y-31413000D01*
X67091000Y-31350000D01*
X67084000Y-31284000D01*
X67087000Y-31218000D01*
X67102000Y-31154000D01*
X67128000Y-31092000D01*
X67163000Y-31037000D01*
X67208000Y-30988000D01*
X67258000Y-30949000D01*
X67258000Y-30245000D01*
X67257500Y-30245380D01*
X67208000Y-30206000D01*
X67163000Y-30157000D01*
X67128000Y-30102000D01*
X67102000Y-30040000D01*
X67087000Y-29976000D01*
X67084000Y-29910000D01*
X67091000Y-29844000D01*
X67110000Y-29781000D01*
X67140000Y-29721000D01*
X67179000Y-29668000D01*
X67226000Y-29622000D01*
X67281000Y-29584000D01*
X67341000Y-29557000D01*
X67405000Y-29540000D01*
X67471000Y-29534000D01*
X67537000Y-29540000D01*
G37*
X71787000Y-29540000D02*
X71851000Y-29557000D01*
X71911000Y-29584000D01*
X71966000Y-29622000D01*
X72013000Y-29668000D01*
X72052000Y-29721000D01*
X72082000Y-29781000D01*
X72101000Y-29844000D01*
X72108000Y-29910000D01*
X72105000Y-29976000D01*
X72090000Y-30040000D01*
X72064000Y-30102000D01*
X72029000Y-30157000D01*
X71984000Y-30206000D01*
X71934000Y-30245000D01*
X71934000Y-30949000D01*
X71984000Y-30988000D01*
X72029000Y-31037000D01*
X72064000Y-31092000D01*
X72090000Y-31154000D01*
X72105000Y-31218000D01*
X72108000Y-31284000D01*
X72101000Y-31350000D01*
X72082000Y-31413000D01*
X72052000Y-31473000D01*
X72013000Y-31526000D01*
X71966000Y-31572000D01*
X71911000Y-31610000D01*
X71851000Y-31637000D01*
X71787000Y-31654000D01*
X71721000Y-31660000D01*
X71655000Y-31654000D01*
X71591000Y-31637000D01*
X71531000Y-31610000D01*
X71476000Y-31572000D01*
X71429000Y-31526000D01*
X71390000Y-31473000D01*
X71360000Y-31413000D01*
X71341000Y-31350000D01*
X71334000Y-31284000D01*
X71337000Y-31218000D01*
X71352000Y-31154000D01*
X71378000Y-31092000D01*
X71413000Y-31037000D01*
X71458000Y-30988000D01*
X71507000Y-30949000D01*
X71507000Y-30245000D01*
X71507500Y-30245380D01*
X71458000Y-30206000D01*
X71413000Y-30157000D01*
X71378000Y-30102000D01*
X71352000Y-30040000D01*
X71337000Y-29976000D01*
X71334000Y-29910000D01*
X71341000Y-29844000D01*
X71360000Y-29781000D01*
X71390000Y-29721000D01*
X71429000Y-29668000D01*
X71476000Y-29622000D01*
X71531000Y-29584000D01*
X71591000Y-29557000D01*
X71655000Y-29540000D01*
X71721000Y-29534000D01*
X71787000Y-29540000D01*
G36*
X71787000Y-29540000D02*
G01*
X71851000Y-29557000D01*
X71911000Y-29584000D01*
X71966000Y-29622000D01*
X72013000Y-29668000D01*
X72052000Y-29721000D01*
X72082000Y-29781000D01*
X72101000Y-29844000D01*
X72108000Y-29910000D01*
X72105000Y-29976000D01*
X72090000Y-30040000D01*
X72064000Y-30102000D01*
X72029000Y-30157000D01*
X71984000Y-30206000D01*
X71934000Y-30245000D01*
X71934000Y-30949000D01*
X71984000Y-30988000D01*
X72029000Y-31037000D01*
X72064000Y-31092000D01*
X72090000Y-31154000D01*
X72105000Y-31218000D01*
X72108000Y-31284000D01*
X72101000Y-31350000D01*
X72082000Y-31413000D01*
X72052000Y-31473000D01*
X72013000Y-31526000D01*
X71966000Y-31572000D01*
X71911000Y-31610000D01*
X71851000Y-31637000D01*
X71787000Y-31654000D01*
X71721000Y-31660000D01*
X71655000Y-31654000D01*
X71591000Y-31637000D01*
X71531000Y-31610000D01*
X71476000Y-31572000D01*
X71429000Y-31526000D01*
X71390000Y-31473000D01*
X71360000Y-31413000D01*
X71341000Y-31350000D01*
X71334000Y-31284000D01*
X71337000Y-31218000D01*
X71352000Y-31154000D01*
X71378000Y-31092000D01*
X71413000Y-31037000D01*
X71458000Y-30988000D01*
X71507000Y-30949000D01*
X71507000Y-30245000D01*
X71507500Y-30245380D01*
X71458000Y-30206000D01*
X71413000Y-30157000D01*
X71378000Y-30102000D01*
X71352000Y-30040000D01*
X71337000Y-29976000D01*
X71334000Y-29910000D01*
X71341000Y-29844000D01*
X71360000Y-29781000D01*
X71390000Y-29721000D01*
X71429000Y-29668000D01*
X71476000Y-29622000D01*
X71531000Y-29584000D01*
X71591000Y-29557000D01*
X71655000Y-29540000D01*
X71721000Y-29534000D01*
X71787000Y-29540000D01*
G37*
X72637000Y-29540000D02*
X72701000Y-29557000D01*
X72761000Y-29584000D01*
X72816000Y-29622000D01*
X72863000Y-29668000D01*
X72902000Y-29721000D01*
X72932000Y-29781000D01*
X72951000Y-29844000D01*
X72958000Y-29910000D01*
X72955000Y-29976000D01*
X72940000Y-30040000D01*
X72914000Y-30102000D01*
X72879000Y-30157000D01*
X72834000Y-30206000D01*
X72784000Y-30245000D01*
X72784500Y-30948620D01*
X72784000Y-30949000D01*
X72834000Y-30988000D01*
X72879000Y-31037000D01*
X72914000Y-31092000D01*
X72940000Y-31154000D01*
X72955000Y-31218000D01*
X72958000Y-31284000D01*
X72951000Y-31350000D01*
X72932000Y-31413000D01*
X72902000Y-31473000D01*
X72863000Y-31526000D01*
X72816000Y-31572000D01*
X72761000Y-31610000D01*
X72701000Y-31637000D01*
X72637000Y-31654000D01*
X72571000Y-31660000D01*
X72505000Y-31654000D01*
X72441000Y-31637000D01*
X72381000Y-31610000D01*
X72326000Y-31572000D01*
X72279000Y-31526000D01*
X72240000Y-31473000D01*
X72210000Y-31413000D01*
X72191000Y-31350000D01*
X72184000Y-31284000D01*
X72187000Y-31218000D01*
X72202000Y-31154000D01*
X72228000Y-31092000D01*
X72263000Y-31037000D01*
X72308000Y-30988000D01*
X72357000Y-30949000D01*
X72357000Y-30245000D01*
X72308000Y-30206000D01*
X72263000Y-30157000D01*
X72228000Y-30102000D01*
X72202000Y-30040000D01*
X72187000Y-29976000D01*
X72184000Y-29910000D01*
X72191000Y-29844000D01*
X72210000Y-29781000D01*
X72240000Y-29721000D01*
X72279000Y-29668000D01*
X72326000Y-29622000D01*
X72381000Y-29584000D01*
X72441000Y-29557000D01*
X72505000Y-29540000D01*
X72571000Y-29534000D01*
X72637000Y-29540000D01*
G36*
X72637000Y-29540000D02*
G01*
X72701000Y-29557000D01*
X72761000Y-29584000D01*
X72816000Y-29622000D01*
X72863000Y-29668000D01*
X72902000Y-29721000D01*
X72932000Y-29781000D01*
X72951000Y-29844000D01*
X72958000Y-29910000D01*
X72955000Y-29976000D01*
X72940000Y-30040000D01*
X72914000Y-30102000D01*
X72879000Y-30157000D01*
X72834000Y-30206000D01*
X72784000Y-30245000D01*
X72784500Y-30948620D01*
X72784000Y-30949000D01*
X72834000Y-30988000D01*
X72879000Y-31037000D01*
X72914000Y-31092000D01*
X72940000Y-31154000D01*
X72955000Y-31218000D01*
X72958000Y-31284000D01*
X72951000Y-31350000D01*
X72932000Y-31413000D01*
X72902000Y-31473000D01*
X72863000Y-31526000D01*
X72816000Y-31572000D01*
X72761000Y-31610000D01*
X72701000Y-31637000D01*
X72637000Y-31654000D01*
X72571000Y-31660000D01*
X72505000Y-31654000D01*
X72441000Y-31637000D01*
X72381000Y-31610000D01*
X72326000Y-31572000D01*
X72279000Y-31526000D01*
X72240000Y-31473000D01*
X72210000Y-31413000D01*
X72191000Y-31350000D01*
X72184000Y-31284000D01*
X72187000Y-31218000D01*
X72202000Y-31154000D01*
X72228000Y-31092000D01*
X72263000Y-31037000D01*
X72308000Y-30988000D01*
X72357000Y-30949000D01*
X72357000Y-30245000D01*
X72308000Y-30206000D01*
X72263000Y-30157000D01*
X72228000Y-30102000D01*
X72202000Y-30040000D01*
X72187000Y-29976000D01*
X72184000Y-29910000D01*
X72191000Y-29844000D01*
X72210000Y-29781000D01*
X72240000Y-29721000D01*
X72279000Y-29668000D01*
X72326000Y-29622000D01*
X72381000Y-29584000D01*
X72441000Y-29557000D01*
X72505000Y-29540000D01*
X72571000Y-29534000D01*
X72637000Y-29540000D01*
G37*
%TD*%
D12*
%TO.C,H3*%
X30600000Y-140052944D03*
X31302944Y-138355888D03*
X31302944Y-141750000D03*
X33000000Y-137652944D03*
D13*
X33000000Y-140052944D03*
D12*
X33000000Y-142452944D03*
X34697056Y-138355888D03*
X34697056Y-141750000D03*
X35400000Y-140052944D03*
%TD*%
D14*
%TO.C,S17*%
X100250000Y-37750000D03*
X105250000Y-37750000D03*
X97750000Y-55250000D03*
X102750000Y-55250000D03*
X107750000Y-55250000D03*
D15*
X95400000Y-44750000D03*
X110100000Y-44750000D03*
%TD*%
D12*
%TO.C,H4*%
X112850000Y-140052944D03*
X113552944Y-138355888D03*
X113552944Y-141750000D03*
X115250000Y-137652944D03*
D13*
X115250000Y-140052944D03*
D12*
X115250000Y-142452944D03*
X116947056Y-138355888D03*
X116947056Y-141750000D03*
X117650000Y-140052944D03*
%TD*%
D16*
%TO.C,S3*%
X78670000Y-69460000D03*
D17*
X83750000Y-69460000D03*
D16*
X88830000Y-69460000D03*
D18*
X86290000Y-64380000D03*
X79940000Y-66920000D03*
%TD*%
D16*
%TO.C,S14*%
X59420000Y-127250000D03*
D17*
X64500000Y-127250000D03*
D16*
X69580000Y-127250000D03*
D18*
X67040000Y-122170000D03*
X60690000Y-124710000D03*
%TD*%
D16*
%TO.C,S6*%
X59420000Y-88710000D03*
D17*
X64500000Y-88710000D03*
D16*
X69580000Y-88710000D03*
D18*
X67040000Y-83630000D03*
X60690000Y-86170000D03*
%TD*%
D19*
%TO.C,H8*%
X93570000Y-117710000D03*
%TD*%
%TO.C,H5*%
X54670000Y-78960000D03*
%TD*%
D16*
%TO.C,S7*%
X78670000Y-88710000D03*
D17*
X83750000Y-88710000D03*
D16*
X88830000Y-88710000D03*
D18*
X86290000Y-83630000D03*
X79940000Y-86170000D03*
%TD*%
D16*
%TO.C,S4*%
X97920000Y-69460000D03*
D17*
X103000000Y-69460000D03*
D16*
X108080000Y-69460000D03*
D18*
X105540000Y-64380000D03*
X99190000Y-66920000D03*
%TD*%
D16*
%TO.C,S8*%
X97920000Y-88710000D03*
D17*
X103000000Y-88710000D03*
D16*
X108080000Y-88710000D03*
D18*
X105540000Y-83630000D03*
X99190000Y-86170000D03*
%TD*%
D12*
%TO.C,H1*%
X30600000Y-29447056D03*
X31302944Y-27750000D03*
X31302944Y-31144112D03*
X33000000Y-27047056D03*
D13*
X33000000Y-29447056D03*
D12*
X33000000Y-31847056D03*
X34697056Y-27750000D03*
X34697056Y-31144112D03*
X35400000Y-29447056D03*
%TD*%
D19*
%TO.C,H6*%
X54670000Y-117710000D03*
%TD*%
D16*
%TO.C,S5*%
X40170000Y-88710000D03*
D17*
X45250000Y-88710000D03*
D16*
X50330000Y-88710000D03*
D18*
X47790000Y-83630000D03*
X41440000Y-86170000D03*
%TD*%
D16*
%TO.C,S1*%
X40170000Y-69460000D03*
D17*
X45250000Y-69460000D03*
D16*
X50330000Y-69460000D03*
D18*
X47790000Y-64380000D03*
X41440000Y-66920000D03*
%TD*%
D16*
%TO.C,S10*%
X59420000Y-107960000D03*
D17*
X64500000Y-107960000D03*
D16*
X69580000Y-107960000D03*
D18*
X67040000Y-102880000D03*
X60690000Y-105420000D03*
%TD*%
D19*
%TO.C,H7*%
X93570000Y-78960000D03*
%TD*%
D12*
%TO.C,H2*%
X112850000Y-29447056D03*
X113552944Y-27750000D03*
X113552944Y-31144112D03*
X115250000Y-27047056D03*
D13*
X115250000Y-29447056D03*
D12*
X115250000Y-31847056D03*
X116947056Y-27750000D03*
X116947056Y-31144112D03*
X117650000Y-29447056D03*
%TD*%
D16*
%TO.C,S12*%
X97920000Y-107960000D03*
D17*
X103000000Y-107960000D03*
D16*
X108080000Y-107960000D03*
D18*
X105540000Y-102880000D03*
X99190000Y-105420000D03*
%TD*%
D20*
%TO.C,U3*%
X46190000Y-32500000D03*
D21*
X48730000Y-32500000D03*
X51270000Y-32500000D03*
X53810000Y-32500000D03*
D22*
X39000000Y-33000000D03*
X61000000Y-33000000D03*
X61000000Y-55000000D03*
X39000000Y-55000000D03*
%TD*%
D16*
%TO.C,S2*%
X59420000Y-69460000D03*
D17*
X64500000Y-69460000D03*
D16*
X69580000Y-69460000D03*
D18*
X67040000Y-64380000D03*
X60690000Y-66920000D03*
%TD*%
D16*
%TO.C,S9*%
X40170000Y-107960000D03*
D17*
X45250000Y-107960000D03*
D16*
X50330000Y-107960000D03*
D18*
X47790000Y-102880000D03*
X41440000Y-105420000D03*
%TD*%
D23*
%TO.C,J2*%
X73916000Y-26622000D03*
X65276000Y-26622000D03*
D24*
X73916000Y-30772000D03*
X65276000Y-30772000D03*
%TD*%
D16*
%TO.C,S15*%
X78670000Y-127250000D03*
D17*
X83750000Y-127250000D03*
D16*
X88830000Y-127250000D03*
D18*
X86290000Y-122170000D03*
X79940000Y-124710000D03*
%TD*%
D14*
%TO.C,S18*%
X77000000Y-37750000D03*
X82000000Y-37750000D03*
X74500000Y-55250000D03*
X79500000Y-55250000D03*
X84500000Y-55250000D03*
D15*
X72150000Y-44750000D03*
X86850000Y-44750000D03*
%TD*%
D16*
%TO.C,S16*%
X97920000Y-127250000D03*
D17*
X103000000Y-127250000D03*
D16*
X108080000Y-127250000D03*
D18*
X105540000Y-122170000D03*
X99190000Y-124710000D03*
%TD*%
D16*
%TO.C,S13*%
X40170000Y-127250000D03*
D17*
X45250000Y-127250000D03*
D16*
X50330000Y-127250000D03*
D18*
X47790000Y-122170000D03*
X41440000Y-124710000D03*
%TD*%
D16*
%TO.C,S11*%
X78670000Y-107960000D03*
D17*
X83750000Y-107960000D03*
D16*
X88830000Y-107960000D03*
D18*
X86290000Y-102880000D03*
X79940000Y-105420000D03*
%TD*%
M02*
