M48
; DRILL file {KiCad 9.0.0} date 2025-06-12T19:16:49-0600
; FORMAT={-:-/ absolute / metric / decimal}
; #@! TF.CreationDate,2025-06-12T19:16:49-06:00
; #@! TF.GenerationSoftware,Kicad,Pcbnew,9.0.0
; #@! TF.FileFunction,Plated,1,4,PTH
FMAT,2
METRIC
; #@! TA.AperFunction,Plated,PTH,ViaDrill
T1C0.300
; #@! TA.AperFunction,Plated,PTH,ViaDrill
T2C0.381
; #@! TA.AperFunction,Plated,PTH,ComponentDrill
T3C0.400
; #@! TA.AperFunction,Plated,PTH,ComponentDrill
T4C0.500
; #@! TA.AperFunction,Plated,PTH,ComponentDrill
T5C0.700
; #@! TA.AperFunction,Plated,PTH,ComponentDrill
T6C1.000
; #@! TA.AperFunction,Plated,PTH,ComponentDrill
T7C1.200
; #@! TA.AperFunction,Plated,PTH,ComponentDrill
T8C1.500
; #@! TA.AperFunction,Plated,PTH,ComponentDrill
T9C2.000
; #@! TA.AperFunction,Plated,PTH,ComponentDrill
T10C2.100
; #@! TA.AperFunction,Plated,PTH,ComponentDrill
T11C2.200
; #@! TA.AperFunction,Plated,PTH,ComponentDrill
T12C3.200
%
G90
G05
T1
X31.496Y-52.832
X40.027Y-42.65
X41.402Y-46.228
X41.402Y-49.53
X41.529Y-38.608
X41.529Y-42.037
X43.18Y-51.435
X43.18Y-54.61
X46.5Y-40.25
X46.852Y-35.052
X47.498Y-57.531
X48.26Y-56.134
X48.387Y-40.64
X49.784Y-40.132
X49.784Y-54.483
X50.232Y-35.052
X50.546Y-41.402
X51.308Y-34.163
X51.35Y-40.132
X52.15Y-40.132
X52.832Y-70.104
X53.467Y-41.148
X53.467Y-53.086
X53.848Y-34.163
X54.991Y-130.556
X55.118Y-38.608
X55.753Y-52.07
X57.023Y-40.259
X57.15Y-47.45
X57.883Y-91.694
X58.102Y-46.672
X59.055Y-45.847
X59.563Y-40.285
X59.563Y-42.063
X59.944Y-45.085
X60.452Y-43.18
X60.833Y-26.797
X60.889Y-36.703
X65.278Y-45.466
X70.358Y-38.55
X71.247Y-49.41
X75.692Y-49.41
X76.0Y-111.25
X76.2Y-50.927
X78.232Y-34.163
X81.153Y-49.276
X93.345Y-49.022
X97.155Y-39.37
X98.044Y-48.641
X99.0Y-50.0
X104.5Y-49.75
T2
X66.477Y-36.703
T3
X66.621Y-29.922
X66.621Y-31.272
X67.471Y-29.922
X67.471Y-31.272
X68.321Y-29.922
X68.321Y-31.272
X69.171Y-29.922
X69.171Y-31.272
X70.021Y-29.922
X70.021Y-31.272
X70.871Y-29.922
X70.871Y-31.272
X71.721Y-29.922
X71.721Y-31.272
X72.571Y-29.922
X72.571Y-31.272
T4
X30.6Y-29.447
X30.6Y-140.053
X31.303Y-27.75
X31.303Y-31.144
X31.303Y-138.356
X31.303Y-141.75
X33.0Y-27.047
X33.0Y-31.847
X33.0Y-137.653
X33.0Y-142.453
X34.697Y-27.75
X34.697Y-31.144
X34.697Y-138.356
X34.697Y-141.75
X35.4Y-29.447
X35.4Y-140.053
X112.85Y-29.447
X112.85Y-140.053
X113.553Y-27.75
X113.553Y-31.144
X113.553Y-138.356
X113.553Y-141.75
X115.25Y-27.047
X115.25Y-31.847
X115.25Y-137.653
X115.25Y-142.453
X116.947Y-27.75
X116.947Y-31.144
X116.947Y-138.356
X116.947Y-141.75
X117.65Y-29.447
X117.65Y-140.053
T6
X46.19Y-32.5
X48.73Y-32.5
X51.27Y-32.5
X53.81Y-32.5
T7
X74.5Y-55.25
X77.0Y-37.75
X79.5Y-55.25
X82.0Y-37.75
X84.5Y-55.25
X97.75Y-55.25
X100.25Y-37.75
X102.75Y-55.25
X105.25Y-37.75
X107.75Y-55.25
T8
X41.44Y-66.92
X41.44Y-86.17
X41.44Y-105.42
X41.44Y-124.71
X47.79Y-64.38
X47.79Y-83.63
X47.79Y-102.88
X47.79Y-122.17
X60.69Y-66.92
X60.69Y-86.17
X60.69Y-105.42
X60.69Y-124.71
X67.04Y-64.38
X67.04Y-83.63
X67.04Y-102.88
X67.04Y-122.17
X79.94Y-66.92
X79.94Y-86.17
X79.94Y-105.42
X79.94Y-124.71
X86.29Y-64.38
X86.29Y-83.63
X86.29Y-102.88
X86.29Y-122.17
X99.19Y-66.92
X99.19Y-86.17
X99.19Y-105.42
X99.19Y-124.71
X105.54Y-64.38
X105.54Y-83.63
X105.54Y-102.88
X105.54Y-122.17
T9
X39.0Y-33.0
X39.0Y-55.0
X61.0Y-33.0
X61.0Y-55.0
T11
X54.67Y-78.96
X54.67Y-117.71
X93.57Y-78.96
X93.57Y-117.71
T12
X33.0Y-29.447
X33.0Y-140.053
X115.25Y-29.447
X115.25Y-140.053
T5
G00X65.276Y-27.072
M15
G01X65.276Y-26.172
M16
G05
G00X65.276Y-31.422
M15
G01X65.276Y-30.122
M16
G05
G00X73.916Y-27.072
M15
G01X73.916Y-26.172
M16
G05
G00X73.916Y-31.422
M15
G01X73.916Y-30.122
M16
G05
T10
G00X72.15Y-45.7
M15
G01X72.15Y-43.8
M16
G05
G00X86.85Y-45.7
M15
G01X86.85Y-43.8
M16
G05
G00X95.4Y-45.7
M15
G01X95.4Y-43.8
M16
G05
G00X110.1Y-45.7
M15
G01X110.1Y-43.8
M16
G05
M30
