%TF.GenerationSoftware,KiCad,Pcbnew,9.0.0*%
%TF.CreationDate,2025-06-12T19:16:51-06:00*%
%TF.ProjectId,final_macropad,66696e61-6c5f-46d6-9163-726f7061642e,rev?*%
%TF.SameCoordinates,Original*%
%TF.FileFunction,Copper,L4,Bot*%
%TF.FilePolarity,Positive*%
%FSLAX46Y46*%
G04 Gerber Fmt 4.6, Leading zero omitted, Abs format (unit mm)*
G04 Created by KiCad (PCBNEW 9.0.0) date 2025-06-12 19:16:51*
%MOMM*%
%LPD*%
G01*
G04 APERTURE LIST*
G04 Aperture macros list*
%AMRoundRect*
0 Rectangle with rounded corners*
0 $1 Rounding radius*
0 $2 $3 $4 $5 $6 $7 $8 $9 X,Y pos of 4 corners*
0 Add a 4 corners polygon primitive as box body*
4,1,4,$2,$3,$4,$5,$6,$7,$8,$9,$2,$3,0*
0 Add four circle primitives for the rounded corners*
1,1,$1+$1,$2,$3*
1,1,$1+$1,$4,$5*
1,1,$1+$1,$6,$7*
1,1,$1+$1,$8,$9*
0 Add four rect primitives between the rounded corners*
20,1,$1+$1,$2,$3,$4,$5,0*
20,1,$1+$1,$4,$5,$6,$7,0*
20,1,$1+$1,$6,$7,$8,$9,0*
20,1,$1+$1,$8,$9,$2,$3,0*%
%AMFreePoly0*
4,1,121,0.057437,0.323981,0.058316,0.323824,0.113316,0.308824,0.114166,0.308506,0.166166,0.283506,0.166873,0.283092,0.213873,0.250092,0.214579,0.249492,0.254579,0.208492,0.255133,0.207814,0.287133,0.160814,0.287573,0.160023,0.310573,0.108023,0.310851,0.107213,0.324851,0.051213,0.324988,0.050350,0.328988,-0.006650,0.328973,-0.007523,0.322973,-0.064523,0.322801,-0.065397,
0.306801,-0.120397,0.306455,-0.121271,0.280455,-0.172271,0.280021,-0.172972,0.246021,-0.218972,0.245402,-0.219664,0.203402,-0.258664,0.202695,-0.259211,0.155000,-0.289735,0.155000,-1.060082,0.202707,-1.090796,0.203402,-1.091336,0.245402,-1.130336,0.246021,-1.131028,0.280021,-1.177028,0.280455,-1.177729,0.306455,-1.228729,0.306801,-1.229603,0.322801,-1.284603,0.322973,-1.285477,
0.328973,-1.342477,0.328988,-1.343350,0.324988,-1.400350,0.324851,-1.401213,0.310851,-1.457213,0.310573,-1.458023,0.287573,-1.510023,0.287133,-1.510814,0.255133,-1.557814,0.254579,-1.558492,0.214579,-1.599492,0.213873,-1.600092,0.166873,-1.633092,0.166166,-1.633506,0.114166,-1.658506,0.113316,-1.658824,0.058316,-1.673824,0.057437,-1.673981,0.000437,-1.678981,-0.000437,-1.678981,
-0.057437,-1.673981,-0.058316,-1.673824,-0.113316,-1.658824,-0.114166,-1.658506,-0.166166,-1.633506,-0.166873,-1.633092,-0.213873,-1.600092,-0.214579,-1.599492,-0.254579,-1.558492,-0.255133,-1.557814,-0.287133,-1.510814,-0.287573,-1.510023,-0.310573,-1.458023,-0.310851,-1.457213,-0.324851,-1.401213,-0.324988,-1.400350,-0.328988,-1.343350,-0.328973,-1.342477,-0.322973,-1.285477,-0.322801,-1.284603,
-0.306801,-1.229603,-0.306455,-1.228729,-0.280455,-1.177729,-0.280021,-1.177028,-0.246021,-1.131028,-0.245402,-1.130336,-0.203402,-1.091336,-0.202695,-1.090789,-0.155000,-1.060264,-0.155000,-0.289735,-0.202695,-0.259211,-0.203402,-0.258664,-0.245402,-0.219664,-0.246021,-0.218972,-0.280021,-0.172972,-0.280455,-0.172271,-0.306455,-0.121271,-0.306801,-0.120397,-0.322801,-0.065397,-0.322973,-0.064523,
-0.328973,-0.007523,-0.328988,-0.006650,-0.324988,0.050350,-0.324851,0.051213,-0.310851,0.107213,-0.310573,0.108023,-0.287573,0.160023,-0.287133,0.160814,-0.255133,0.207814,-0.254579,0.208492,-0.214579,0.249492,-0.213873,0.250092,-0.166873,0.283092,-0.166166,0.283506,-0.114166,0.308506,-0.113316,0.308824,-0.058316,0.323824,-0.057437,0.323981,-0.000437,0.328981,0.000437,0.328981,
0.057437,0.323981,0.057437,0.323981,$1*%
%AMFreePoly1*
4,1,121,0.057437,0.323981,0.058316,0.323824,0.113316,0.308824,0.114166,0.308506,0.166166,0.283506,0.166873,0.283092,0.213873,0.250092,0.214579,0.249492,0.254579,0.208492,0.255133,0.207814,0.287133,0.160814,0.287573,0.160023,0.310573,0.108023,0.310851,0.107213,0.324851,0.051213,0.324988,0.050350,0.328988,-0.006650,0.328973,-0.007523,0.322973,-0.064523,0.322801,-0.065397,
0.306801,-0.120397,0.306455,-0.121271,0.280455,-0.172271,0.280021,-0.172972,0.246021,-0.218972,0.245402,-0.219664,0.203402,-0.258664,0.202695,-0.259211,0.155000,-0.289735,0.155000,-1.060264,0.202695,-1.090789,0.203402,-1.091336,0.245402,-1.130336,0.246021,-1.131028,0.280021,-1.177028,0.280455,-1.177729,0.306455,-1.228729,0.306801,-1.229603,0.322801,-1.284603,0.322973,-1.285477,
0.328973,-1.342477,0.328988,-1.343350,0.324988,-1.400350,0.324851,-1.401213,0.310851,-1.457213,0.310573,-1.458023,0.287573,-1.510023,0.287133,-1.510814,0.255133,-1.557814,0.254579,-1.558492,0.214579,-1.599492,0.213873,-1.600092,0.166873,-1.633092,0.166166,-1.633506,0.114166,-1.658506,0.113316,-1.658824,0.058316,-1.673824,0.057437,-1.673981,0.000437,-1.678981,-0.000437,-1.678981,
-0.057437,-1.673981,-0.058316,-1.673824,-0.113316,-1.658824,-0.114166,-1.658506,-0.166166,-1.633506,-0.166873,-1.633092,-0.213873,-1.600092,-0.214579,-1.599492,-0.254579,-1.558492,-0.255133,-1.557814,-0.287133,-1.510814,-0.287573,-1.510023,-0.310573,-1.458023,-0.310851,-1.457213,-0.324851,-1.401213,-0.324988,-1.400350,-0.328988,-1.343350,-0.328973,-1.342477,-0.322973,-1.285477,-0.322801,-1.284603,
-0.306801,-1.229603,-0.306455,-1.228729,-0.280455,-1.177729,-0.280021,-1.177028,-0.246021,-1.131028,-0.245402,-1.130336,-0.203402,-1.091336,-0.202695,-1.090789,-0.155000,-1.060264,-0.155000,-0.289735,-0.202695,-0.259211,-0.203402,-0.258664,-0.245402,-0.219664,-0.246021,-0.218972,-0.280021,-0.172972,-0.280455,-0.172271,-0.306455,-0.121271,-0.306801,-0.120397,-0.322801,-0.065397,-0.322973,-0.064523,
-0.328973,-0.007523,-0.328988,-0.006650,-0.324988,0.050350,-0.324851,0.051213,-0.310851,0.107213,-0.310573,0.108023,-0.287573,0.160023,-0.287133,0.160814,-0.255133,0.207814,-0.254579,0.208492,-0.214579,0.249492,-0.213873,0.250092,-0.166873,0.283092,-0.166166,0.283506,-0.114166,0.308506,-0.113316,0.308824,-0.058316,0.323824,-0.057437,0.323981,-0.000437,0.328981,0.000437,0.328981,
0.057437,0.323981,0.057437,0.323981,$1*%
G04 Aperture macros list end*
%TA.AperFunction,ComponentPad*%
%ADD10C,0.800000*%
%TD*%
%TA.AperFunction,ComponentPad*%
%ADD11C,6.400000*%
%TD*%
%TA.AperFunction,ComponentPad*%
%ADD12C,2.000000*%
%TD*%
%TA.AperFunction,ComponentPad*%
%ADD13R,3.000000X5.000000*%
%TD*%
%TA.AperFunction,ComponentPad*%
%ADD14C,2.200000*%
%TD*%
%TA.AperFunction,ComponentPad*%
%ADD15C,4.400000*%
%TD*%
%TA.AperFunction,ComponentPad*%
%ADD16R,1.508000X1.508000*%
%TD*%
%TA.AperFunction,ComponentPad*%
%ADD17C,1.508000*%
%TD*%
%TA.AperFunction,ComponentPad*%
%ADD18C,3.000000*%
%TD*%
%TA.AperFunction,ComponentPad*%
%ADD19FreePoly0,180.000000*%
%TD*%
%TA.AperFunction,ComponentPad*%
%ADD20C,0.648000*%
%TD*%
%TA.AperFunction,ComponentPad*%
%ADD21FreePoly1,180.000000*%
%TD*%
%TA.AperFunction,ComponentPad*%
%ADD22O,1.300000X2.500000*%
%TD*%
%TA.AperFunction,ComponentPad*%
%ADD23O,1.300000X3.200000*%
%TD*%
%TA.AperFunction,SMDPad,CuDef*%
%ADD24RoundRect,0.250000X0.250000X0.475000X-0.250000X0.475000X-0.250000X-0.475000X0.250000X-0.475000X0*%
%TD*%
%TA.AperFunction,SMDPad,CuDef*%
%ADD25RoundRect,0.250000X-0.250000X-0.475000X0.250000X-0.475000X0.250000X0.475000X-0.250000X0.475000X0*%
%TD*%
%TA.AperFunction,SMDPad,CuDef*%
%ADD26RoundRect,0.237500X-0.237500X0.300000X-0.237500X-0.300000X0.237500X-0.300000X0.237500X0.300000X0*%
%TD*%
%TA.AperFunction,SMDPad,CuDef*%
%ADD27RoundRect,0.250000X-0.262500X-0.450000X0.262500X-0.450000X0.262500X0.450000X-0.262500X0.450000X0*%
%TD*%
%TA.AperFunction,SMDPad,CuDef*%
%ADD28RoundRect,0.225000X0.375000X-0.225000X0.375000X0.225000X-0.375000X0.225000X-0.375000X-0.225000X0*%
%TD*%
%TA.AperFunction,SMDPad,CuDef*%
%ADD29RoundRect,0.155000X-0.155000X0.212500X-0.155000X-0.212500X0.155000X-0.212500X0.155000X0.212500X0*%
%TD*%
%TA.AperFunction,SMDPad,CuDef*%
%ADD30R,0.550000X1.500000*%
%TD*%
%TA.AperFunction,SMDPad,CuDef*%
%ADD31R,1.500000X0.550000*%
%TD*%
%TA.AperFunction,SMDPad,CuDef*%
%ADD32RoundRect,0.155000X-0.212500X-0.155000X0.212500X-0.155000X0.212500X0.155000X-0.212500X0.155000X0*%
%TD*%
%TA.AperFunction,SMDPad,CuDef*%
%ADD33R,1.803400X1.092200*%
%TD*%
%TA.AperFunction,SMDPad,CuDef*%
%ADD34RoundRect,0.250000X0.262500X0.450000X-0.262500X0.450000X-0.262500X-0.450000X0.262500X-0.450000X0*%
%TD*%
%TA.AperFunction,SMDPad,CuDef*%
%ADD35RoundRect,0.073750X-0.531250X-0.221250X0.531250X-0.221250X0.531250X0.221250X-0.531250X0.221250X0*%
%TD*%
%TA.AperFunction,SMDPad,CuDef*%
%ADD36RoundRect,0.155000X0.155000X-0.212500X0.155000X0.212500X-0.155000X0.212500X-0.155000X-0.212500X0*%
%TD*%
%TA.AperFunction,SMDPad,CuDef*%
%ADD37RoundRect,0.250000X-0.450000X0.262500X-0.450000X-0.262500X0.450000X-0.262500X0.450000X0.262500X0*%
%TD*%
%TA.AperFunction,SMDPad,CuDef*%
%ADD38RoundRect,0.155000X0.212500X0.155000X-0.212500X0.155000X-0.212500X-0.155000X0.212500X-0.155000X0*%
%TD*%
%TA.AperFunction,SMDPad,CuDef*%
%ADD39R,1.200000X1.400000*%
%TD*%
%TA.AperFunction,ViaPad*%
%ADD40C,0.600000*%
%TD*%
%TA.AperFunction,ViaPad*%
%ADD41C,0.762000*%
%TD*%
%TA.AperFunction,Conductor*%
%ADD42C,0.200000*%
%TD*%
%TA.AperFunction,Conductor*%
%ADD43C,0.381000*%
%TD*%
%TA.AperFunction,Conductor*%
%ADD44C,0.254000*%
%TD*%
G04 APERTURE END LIST*
D10*
%TO.P,H3,1,1*%
%TO.N,GND*%
X30600000Y-140052944D03*
X31302944Y-138355888D03*
X31302944Y-141750000D03*
X33000000Y-137652944D03*
D11*
X33000000Y-140052944D03*
D10*
X33000000Y-142452944D03*
X34697056Y-138355888D03*
X34697056Y-141750000D03*
X35400000Y-140052944D03*
%TD*%
D12*
%TO.P,S17,1,1*%
%TO.N,Net-(R7-Pad2)*%
X100250000Y-37750000D03*
%TO.P,S17,2,2*%
%TO.N,GND*%
X105250000Y-37750000D03*
%TO.P,S17,A,CHANNEL_A*%
%TO.N,Net-(S17-CHANNEL_A)*%
X97750000Y-55250000D03*
%TO.P,S17,B,CHANNEL_B*%
%TO.N,Net-(S17-CHANNEL_B)*%
X102750000Y-55250000D03*
%TO.P,S17,C,COMMON*%
%TO.N,GND*%
X107750000Y-55250000D03*
D13*
%TO.P,S17,S1,SHIELD*%
X95400000Y-44750000D03*
%TO.P,S17,S2,SHIELD*%
X110100000Y-44750000D03*
%TD*%
D10*
%TO.P,H4,1,1*%
%TO.N,GND*%
X112850000Y-140052944D03*
X113552944Y-138355888D03*
X113552944Y-141750000D03*
X115250000Y-137652944D03*
D11*
X115250000Y-140052944D03*
D10*
X115250000Y-142452944D03*
X116947056Y-138355888D03*
X116947056Y-141750000D03*
X117650000Y-140052944D03*
%TD*%
D14*
%TO.P,S3,1,1*%
%TO.N,COL 2*%
X86290000Y-64380000D03*
%TO.P,S3,2,2*%
%TO.N,Net-(D3-A)*%
X79940000Y-66920000D03*
%TD*%
%TO.P,S14,1,1*%
%TO.N,COL 1*%
X67040000Y-122170000D03*
%TO.P,S14,2,2*%
%TO.N,Net-(D14-A)*%
X60690000Y-124710000D03*
%TD*%
%TO.P,S6,1,1*%
%TO.N,COL 1*%
X67040000Y-83630000D03*
%TO.P,S6,2,2*%
%TO.N,Net-(D6-A)*%
X60690000Y-86170000D03*
%TD*%
D15*
%TO.P,H8,1,1*%
%TO.N,GND*%
X93570000Y-117710000D03*
%TD*%
%TO.P,H5,1,1*%
%TO.N,GND*%
X54670000Y-78960000D03*
%TD*%
D14*
%TO.P,S7,1,1*%
%TO.N,COL 2*%
X86290000Y-83630000D03*
%TO.P,S7,2,2*%
%TO.N,Net-(D7-A)*%
X79940000Y-86170000D03*
%TD*%
%TO.P,S4,1,1*%
%TO.N,COL 3*%
X105540000Y-64380000D03*
%TO.P,S4,2,2*%
%TO.N,Net-(D4-A)*%
X99190000Y-66920000D03*
%TD*%
%TO.P,S8,1,1*%
%TO.N,COL 3*%
X105540000Y-83630000D03*
%TO.P,S8,2,2*%
%TO.N,Net-(D8-A)*%
X99190000Y-86170000D03*
%TD*%
D10*
%TO.P,H1,1,1*%
%TO.N,GND*%
X30600000Y-29447056D03*
X31302944Y-27750000D03*
X31302944Y-31144112D03*
X33000000Y-27047056D03*
D11*
X33000000Y-29447056D03*
D10*
X33000000Y-31847056D03*
X34697056Y-27750000D03*
X34697056Y-31144112D03*
X35400000Y-29447056D03*
%TD*%
D15*
%TO.P,H6,1,1*%
%TO.N,GND*%
X54670000Y-117710000D03*
%TD*%
D14*
%TO.P,S5,1,1*%
%TO.N,COL 0*%
X47790000Y-83630000D03*
%TO.P,S5,2,2*%
%TO.N,Net-(D5-A)*%
X41440000Y-86170000D03*
%TD*%
%TO.P,S1,1,1*%
%TO.N,COL 0*%
X47790000Y-64380000D03*
%TO.P,S1,2,2*%
%TO.N,Net-(D1-A)*%
X41440000Y-66920000D03*
%TD*%
%TO.P,S10,1,1*%
%TO.N,COL 1*%
X67040000Y-102880000D03*
%TO.P,S10,2,2*%
%TO.N,Net-(D10-A)*%
X60690000Y-105420000D03*
%TD*%
D15*
%TO.P,H7,1,1*%
%TO.N,GND*%
X93570000Y-78960000D03*
%TD*%
D10*
%TO.P,H2,1,1*%
%TO.N,GND*%
X112850000Y-29447056D03*
X113552944Y-27750000D03*
X113552944Y-31144112D03*
X115250000Y-27047056D03*
D11*
X115250000Y-29447056D03*
D10*
X115250000Y-31847056D03*
X116947056Y-27750000D03*
X116947056Y-31144112D03*
X117650000Y-29447056D03*
%TD*%
D14*
%TO.P,S12,1,1*%
%TO.N,COL 3*%
X105540000Y-102880000D03*
%TO.P,S12,2,2*%
%TO.N,Net-(D12-A)*%
X99190000Y-105420000D03*
%TD*%
D16*
%TO.P,U3,1,GND*%
%TO.N,GND*%
X46190000Y-32500000D03*
D17*
%TO.P,U3,2,VCC_IN*%
%TO.N,5V*%
X48730000Y-32500000D03*
%TO.P,U3,3,SCL*%
%TO.N,SCL*%
X51270000Y-32500000D03*
%TO.P,U3,4,SDA*%
%TO.N,SDA*%
X53810000Y-32500000D03*
D18*
%TO.P,U3,S1*%
%TO.N,GND*%
X39000000Y-33000000D03*
%TO.P,U3,S2*%
X61000000Y-33000000D03*
%TO.P,U3,S3*%
X61000000Y-55000000D03*
%TO.P,U3,S4*%
X39000000Y-55000000D03*
%TD*%
D14*
%TO.P,S2,1,1*%
%TO.N,COL 1*%
X67040000Y-64380000D03*
%TO.P,S2,2,2*%
%TO.N,Net-(D2-A)*%
X60690000Y-66920000D03*
%TD*%
%TO.P,S9,1,1*%
%TO.N,COL 0*%
X47790000Y-102880000D03*
%TO.P,S9,2,2*%
%TO.N,Net-(D9-A)*%
X41440000Y-105420000D03*
%TD*%
D19*
%TO.P,J2,A1,GND1*%
%TO.N,GND*%
X72571000Y-31272000D03*
%TO.P,J2,A4,VBUS1*%
%TO.N,VBUS+*%
X71721000Y-31272000D03*
D20*
%TO.P,J2,A5,CC1*%
%TO.N,Net-(J2-CC1)*%
X70871000Y-31272000D03*
%TO.P,J2,A6,DA+*%
%TO.N,USB_D+*%
X70021000Y-31272000D03*
%TO.P,J2,A7,DA-*%
%TO.N,USB_D-*%
X69171000Y-31272000D03*
%TO.P,J2,A8,SBU1*%
%TO.N,unconnected-(J2-SBU1-PadA8)*%
X68321000Y-31272000D03*
D21*
%TO.P,J2,A9,VBUS2*%
%TO.N,VBUS+*%
X67471000Y-31272000D03*
D19*
%TO.P,J2,A12,GND2*%
%TO.N,GND*%
X66621000Y-31272000D03*
D20*
%TO.P,J2,B1,GND3*%
X66621000Y-29922000D03*
%TO.P,J2,B4,VBUS3*%
%TO.N,VBUS+*%
X67471000Y-29922000D03*
%TO.P,J2,B5,CC2*%
%TO.N,Net-(J2-CC2)*%
X68321000Y-29922000D03*
%TO.P,J2,B6,DB+*%
%TO.N,USB_D+*%
X69171000Y-29922000D03*
%TO.P,J2,B7,DB-*%
%TO.N,USB_D-*%
X70021000Y-29922000D03*
%TO.P,J2,B8,SBU2*%
%TO.N,unconnected-(J2-SBU2-PadB8)*%
X70871000Y-29922000D03*
%TO.P,J2,B9,VBUS4*%
%TO.N,VBUS+*%
X71721000Y-29922000D03*
%TO.P,J2,B12,GND4*%
%TO.N,GND*%
X72571000Y-29922000D03*
D22*
%TO.P,J2,SH1,SHIELD1*%
X73916000Y-26622000D03*
%TO.P,J2,SH2,SHIELD2*%
X65276000Y-26622000D03*
D23*
%TO.P,J2,SH3,SHIELD3*%
X73916000Y-30772000D03*
%TO.P,J2,SH4,SHIELD4*%
X65276000Y-30772000D03*
%TD*%
D14*
%TO.P,S15,1,1*%
%TO.N,COL 2*%
X86290000Y-122170000D03*
%TO.P,S15,2,2*%
%TO.N,Net-(D15-A)*%
X79940000Y-124710000D03*
%TD*%
D12*
%TO.P,S18,1,1*%
%TO.N,Net-(R10-Pad2)*%
X77000000Y-37750000D03*
%TO.P,S18,2,2*%
%TO.N,GND*%
X82000000Y-37750000D03*
%TO.P,S18,A,CHANNEL_A*%
%TO.N,Net-(S18-CHANNEL_A)*%
X74500000Y-55250000D03*
%TO.P,S18,B,CHANNEL_B*%
%TO.N,Net-(S18-CHANNEL_B)*%
X79500000Y-55250000D03*
%TO.P,S18,C,COMMON*%
%TO.N,GND*%
X84500000Y-55250000D03*
D13*
%TO.P,S18,S1,SHIELD*%
X72150000Y-44750000D03*
%TO.P,S18,S2,SHIELD*%
X86850000Y-44750000D03*
%TD*%
D14*
%TO.P,S16,1,1*%
%TO.N,COL 3*%
X105540000Y-122170000D03*
%TO.P,S16,2,2*%
%TO.N,Net-(D16-A)*%
X99190000Y-124710000D03*
%TD*%
%TO.P,S13,1,1*%
%TO.N,COL 0*%
X47790000Y-122170000D03*
%TO.P,S13,2,2*%
%TO.N,Net-(D13-A)*%
X41440000Y-124710000D03*
%TD*%
%TO.P,S11,1,1*%
%TO.N,COL 2*%
X86290000Y-102880000D03*
%TO.P,S11,2,2*%
%TO.N,Net-(D11-A)*%
X79940000Y-105420000D03*
%TD*%
D24*
%TO.P,C6,1*%
%TO.N,GND*%
X63942000Y-47625000D03*
%TO.P,C6,2*%
%TO.N,Net-(U1-XTAL1)*%
X62042000Y-47625000D03*
%TD*%
D25*
%TO.P,C7,1*%
%TO.N,GND*%
X62042000Y-40894000D03*
%TO.P,C7,2*%
%TO.N,Net-(U1-XTAL2)*%
X63942000Y-40894000D03*
%TD*%
D26*
%TO.P,C5,1*%
%TO.N,5V*%
X58420000Y-40312000D03*
%TO.P,C5,2*%
%TO.N,GND*%
X58420000Y-42037000D03*
%TD*%
D27*
%TO.P,R10,1*%
%TO.N,SW1*%
X71985500Y-37719000D03*
%TO.P,R10,2*%
%TO.N,Net-(R10-Pad2)*%
X73810500Y-37719000D03*
%TD*%
D28*
%TO.P,D9,1,K*%
%TO.N,ROW 2*%
X54750000Y-109500000D03*
%TO.P,D9,2,A*%
%TO.N,Net-(D9-A)*%
X54750000Y-106200000D03*
%TD*%
D25*
%TO.P,C11,1*%
%TO.N,ROTB1*%
X77712500Y-49962500D03*
%TO.P,C11,2*%
%TO.N,GND*%
X79612500Y-49962500D03*
%TD*%
D28*
%TO.P,D7,1,K*%
%TO.N,ROW 1*%
X93500000Y-89650000D03*
%TO.P,D7,2,A*%
%TO.N,Net-(D7-A)*%
X93500000Y-86350000D03*
%TD*%
D29*
%TO.P,C3,1*%
%TO.N,5V*%
X41529000Y-39818500D03*
%TO.P,C3,2*%
%TO.N,GND*%
X41529000Y-40953500D03*
%TD*%
D27*
%TO.P,R8,1*%
%TO.N,ROTA1*%
X72587500Y-52250000D03*
%TO.P,R8,2*%
%TO.N,Net-(S18-CHANNEL_A)*%
X74412500Y-52250000D03*
%TD*%
%TO.P,R7,1*%
%TO.N,SW0*%
X98337500Y-40500000D03*
%TO.P,R7,2*%
%TO.N,Net-(R7-Pad2)*%
X100162500Y-40500000D03*
%TD*%
D28*
%TO.P,D1,1,K*%
%TO.N,ROW 0*%
X54750000Y-70150000D03*
%TO.P,D1,2,A*%
%TO.N,Net-(D1-A)*%
X54750000Y-66850000D03*
%TD*%
D30*
%TO.P,U1,1,PE6*%
%TO.N,unconnected-(U1-PE6-Pad1)*%
X45750000Y-38550000D03*
%TO.P,U1,2,UVCC*%
%TO.N,5V*%
X46550000Y-38550000D03*
%TO.P,U1,3,D-*%
%TO.N,MPU_USB_D-*%
X47350000Y-38550000D03*
%TO.P,U1,4,D+*%
%TO.N,MPU_USB_D+*%
X48150000Y-38550000D03*
%TO.P,U1,5,UGND*%
%TO.N,GND*%
X48950000Y-38550000D03*
%TO.P,U1,6,UCAP*%
%TO.N,Net-(U1-UCAP)*%
X49750000Y-38550000D03*
%TO.P,U1,7,VBUS*%
%TO.N,5V*%
X50550000Y-38550000D03*
%TO.P,U1,8,PB0*%
%TO.N,SCL*%
X51350000Y-38550000D03*
%TO.P,U1,9,PB1*%
%TO.N,SDA*%
X52150000Y-38550000D03*
%TO.P,U1,10,PB2*%
%TO.N,unconnected-(U1-PB2-Pad10)*%
X52950000Y-38550000D03*
%TO.P,U1,11,PB3*%
%TO.N,SW1*%
X53750000Y-38550000D03*
D31*
%TO.P,U1,12,PB7*%
%TO.N,SW0*%
X55450000Y-40250000D03*
%TO.P,U1,13,~{RESET}*%
%TO.N,Net-(U1-~{RESET})*%
X55450000Y-41050000D03*
%TO.P,U1,14,VCC*%
%TO.N,5V*%
X55450000Y-41850000D03*
%TO.P,U1,15,GND*%
%TO.N,GND*%
X55450000Y-42650000D03*
%TO.P,U1,16,XTAL2*%
%TO.N,Net-(U1-XTAL2)*%
X55450000Y-43450000D03*
%TO.P,U1,17,XTAL1*%
%TO.N,Net-(U1-XTAL1)*%
X55450000Y-44250000D03*
%TO.P,U1,18,PD0*%
%TO.N,ROTA0*%
X55450000Y-45050000D03*
%TO.P,U1,19,PD1*%
%TO.N,ROTA1*%
X55450000Y-45850000D03*
%TO.P,U1,20,PD2*%
%TO.N,ROTB0*%
X55450000Y-46650000D03*
%TO.P,U1,21,PD3*%
%TO.N,ROTB1*%
X55450000Y-47450000D03*
%TO.P,U1,22,PD5*%
%TO.N,unconnected-(U1-PD5-Pad22)*%
X55450000Y-48250000D03*
D30*
%TO.P,U1,23,GND*%
%TO.N,GND*%
X53750000Y-49950000D03*
%TO.P,U1,24,AVCC*%
%TO.N,5V*%
X52950000Y-49950000D03*
%TO.P,U1,25,PD4*%
%TO.N,unconnected-(U1-PD4-Pad25)*%
X52150000Y-49950000D03*
%TO.P,U1,26,PD6*%
%TO.N,COL 3*%
X51350000Y-49950000D03*
%TO.P,U1,27,PD7*%
%TO.N,COL 2*%
X50550000Y-49950000D03*
%TO.P,U1,28,PB4*%
%TO.N,ROW 2*%
X49750000Y-49950000D03*
%TO.P,U1,29,PB5*%
%TO.N,COL 1*%
X48950000Y-49950000D03*
%TO.P,U1,30,PB6*%
%TO.N,ROW 1*%
X48150000Y-49950000D03*
%TO.P,U1,31,PC6*%
%TO.N,ROW 0*%
X47350000Y-49950000D03*
%TO.P,U1,32,PC7*%
%TO.N,COL 0*%
X46550000Y-49950000D03*
%TO.P,U1,33,~{HWB}/PE2*%
%TO.N,Net-(U1-~{HWB}{slash}PE2)*%
X45750000Y-49950000D03*
D31*
%TO.P,U1,34,VCC*%
%TO.N,5V*%
X44050000Y-48250000D03*
%TO.P,U1,35,GND*%
%TO.N,GND*%
X44050000Y-47450000D03*
%TO.P,U1,36,PF7*%
%TO.N,unconnected-(U1-PF7-Pad36)*%
X44050000Y-46650000D03*
%TO.P,U1,37,PF6*%
%TO.N,unconnected-(U1-PF6-Pad37)*%
X44050000Y-45850000D03*
%TO.P,U1,38,PF5*%
%TO.N,unconnected-(U1-PF5-Pad38)*%
X44050000Y-45050000D03*
%TO.P,U1,39,PF4*%
%TO.N,unconnected-(U1-PF4-Pad39)*%
X44050000Y-44250000D03*
%TO.P,U1,40,PF1*%
%TO.N,unconnected-(U1-PF1-Pad40)*%
X44050000Y-43450000D03*
%TO.P,U1,41,PF0*%
%TO.N,ROW 3*%
X44050000Y-42650000D03*
%TO.P,U1,42,AREF*%
%TO.N,unconnected-(U1-AREF-Pad42)*%
X44050000Y-41850000D03*
%TO.P,U1,43,GND*%
%TO.N,GND*%
X44050000Y-41050000D03*
%TO.P,U1,44,AVCC*%
%TO.N,5V*%
X44050000Y-40250000D03*
%TD*%
D28*
%TO.P,D13,1,K*%
%TO.N,ROW 3*%
X55000000Y-128900000D03*
%TO.P,D13,2,A*%
%TO.N,Net-(D13-A)*%
X55000000Y-125600000D03*
%TD*%
%TO.P,D8,1,K*%
%TO.N,ROW 1*%
X112500000Y-89650000D03*
%TO.P,D8,2,A*%
%TO.N,Net-(D8-A)*%
X112500000Y-86350000D03*
%TD*%
D27*
%TO.P,R9,1*%
%TO.N,ROTB1*%
X77750000Y-52462500D03*
%TO.P,R9,2*%
%TO.N,Net-(S18-CHANNEL_B)*%
X79575000Y-52462500D03*
%TD*%
D28*
%TO.P,D15,1,K*%
%TO.N,ROW 3*%
X93500000Y-128900000D03*
%TO.P,D15,2,A*%
%TO.N,Net-(D15-A)*%
X93500000Y-125600000D03*
%TD*%
%TO.P,D2,1,K*%
%TO.N,ROW 0*%
X74250000Y-70150000D03*
%TO.P,D2,2,A*%
%TO.N,Net-(D2-A)*%
X74250000Y-66850000D03*
%TD*%
%TO.P,D16,1,K*%
%TO.N,ROW 3*%
X112500000Y-128900000D03*
%TO.P,D16,2,A*%
%TO.N,Net-(D16-A)*%
X112500000Y-125600000D03*
%TD*%
D32*
%TO.P,C4,1*%
%TO.N,5V*%
X53407500Y-52070000D03*
%TO.P,C4,2*%
%TO.N,GND*%
X54542500Y-52070000D03*
%TD*%
D28*
%TO.P,D4,1,K*%
%TO.N,ROW 0*%
X112500000Y-70150000D03*
%TO.P,D4,2,A*%
%TO.N,Net-(D4-A)*%
X112500000Y-66850000D03*
%TD*%
D33*
%TO.P,SW1,1,1*%
%TO.N,unconnected-(SW1-Pad1)*%
X37770999Y-47128151D03*
%TO.P,SW1,2,2*%
%TO.N,unconnected-(SW1-Pad2)*%
X31571001Y-47128151D03*
%TO.P,SW1,3,3*%
%TO.N,Net-(U1-~{RESET})*%
X37770999Y-50828149D03*
%TO.P,SW1,4,4*%
%TO.N,GND*%
X31571001Y-50828149D03*
%TD*%
D25*
%TO.P,C10,1*%
%TO.N,ROTA1*%
X72550000Y-49500000D03*
%TO.P,C10,2*%
%TO.N,GND*%
X74450000Y-49500000D03*
%TD*%
D28*
%TO.P,D3,1,K*%
%TO.N,ROW 0*%
X93500000Y-70150000D03*
%TO.P,D3,2,A*%
%TO.N,Net-(D3-A)*%
X93500000Y-66850000D03*
%TD*%
D34*
%TO.P,R12,1*%
%TO.N,Net-(J2-CC2)*%
X62634500Y-28321000D03*
%TO.P,R12,2*%
%TO.N,GND*%
X60809500Y-28321000D03*
%TD*%
D27*
%TO.P,R5,1*%
%TO.N,ROTA0*%
X94750000Y-51522000D03*
%TO.P,R5,2*%
%TO.N,Net-(S17-CHANNEL_A)*%
X96575000Y-51522000D03*
%TD*%
D35*
%TO.P,U2,1*%
%TO.N,MPU_USB_D+*%
X62428000Y-37653000D03*
%TO.P,U2,2*%
%TO.N,GND*%
X62428000Y-36703000D03*
%TO.P,U2,3*%
%TO.N,MPU_USB_D-*%
X62428000Y-35753000D03*
%TO.P,U2,4*%
%TO.N,USB_D-*%
X64938000Y-35753000D03*
%TO.P,U2,5*%
%TO.N,VBUS+*%
X64938000Y-36703000D03*
%TO.P,U2,6*%
%TO.N,USB_D+*%
X64938000Y-37653000D03*
%TD*%
D36*
%TO.P,C2,1*%
%TO.N,5V*%
X41402000Y-48446500D03*
%TO.P,C2,2*%
%TO.N,GND*%
X41402000Y-47311500D03*
%TD*%
D28*
%TO.P,D12,1,K*%
%TO.N,ROW 2*%
X112500000Y-109500000D03*
%TO.P,D12,2,A*%
%TO.N,Net-(D12-A)*%
X112500000Y-106200000D03*
%TD*%
%TO.P,D5,1,K*%
%TO.N,ROW 1*%
X54750000Y-89650000D03*
%TO.P,D5,2,A*%
%TO.N,Net-(D5-A)*%
X54750000Y-86350000D03*
%TD*%
%TO.P,D14,1,K*%
%TO.N,ROW 3*%
X74250000Y-128900000D03*
%TO.P,D14,2,A*%
%TO.N,Net-(D14-A)*%
X74250000Y-125600000D03*
%TD*%
D37*
%TO.P,R4,1*%
%TO.N,5V*%
X41656000Y-50903500D03*
%TO.P,R4,2*%
%TO.N,Net-(U1-~{RESET})*%
X41656000Y-52728500D03*
%TD*%
%TO.P,R1,1*%
%TO.N,Net-(U1-~{HWB}{slash}PE2)*%
X44958000Y-52808500D03*
%TO.P,R1,2*%
%TO.N,GND*%
X44958000Y-54633500D03*
%TD*%
D28*
%TO.P,D10,1,K*%
%TO.N,ROW 2*%
X74000000Y-109500000D03*
%TO.P,D10,2,A*%
%TO.N,Net-(D10-A)*%
X74000000Y-106200000D03*
%TD*%
D38*
%TO.P,C1,1*%
%TO.N,Net-(U1-UCAP)*%
X49149000Y-35052000D03*
%TO.P,C1,2*%
%TO.N,GND*%
X48014000Y-35052000D03*
%TD*%
D28*
%TO.P,D6,1,K*%
%TO.N,ROW 1*%
X74000000Y-89650000D03*
%TO.P,D6,2,A*%
%TO.N,Net-(D6-A)*%
X74000000Y-86350000D03*
%TD*%
%TO.P,D11,1,K*%
%TO.N,ROW 2*%
X93250000Y-109500000D03*
%TO.P,D11,2,A*%
%TO.N,Net-(D11-A)*%
X93250000Y-106200000D03*
%TD*%
D27*
%TO.P,R6,1*%
%TO.N,ROTB0*%
X101087500Y-52250000D03*
%TO.P,R6,2*%
%TO.N,Net-(S17-CHANNEL_B)*%
X102912500Y-52250000D03*
%TD*%
D34*
%TO.P,R11,1*%
%TO.N,GND*%
X76758500Y-34122000D03*
%TO.P,R11,2*%
%TO.N,Net-(J2-CC1)*%
X74933500Y-34122000D03*
%TD*%
D39*
%TO.P,Y1,1,1*%
%TO.N,Net-(U1-XTAL1)*%
X62142000Y-45423000D03*
%TO.P,Y1,2,2*%
%TO.N,GND*%
X62142000Y-43223000D03*
%TO.P,Y1,3,3*%
%TO.N,Net-(U1-XTAL2)*%
X63842000Y-43223000D03*
%TO.P,Y1,4,4*%
%TO.N,GND*%
X63842000Y-45423000D03*
%TD*%
D25*
%TO.P,C8,1*%
%TO.N,ROTA0*%
X94800000Y-49022000D03*
%TO.P,C8,2*%
%TO.N,GND*%
X96700000Y-49022000D03*
%TD*%
%TO.P,C9,1*%
%TO.N,ROTB0*%
X101050000Y-49750000D03*
%TO.P,C9,2*%
%TO.N,GND*%
X102950000Y-49750000D03*
%TD*%
D40*
%TO.N,Net-(U1-UCAP)*%
X50232500Y-35052000D03*
X49784000Y-40132000D03*
%TO.N,GND*%
X60452000Y-43180000D03*
X41402000Y-46228000D03*
X55753000Y-52070000D03*
X60889000Y-36703000D03*
X75692000Y-49410000D03*
X60833000Y-26797000D03*
X41529000Y-42037000D03*
X59563000Y-42063500D03*
X98044000Y-48641000D03*
X43180000Y-54610000D03*
X46852500Y-35052000D03*
X31496000Y-52832000D03*
X81153000Y-49276000D03*
X78232000Y-34163000D03*
X65278000Y-45466000D03*
X104500000Y-49750000D03*
X48387000Y-40640000D03*
%TO.N,Net-(U1-~{RESET})*%
X53467000Y-41148000D03*
X43180000Y-51435000D03*
%TO.N,ROW 0*%
X47498000Y-57531000D03*
X52832000Y-70104000D03*
%TO.N,ROW 1*%
X57883000Y-91694000D03*
X48260000Y-56134000D03*
%TO.N,ROW 2*%
X49784000Y-54483000D03*
X76000000Y-111250000D03*
%TO.N,5V*%
X46500000Y-40250000D03*
X53467000Y-53086000D03*
X41402000Y-49530000D03*
X59563000Y-40285500D03*
X50546000Y-41402000D03*
X41529000Y-38608000D03*
%TO.N,SCL*%
X51308000Y-34163000D03*
X51350000Y-40132000D03*
%TO.N,SDA*%
X52150000Y-40132000D03*
X53848000Y-34163000D03*
%TO.N,SW0*%
X57023000Y-40259000D03*
X97155000Y-39370000D03*
%TO.N,ROTA0*%
X59944000Y-45085000D03*
X93345000Y-49022000D03*
%TO.N,ROTB0*%
X58102500Y-46672500D03*
X99000000Y-50000000D03*
%TO.N,ROTA1*%
X59055000Y-45847000D03*
X71247000Y-49410000D03*
%TO.N,ROTB1*%
X57150000Y-47450000D03*
X76200000Y-50927000D03*
%TO.N,SW1*%
X70358000Y-38550000D03*
X55118000Y-38608000D03*
D41*
%TO.N,VBUS+*%
X66477000Y-36703000D03*
D40*
%TO.N,ROW 3*%
X40027000Y-42650000D03*
X54991000Y-130556000D03*
%TD*%
D42*
%TO.N,Net-(U1-UCAP)*%
X49784000Y-38584000D02*
X49750000Y-38550000D01*
X49784000Y-40132000D02*
X49784000Y-38584000D01*
X50232500Y-35052000D02*
X49149000Y-35052000D01*
D43*
%TO.N,GND*%
X73066000Y-29922000D02*
X73916000Y-30772000D01*
X97935000Y-48750000D02*
X96700000Y-48750000D01*
X48387000Y-40640000D02*
X48950000Y-40077000D01*
X60809500Y-28321000D02*
X60809500Y-26820500D01*
X74540000Y-49410000D02*
X74450000Y-49500000D01*
X66126000Y-29922000D02*
X65276000Y-30772000D01*
X63842000Y-45423000D02*
X63842000Y-47525000D01*
X72571000Y-31272000D02*
X73416000Y-31272000D01*
X76758500Y-34122000D02*
X76758500Y-31292500D01*
X63842000Y-45423000D02*
X65235000Y-45423000D01*
X96700000Y-46050000D02*
X95400000Y-44750000D01*
X63842000Y-47525000D02*
X63942000Y-47625000D01*
X72571000Y-29922000D02*
X73066000Y-29922000D01*
X62142000Y-43223000D02*
X60495000Y-43223000D01*
X57807000Y-42650000D02*
X58420000Y-42037000D01*
X96700000Y-48750000D02*
X96700000Y-46050000D01*
X65235000Y-45423000D02*
X65278000Y-45466000D01*
X80299000Y-49276000D02*
X79612500Y-49962500D01*
X31571001Y-50828149D02*
X31571001Y-52756999D01*
X66621000Y-31272000D02*
X65776000Y-31272000D01*
X44958000Y-54633500D02*
X43203500Y-54633500D01*
X60809500Y-26820500D02*
X60833000Y-26797000D01*
X73416000Y-31272000D02*
X73916000Y-30772000D01*
X41625500Y-41050000D02*
X41529000Y-40953500D01*
X58420000Y-42037000D02*
X59536500Y-42037000D01*
X81153000Y-49276000D02*
X80299000Y-49276000D01*
X31571001Y-52756999D02*
X31496000Y-52832000D01*
X65776000Y-31272000D02*
X65276000Y-30772000D01*
X41529000Y-40953500D02*
X41529000Y-42037000D01*
X55450000Y-42650000D02*
X57807000Y-42650000D01*
X53750000Y-49950000D02*
X53750000Y-51277500D01*
X78191000Y-34122000D02*
X78232000Y-34163000D01*
X76758500Y-31292500D02*
X76238000Y-30772000D01*
X41540500Y-47450000D02*
X41402000Y-47311500D01*
X53750000Y-51277500D02*
X54542500Y-52070000D01*
X98044000Y-48641000D02*
X97935000Y-48750000D01*
X62142000Y-40994000D02*
X62042000Y-40894000D01*
X55753000Y-52070000D02*
X54542500Y-52070000D01*
X66621000Y-29922000D02*
X66126000Y-29922000D01*
X59536500Y-42037000D02*
X59563000Y-42063500D01*
X76238000Y-30772000D02*
X73916000Y-30772000D01*
X44050000Y-41050000D02*
X41625500Y-41050000D01*
X48950000Y-40077000D02*
X48950000Y-38550000D01*
X48014000Y-35052000D02*
X46852500Y-35052000D01*
X60889000Y-36703000D02*
X62428000Y-36703000D01*
X46567500Y-32877500D02*
X46190000Y-32500000D01*
X60495000Y-43223000D02*
X60452000Y-43180000D01*
X75692000Y-49410000D02*
X74540000Y-49410000D01*
X44050000Y-47450000D02*
X41540500Y-47450000D01*
X41402000Y-47311500D02*
X41402000Y-46228000D01*
X62142000Y-43223000D02*
X62142000Y-40994000D01*
X76758500Y-34122000D02*
X78191000Y-34122000D01*
X102950000Y-49750000D02*
X104500000Y-49750000D01*
D42*
%TO.N,Net-(U1-XTAL2)*%
X60579000Y-40259000D02*
X61341000Y-39497000D01*
X61341000Y-39497000D02*
X63373000Y-39497000D01*
X63942000Y-40066000D02*
X63942000Y-40894000D01*
X59039000Y-43450000D02*
X60579000Y-41910000D01*
X60579000Y-41910000D02*
X60579000Y-40259000D01*
X63942000Y-43123000D02*
X63842000Y-43223000D01*
X63373000Y-39497000D02*
X63942000Y-40066000D01*
X55450000Y-43450000D02*
X59039000Y-43450000D01*
X63942000Y-40894000D02*
X63942000Y-43123000D01*
%TO.N,Net-(U1-~{HWB}{slash}PE2)*%
X45750000Y-49950000D02*
X45750000Y-52016500D01*
X45750000Y-52016500D02*
X44958000Y-52808500D01*
%TO.N,Net-(U1-~{RESET})*%
X43180000Y-51435000D02*
X43180000Y-52197000D01*
X42648500Y-52728500D02*
X41656000Y-52728500D01*
X40536500Y-52728500D02*
X38636149Y-50828149D01*
X43180000Y-52197000D02*
X42648500Y-52728500D01*
X41656000Y-52728500D02*
X40536500Y-52728500D01*
X38636149Y-50828149D02*
X37770999Y-50828149D01*
X53467000Y-41148000D02*
X53565000Y-41050000D01*
X53565000Y-41050000D02*
X55450000Y-41050000D01*
%TO.N,ROW 0*%
X75911000Y-71811000D02*
X91839000Y-71811000D01*
X74250000Y-70150000D02*
X75911000Y-71811000D01*
X54750000Y-70150000D02*
X52878000Y-70150000D01*
X93500000Y-70150000D02*
X95350000Y-72000000D01*
X47350000Y-57383000D02*
X47498000Y-57531000D01*
X52878000Y-70150000D02*
X52832000Y-70104000D01*
X47350000Y-49950000D02*
X47350000Y-57383000D01*
X95350000Y-72000000D02*
X110650000Y-72000000D01*
X54750000Y-70150000D02*
X56411000Y-71811000D01*
X56411000Y-71811000D02*
X72589000Y-71811000D01*
X91839000Y-71811000D02*
X93500000Y-70150000D01*
X72589000Y-71811000D02*
X74250000Y-70150000D01*
X110650000Y-72000000D02*
X112500000Y-70150000D01*
%TO.N,Net-(D1-A)*%
X54750000Y-66850000D02*
X41510000Y-66850000D01*
X41510000Y-66850000D02*
X41440000Y-66920000D01*
%TO.N,Net-(D2-A)*%
X74250000Y-66850000D02*
X60760000Y-66850000D01*
X60760000Y-66850000D02*
X60690000Y-66920000D01*
%TO.N,Net-(D3-A)*%
X80010000Y-66850000D02*
X79940000Y-66920000D01*
X93500000Y-66850000D02*
X80010000Y-66850000D01*
%TO.N,Net-(D4-A)*%
X99260000Y-66850000D02*
X99190000Y-66920000D01*
X112500000Y-66850000D02*
X99260000Y-66850000D01*
%TO.N,ROW 1*%
X95290000Y-91440000D02*
X93500000Y-89650000D01*
X110710000Y-91440000D02*
X95290000Y-91440000D01*
X71956000Y-91694000D02*
X74000000Y-89650000D01*
X112500000Y-89650000D02*
X110710000Y-91440000D01*
X57883000Y-91694000D02*
X56794000Y-91694000D01*
X57883000Y-91694000D02*
X71956000Y-91694000D01*
X48260000Y-56134000D02*
X48150000Y-56024000D01*
X91456000Y-91694000D02*
X76044000Y-91694000D01*
X56794000Y-91694000D02*
X54750000Y-89650000D01*
X76044000Y-91694000D02*
X74000000Y-89650000D01*
X48150000Y-56024000D02*
X48150000Y-49950000D01*
X93500000Y-89650000D02*
X91456000Y-91694000D01*
%TO.N,Net-(D5-A)*%
X41620000Y-86350000D02*
X41440000Y-86170000D01*
X54750000Y-86350000D02*
X41620000Y-86350000D01*
%TO.N,Net-(D6-A)*%
X74000000Y-86350000D02*
X60870000Y-86350000D01*
X60870000Y-86350000D02*
X60690000Y-86170000D01*
%TO.N,Net-(D7-A)*%
X93500000Y-86350000D02*
X80120000Y-86350000D01*
X80120000Y-86350000D02*
X79940000Y-86170000D01*
%TO.N,Net-(D8-A)*%
X99370000Y-86350000D02*
X99190000Y-86170000D01*
X112500000Y-86350000D02*
X99370000Y-86350000D01*
%TO.N,Net-(D9-A)*%
X53970000Y-105420000D02*
X41440000Y-105420000D01*
X54750000Y-106200000D02*
X53970000Y-105420000D01*
%TO.N,ROW 2*%
X75750000Y-111250000D02*
X91500000Y-111250000D01*
X93250000Y-109500000D02*
X95250000Y-111500000D01*
X110500000Y-111500000D02*
X112500000Y-109500000D01*
X72756000Y-110744000D02*
X74000000Y-109500000D01*
X74000000Y-109500000D02*
X75750000Y-111250000D01*
X49784000Y-54483000D02*
X49750000Y-54449000D01*
X95250000Y-111500000D02*
X110500000Y-111500000D01*
X55994000Y-110744000D02*
X72756000Y-110744000D01*
X54750000Y-109500000D02*
X55994000Y-110744000D01*
X49750000Y-54449000D02*
X49750000Y-49950000D01*
X91500000Y-111250000D02*
X93250000Y-109500000D01*
%TO.N,Net-(D10-A)*%
X74000000Y-106200000D02*
X73220000Y-105420000D01*
X73220000Y-105420000D02*
X60690000Y-105420000D01*
%TO.N,Net-(D11-A)*%
X92470000Y-105420000D02*
X79940000Y-105420000D01*
X93250000Y-106200000D02*
X92470000Y-105420000D01*
%TO.N,Net-(D12-A)*%
X111720000Y-105420000D02*
X99190000Y-105420000D01*
X112500000Y-106200000D02*
X111720000Y-105420000D01*
D43*
%TO.N,5V*%
X50550000Y-38550000D02*
X50550000Y-41398000D01*
X41402000Y-48446500D02*
X41402000Y-49530000D01*
X52950000Y-49950000D02*
X52950000Y-51612500D01*
X53407500Y-53026500D02*
X53467000Y-53086000D01*
X42545000Y-40250000D02*
X42113500Y-39818500D01*
X52950000Y-51612500D02*
X53407500Y-52070000D01*
X59536500Y-40312000D02*
X59563000Y-40285500D01*
X42113500Y-39818500D02*
X41529000Y-39818500D01*
X50550000Y-41398000D02*
X50546000Y-41402000D01*
X41402000Y-48446500D02*
X43853500Y-48446500D01*
X46500000Y-40250000D02*
X46550000Y-40200000D01*
X56882000Y-41850000D02*
X58420000Y-40312000D01*
X55450000Y-41850000D02*
X56882000Y-41850000D01*
X41529000Y-39818500D02*
X41529000Y-38608000D01*
X46550000Y-40200000D02*
X46550000Y-38550000D01*
X43853500Y-48446500D02*
X44050000Y-48250000D01*
X41402000Y-50649500D02*
X41402000Y-49530000D01*
X58420000Y-40312000D02*
X59536500Y-40312000D01*
X41656000Y-50903500D02*
X41402000Y-50649500D01*
X44050000Y-40250000D02*
X42545000Y-40250000D01*
X53407500Y-52070000D02*
X53407500Y-53026500D01*
D42*
%TO.N,SCL*%
X51270000Y-34125000D02*
X51308000Y-34163000D01*
X51270000Y-32500000D02*
X51270000Y-34125000D01*
X51350000Y-40132000D02*
X51350000Y-38550000D01*
%TO.N,SDA*%
X53810000Y-34125000D02*
X53848000Y-34163000D01*
X53810000Y-32500000D02*
X53810000Y-34125000D01*
X52150000Y-40132000D02*
X52150000Y-38550000D01*
%TO.N,COL 0*%
X46550000Y-62510000D02*
X47500000Y-63460000D01*
X46550000Y-49950000D02*
X46550000Y-62510000D01*
%TO.N,COL 1*%
X57903000Y-64380000D02*
X48950000Y-55427000D01*
X67040000Y-64380000D02*
X57903000Y-64380000D01*
X48950000Y-55427000D02*
X48950000Y-49950000D01*
%TO.N,COL 2*%
X50550000Y-53725000D02*
X50550000Y-49950000D01*
X58166000Y-61341000D02*
X50550000Y-53725000D01*
X83251000Y-61341000D02*
X58166000Y-61341000D01*
X86290000Y-64380000D02*
X83251000Y-61341000D01*
%TO.N,COL 3*%
X51350000Y-53001000D02*
X51350000Y-49950000D01*
X105540000Y-64380000D02*
X100469000Y-59309000D01*
X100469000Y-59309000D02*
X57658000Y-59309000D01*
X57658000Y-59309000D02*
X51350000Y-53001000D01*
%TO.N,Net-(R7-Pad2)*%
X100250000Y-40412500D02*
X100162500Y-40500000D01*
X100250000Y-37750000D02*
X100250000Y-40412500D01*
%TO.N,SW0*%
X98285000Y-40500000D02*
X98337500Y-40500000D01*
X97155000Y-39370000D02*
X98285000Y-40500000D01*
X57014000Y-40250000D02*
X55450000Y-40250000D01*
X57023000Y-40259000D02*
X57014000Y-40250000D01*
%TO.N,Net-(R10-Pad2)*%
X77000000Y-37750000D02*
X73841500Y-37750000D01*
X73841500Y-37750000D02*
X73810500Y-37719000D01*
%TO.N,Net-(U1-XTAL1)*%
X62142000Y-45423000D02*
X60969000Y-44250000D01*
X60969000Y-44250000D02*
X55450000Y-44250000D01*
X62042000Y-47625000D02*
X62042000Y-45523000D01*
X62042000Y-45523000D02*
X62142000Y-45423000D01*
%TO.N,ROTA0*%
X59944000Y-45085000D02*
X59909000Y-45050000D01*
X59909000Y-45050000D02*
X55450000Y-45050000D01*
X94750000Y-48800000D02*
X94800000Y-48750000D01*
X94750000Y-51522000D02*
X94750000Y-49072000D01*
X93345000Y-49022000D02*
X94800000Y-49022000D01*
%TO.N,ROTB0*%
X101087500Y-49787500D02*
X101050000Y-49750000D01*
X99000000Y-50000000D02*
X100800000Y-50000000D01*
X101087500Y-52250000D02*
X101087500Y-49787500D01*
X58102500Y-46672500D02*
X58080000Y-46650000D01*
X58080000Y-46650000D02*
X55450000Y-46650000D01*
X100800000Y-50000000D02*
X101050000Y-49750000D01*
%TO.N,ROTA1*%
X72587500Y-52250000D02*
X72587500Y-49537500D01*
X71247000Y-49410000D02*
X71254000Y-49403000D01*
X55450000Y-45850000D02*
X59052000Y-45850000D01*
X71254000Y-49403000D02*
X72453000Y-49403000D01*
X72587500Y-49537500D02*
X72550000Y-49500000D01*
X72453000Y-49403000D02*
X72550000Y-49500000D01*
X59052000Y-45850000D02*
X59055000Y-45847000D01*
%TO.N,ROTB1*%
X77750000Y-52462500D02*
X77750000Y-50000000D01*
X57150000Y-47450000D02*
X55450000Y-47450000D01*
X77291500Y-49962500D02*
X77712500Y-49962500D01*
X76327000Y-50927000D02*
X77291500Y-49962500D01*
X77587500Y-50537500D02*
X77550000Y-50500000D01*
X76200000Y-50927000D02*
X76327000Y-50927000D01*
%TO.N,SW1*%
X70358000Y-38550000D02*
X70358000Y-38481000D01*
X71120000Y-37719000D02*
X71985500Y-37719000D01*
X70358000Y-38481000D02*
X71120000Y-37719000D01*
X55060000Y-38550000D02*
X55118000Y-38608000D01*
X53750000Y-38550000D02*
X55060000Y-38550000D01*
D43*
%TO.N,VBUS+*%
X66477000Y-36703000D02*
X64938000Y-36703000D01*
D44*
%TO.N,USB_D-*%
X66736000Y-35753000D02*
X64938000Y-35753000D01*
X66877997Y-35611007D02*
X66793142Y-35695859D01*
X67098443Y-34643511D02*
X67302259Y-34847327D01*
X69171000Y-31272000D02*
X69171000Y-33318000D01*
X67302259Y-34847327D02*
X67641672Y-35186740D01*
X67350510Y-35744111D02*
X67217407Y-35611008D01*
X67726524Y-34423064D02*
X67522707Y-34219247D01*
X69171000Y-33318000D02*
X68065936Y-34423064D01*
X67774775Y-35659256D02*
X67689922Y-35744110D01*
X66793142Y-35695859D02*
X66736000Y-35753000D01*
X67183296Y-34219247D02*
X67098443Y-34304099D01*
X67641672Y-35186740D02*
X67774776Y-35319844D01*
X67217407Y-35611008D02*
G75*
G03*
X66877995Y-35611005I-169707J-169692D01*
G01*
X68065936Y-34423064D02*
G75*
G02*
X67726524Y-34423064I-169706J169704D01*
G01*
X67522707Y-34219247D02*
G75*
G03*
X67183297Y-34219247I-169705J-169703D01*
G01*
X67689922Y-35744110D02*
G75*
G02*
X67350495Y-35744127I-169722J169710D01*
G01*
X67774776Y-35319844D02*
G75*
G02*
X67774726Y-35659206I-169676J-169656D01*
G01*
X67098443Y-34304099D02*
G75*
G03*
X67098448Y-34643506I169657J-169701D01*
G01*
D42*
%TO.N,Net-(J2-CC1)*%
X73596000Y-34122000D02*
X70871000Y-31397000D01*
X74933500Y-34122000D02*
X73596000Y-34122000D01*
X70871000Y-31397000D02*
X70871000Y-31272000D01*
%TO.N,USB_D+*%
X69171000Y-29955884D02*
X69171000Y-29922000D01*
D44*
X70021000Y-31032000D02*
X69171000Y-30182000D01*
X69171000Y-30182000D02*
X69171000Y-29955884D01*
X70021000Y-31272000D02*
X70021000Y-31032000D01*
X70021000Y-31272000D02*
X70021000Y-34373000D01*
X70021000Y-34373000D02*
X66741000Y-37653000D01*
X66741000Y-37653000D02*
X64938000Y-37653000D01*
D42*
%TO.N,Net-(J2-CC2)*%
X62634500Y-28321000D02*
X67178205Y-28321000D01*
X67178205Y-28321000D02*
X68321000Y-29463795D01*
X68321000Y-29463795D02*
X68321000Y-29922000D01*
D44*
%TO.N,MPU_USB_D-*%
X47371000Y-38529000D02*
X47350000Y-38550000D01*
X62428000Y-35753000D02*
X60132000Y-35753000D01*
X59407000Y-36478000D02*
X48231000Y-36478000D01*
X60132000Y-35753000D02*
X59407000Y-36478000D01*
X48231000Y-36478000D02*
X47371000Y-37338000D01*
X47371000Y-37338000D02*
X47371000Y-38529000D01*
%TO.N,MPU_USB_D+*%
X57051036Y-36928000D02*
X55582000Y-36928000D01*
X48150000Y-37743000D02*
X48150000Y-38550000D01*
X60132000Y-37653000D02*
X59407000Y-36928000D01*
X57411036Y-37499608D02*
X57411036Y-37168000D01*
X57171036Y-36928000D02*
X57051036Y-36928000D01*
X55582000Y-36928000D02*
X48965000Y-36928000D01*
X57771036Y-37739608D02*
X57651036Y-37739608D01*
X48965000Y-36928000D02*
X48150000Y-37743000D01*
X62428000Y-37653000D02*
X60132000Y-37653000D01*
X59407000Y-36928000D02*
X58251036Y-36928000D01*
X58011036Y-37168000D02*
X58011036Y-37499608D01*
X57411036Y-37168000D02*
G75*
G03*
X57171036Y-36927964I-240036J0D01*
G01*
X58011036Y-37499608D02*
G75*
G02*
X57771036Y-37739636I-240036J8D01*
G01*
X57651036Y-37739608D02*
G75*
G02*
X57410992Y-37499608I-36J240008D01*
G01*
X58251036Y-36928000D02*
G75*
G03*
X58011000Y-37168000I-36J-240000D01*
G01*
D42*
%TO.N,Net-(D13-A)*%
X55000000Y-125600000D02*
X54110000Y-124710000D01*
X54110000Y-124710000D02*
X41440000Y-124710000D01*
%TO.N,ROW 3*%
X92606000Y-129794000D02*
X93500000Y-128900000D01*
X40027000Y-42650000D02*
X44050000Y-42650000D01*
X94521000Y-129921000D02*
X111479000Y-129921000D01*
X54991000Y-128909000D02*
X55000000Y-128900000D01*
X111479000Y-129921000D02*
X112500000Y-128900000D01*
X56021000Y-129921000D02*
X73229000Y-129921000D01*
X55000000Y-128900000D02*
X56021000Y-129921000D01*
X54991000Y-130556000D02*
X54991000Y-128909000D01*
X93500000Y-128900000D02*
X94521000Y-129921000D01*
X73229000Y-129921000D02*
X74250000Y-128900000D01*
X74250000Y-128900000D02*
X75144000Y-129794000D01*
X75144000Y-129794000D02*
X92606000Y-129794000D01*
%TO.N,Net-(D14-A)*%
X74250000Y-125600000D02*
X73360000Y-124710000D01*
X73360000Y-124710000D02*
X60690000Y-124710000D01*
%TO.N,Net-(D15-A)*%
X92610000Y-124710000D02*
X79940000Y-124710000D01*
X93500000Y-125600000D02*
X92610000Y-124710000D01*
%TO.N,Net-(D16-A)*%
X112500000Y-125600000D02*
X111610000Y-124710000D01*
X111610000Y-124710000D02*
X99190000Y-124710000D01*
%TO.N,Net-(S17-CHANNEL_A)*%
X96575000Y-54075000D02*
X96575000Y-51522000D01*
X96575000Y-54075000D02*
X97750000Y-55250000D01*
%TO.N,Net-(S17-CHANNEL_B)*%
X102912500Y-52250000D02*
X102912500Y-55087500D01*
X102912500Y-55087500D02*
X102750000Y-55250000D01*
%TO.N,Net-(S18-CHANNEL_A)*%
X74412500Y-55162500D02*
X74500000Y-55250000D01*
X74412500Y-52250000D02*
X74412500Y-55162500D01*
%TO.N,Net-(S18-CHANNEL_B)*%
X79500000Y-52537500D02*
X79575000Y-52462500D01*
X79500000Y-55250000D02*
X79500000Y-52537500D01*
%TD*%
M02*
