%TF.GenerationSoftware,KiCad,Pcbnew,9.0.0*%
%TF.CreationDate,2025-06-12T19:16:51-06:00*%
%TF.ProjectId,final_macropad,66696e61-6c5f-46d6-9163-726f7061642e,rev?*%
%TF.SameCoordinates,Original*%
%TF.FileFunction,Other,User*%
%FSLAX46Y46*%
G04 Gerber Fmt 4.6, Leading zero omitted, Abs format (unit mm)*
G04 Created by KiCad (PCBNEW 9.0.0) date 2025-06-12 19:16:51*
%MOMM*%
%LPD*%
G01*
G04 APERTURE LIST*
%ADD10C,0.050000*%
%ADD11C,0.010000*%
G04 APERTURE END LIST*
D10*
%TO.C,H3*%
X36450000Y-140052944D02*
G75*
G02*
X29550000Y-140052944I-3450000J0D01*
G01*
X29550000Y-140052944D02*
G75*
G02*
X36450000Y-140052944I3450000J0D01*
G01*
%TO.C,S17*%
X93500000Y-47500000D02*
X93500000Y-42000000D01*
X93500000Y-47500000D02*
X96250000Y-47500000D01*
X96250000Y-36250000D02*
X109250000Y-36250000D01*
X96250000Y-42000000D02*
X93500000Y-42000000D01*
X96250000Y-42000000D02*
X96250000Y-36250000D01*
X96250000Y-56750000D02*
X96250000Y-47500000D01*
X109250000Y-36250000D02*
X109250000Y-42000000D01*
X109250000Y-42000000D02*
X112000000Y-42000000D01*
X109250000Y-47500000D02*
X109250000Y-56750000D01*
X109250000Y-56750000D02*
X96250000Y-56750000D01*
X112000000Y-42000000D02*
X112000000Y-47500000D01*
X112000000Y-47500000D02*
X109250000Y-47500000D01*
%TO.C,H4*%
X118700000Y-140052944D02*
G75*
G02*
X111800000Y-140052944I-3450000J0D01*
G01*
X111800000Y-140052944D02*
G75*
G02*
X118700000Y-140052944I3450000J0D01*
G01*
%TO.C,S3*%
X77150000Y-62860000D02*
X90350000Y-62860000D01*
X77150000Y-76060000D02*
X77150000Y-62860000D01*
X90350000Y-62860000D02*
X90350000Y-76060000D01*
X90350000Y-76060000D02*
X77150000Y-76060000D01*
%TO.C,S14*%
X57900000Y-120650000D02*
X71100000Y-120650000D01*
X57900000Y-133850000D02*
X57900000Y-120650000D01*
X71100000Y-120650000D02*
X71100000Y-133850000D01*
X71100000Y-133850000D02*
X57900000Y-133850000D01*
%TO.C,S6*%
X57900000Y-82110000D02*
X71100000Y-82110000D01*
X57900000Y-95310000D02*
X57900000Y-82110000D01*
X71100000Y-82110000D02*
X71100000Y-95310000D01*
X71100000Y-95310000D02*
X57900000Y-95310000D01*
%TO.C,H8*%
X96020000Y-117710000D02*
G75*
G02*
X91120000Y-117710000I-2450000J0D01*
G01*
X91120000Y-117710000D02*
G75*
G02*
X96020000Y-117710000I2450000J0D01*
G01*
%TO.C,H5*%
X57120000Y-78960000D02*
G75*
G02*
X52220000Y-78960000I-2450000J0D01*
G01*
X52220000Y-78960000D02*
G75*
G02*
X57120000Y-78960000I2450000J0D01*
G01*
%TO.C,S7*%
X77150000Y-82110000D02*
X90350000Y-82110000D01*
X77150000Y-95310000D02*
X77150000Y-82110000D01*
X90350000Y-82110000D02*
X90350000Y-95310000D01*
X90350000Y-95310000D02*
X77150000Y-95310000D01*
%TO.C,S4*%
X96400000Y-62860000D02*
X109600000Y-62860000D01*
X96400000Y-76060000D02*
X96400000Y-62860000D01*
X109600000Y-62860000D02*
X109600000Y-76060000D01*
X109600000Y-76060000D02*
X96400000Y-76060000D01*
%TO.C,S8*%
X96400000Y-82110000D02*
X109600000Y-82110000D01*
X96400000Y-95310000D02*
X96400000Y-82110000D01*
X109600000Y-82110000D02*
X109600000Y-95310000D01*
X109600000Y-95310000D02*
X96400000Y-95310000D01*
%TO.C,H1*%
X36450000Y-29447056D02*
G75*
G02*
X29550000Y-29447056I-3450000J0D01*
G01*
X29550000Y-29447056D02*
G75*
G02*
X36450000Y-29447056I3450000J0D01*
G01*
%TO.C,H6*%
X57120000Y-117710000D02*
G75*
G02*
X52220000Y-117710000I-2450000J0D01*
G01*
X52220000Y-117710000D02*
G75*
G02*
X57120000Y-117710000I2450000J0D01*
G01*
%TO.C,S5*%
X38650000Y-82110000D02*
X51850000Y-82110000D01*
X38650000Y-95310000D02*
X38650000Y-82110000D01*
X51850000Y-82110000D02*
X51850000Y-95310000D01*
X51850000Y-95310000D02*
X38650000Y-95310000D01*
%TO.C,S1*%
X38650000Y-62860000D02*
X51850000Y-62860000D01*
X38650000Y-76060000D02*
X38650000Y-62860000D01*
X51850000Y-62860000D02*
X51850000Y-76060000D01*
X51850000Y-76060000D02*
X38650000Y-76060000D01*
%TO.C,S10*%
X57900000Y-101360000D02*
X71100000Y-101360000D01*
X57900000Y-114560000D02*
X57900000Y-101360000D01*
X71100000Y-101360000D02*
X71100000Y-114560000D01*
X71100000Y-114560000D02*
X57900000Y-114560000D01*
%TO.C,H7*%
X96020000Y-78960000D02*
G75*
G02*
X91120000Y-78960000I-2450000J0D01*
G01*
X91120000Y-78960000D02*
G75*
G02*
X96020000Y-78960000I2450000J0D01*
G01*
%TO.C,H2*%
X118700000Y-29447056D02*
G75*
G02*
X111800000Y-29447056I-3450000J0D01*
G01*
X111800000Y-29447056D02*
G75*
G02*
X118700000Y-29447056I3450000J0D01*
G01*
%TO.C,S12*%
X96400000Y-101360000D02*
X109600000Y-101360000D01*
X96400000Y-114560000D02*
X96400000Y-101360000D01*
X109600000Y-101360000D02*
X109600000Y-114560000D01*
X109600000Y-114560000D02*
X96400000Y-114560000D01*
%TO.C,U3*%
X36750000Y-30750000D02*
X63250000Y-30750000D01*
X36750000Y-57250000D02*
X36750000Y-30750000D01*
X63250000Y-30750000D02*
X63250000Y-57250000D01*
X63250000Y-57250000D02*
X36750000Y-57250000D01*
%TO.C,S2*%
X57900000Y-62860000D02*
X71100000Y-62860000D01*
X57900000Y-76060000D02*
X57900000Y-62860000D01*
X71100000Y-62860000D02*
X71100000Y-76060000D01*
X71100000Y-76060000D02*
X57900000Y-76060000D01*
%TO.C,S9*%
X38650000Y-101360000D02*
X51850000Y-101360000D01*
X38650000Y-114560000D02*
X38650000Y-101360000D01*
X51850000Y-101360000D02*
X51850000Y-114560000D01*
X51850000Y-114560000D02*
X38650000Y-114560000D01*
D11*
%TO.C,J2*%
X64326000Y-22922000D02*
X64326000Y-32672000D01*
X64326000Y-32672000D02*
X74866000Y-32672000D01*
X74866000Y-22922000D02*
X64326000Y-22922000D01*
X74866000Y-32672000D02*
X74866000Y-22922000D01*
D10*
%TO.C,S15*%
X77150000Y-120650000D02*
X90350000Y-120650000D01*
X77150000Y-133850000D02*
X77150000Y-120650000D01*
X90350000Y-120650000D02*
X90350000Y-133850000D01*
X90350000Y-133850000D02*
X77150000Y-133850000D01*
%TO.C,S18*%
X70250000Y-47500000D02*
X70250000Y-42000000D01*
X70250000Y-47500000D02*
X73000000Y-47500000D01*
X73000000Y-36250000D02*
X86000000Y-36250000D01*
X73000000Y-42000000D02*
X70250000Y-42000000D01*
X73000000Y-42000000D02*
X73000000Y-36250000D01*
X73000000Y-56750000D02*
X73000000Y-47500000D01*
X86000000Y-36250000D02*
X86000000Y-42000000D01*
X86000000Y-42000000D02*
X88750000Y-42000000D01*
X86000000Y-47500000D02*
X86000000Y-56750000D01*
X86000000Y-56750000D02*
X73000000Y-56750000D01*
X88750000Y-42000000D02*
X88750000Y-47500000D01*
X88750000Y-47500000D02*
X86000000Y-47500000D01*
%TO.C,S16*%
X96400000Y-120650000D02*
X109600000Y-120650000D01*
X96400000Y-133850000D02*
X96400000Y-120650000D01*
X109600000Y-120650000D02*
X109600000Y-133850000D01*
X109600000Y-133850000D02*
X96400000Y-133850000D01*
%TO.C,S13*%
X38650000Y-120650000D02*
X51850000Y-120650000D01*
X38650000Y-133850000D02*
X38650000Y-120650000D01*
X51850000Y-120650000D02*
X51850000Y-133850000D01*
X51850000Y-133850000D02*
X38650000Y-133850000D01*
%TO.C,S11*%
X77150000Y-101360000D02*
X90350000Y-101360000D01*
X77150000Y-114560000D02*
X77150000Y-101360000D01*
X90350000Y-101360000D02*
X90350000Y-114560000D01*
X90350000Y-114560000D02*
X77150000Y-114560000D01*
%TD*%
M02*
